{"midiFile":"/Users/davidkurz/Documents/Lights_Project/Midi/MIDI 01 We Love Animals3.mid","audioFile":"/Users/davidkurz/Documents/Lights_Project/Songs/Crookers - We Love Animals.wav","midiEvents":[{"track":1,"delta":0,"tick":0,"byteIndex":44,"name":"Note on","channel":1,"noteNumber":38,"noteName":"D2","velocity":24,"programs":[{"name":"solid","params":{"length":48,"color":"rgba(255, 0, 4, 1.0)","height":{"start":60,"end":60,"ease":"easeBounce","speed":1},"y":{"start":0,"end":0,"ease":"easeLinear"},"opacity":{"start":1,"end":0.5,"ease":"easeLinear","speed":1},"noise":{"start":0,"end":0,"ease":"easeLinear"}},"columnParams":{"type":"manual","manualSelections":{"3":true,"4":true,"7":true,"8":true,"11":true,"12":true,"15":true,"16":true}},"title":"Red"}]},{"track":1,"delta":93,"tick":93,"byteIndex":52,"name":"Note on","channel":1,"noteNumber":36,"noteName":"C2","velocity":10,"programs":[{"name":"solid","params":{"length":48,"color":"rgba(255, 0, 4, 1.0)","height":{"start":60,"end":60,"ease":"easeBounce","speed":1},"y":{"start":180,"end":180,"ease":"easeLinear","speed":1},"opacity":{"start":1,"end":0.5,"ease":"easeLinear","speed":1},"noise":{"start":0,"end":0,"ease":"easeLinear"}},"columnParams":{"type":"manual","manualSelections":{}},"title":"Red"}]},{"track":1,"delta":36,"tick":143,"byteIndex":76,"name":"Note on","channel":1,"noteNumber":36,"noteName":"C2","velocity":6,"programs":[{"name":"solid","params":{"length":48,"color":"rgba(255, 0, 4, 1.0)","height":{"start":60,"end":60,"ease":"easeBounce","speed":1},"y":{"start":0,"end":0,"ease":"easeLinear"},"opacity":{"start":1,"end":0.5,"ease":"easeLinear","speed":1},"noise":{"start":0,"end":0,"ease":"easeLinear"}},"columnParams":{"type":"manual","manualSelections":{}},"title":"Red"}]},{"track":1,"delta":0,"tick":188,"byteIndex":104,"name":"Note on","channel":1,"noteNumber":38,"noteName":"D2","velocity":20,"programs":[{"name":"solid","params":{"length":23,"color":"rgba(255, 0, 4, 1.0)","height":{"start":60,"end":60,"ease":"easeBounce","speed":1},"y":{"start":180,"end":180,"ease":"easeLinear","speed":1},"opacity":{"start":1,"end":0.5,"ease":"easeLinear","speed":1},"noise":{"start":0,"end":0,"ease":"easeLinear"}},"columnParams":{"type":"manual","manualSelections":{}},"title":"Red"}]},{"track":1,"delta":0,"tick":211,"byteIndex":120,"name":"Note on","channel":1,"noteNumber":38,"noteName":"D2","velocity":15,"programs":[{"name":"solid","params":{"length":23,"color":"rgba(255, 0, 4, 1.0)","height":{"start":60,"end":60,"ease":"easeBounce","speed":1},"y":{"start":270,"end":270,"ease":"easeLinear","speed":1},"opacity":{"start":1,"end":0.5,"ease":"easeLinear","speed":1},"noise":{"start":0,"end":0,"ease":"easeLinear"}},"columnParams":{"type":"manual","manualSelections":{}},"title":"Red"}]},{"track":1,"delta":0,"tick":233,"byteIndex":136,"name":"Note on","channel":1,"noteNumber":38,"noteName":"D2","velocity":13,"programs":[{"name":"solid","params":{"length":23,"color":"rgba(255, 0, 4, 1.0)","height":{"start":60,"end":60,"ease":"easeBounce","speed":1},"y":{"start":180,"end":180,"ease":"easeLinear","speed":1},"opacity":{"start":1,"end":0.5,"ease":"easeLinear","speed":1},"noise":{"start":0,"end":0,"ease":"easeLinear"}},"columnParams":{"type":"manual","manualSelections":{}},"title":"Red"}]},{"track":1,"delta":0,"tick":259,"byteIndex":152,"name":"Note on","channel":1,"noteNumber":38,"noteName":"D2","velocity":13,"programs":[{"name":"solid","params":{"length":23,"color":"rgba(255, 0, 4, 1.0)","height":{"start":60,"end":60,"ease":"easeBounce","speed":1},"y":{"start":270,"end":270,"ease":"easeLinear","speed":1},"opacity":{"start":1,"end":0.5,"ease":"easeLinear","speed":1},"noise":{"start":0,"end":0,"ease":"easeLinear"}},"columnParams":{"type":"manual","manualSelections":{}},"title":"Red"}]},{"track":1,"delta":0,"tick":283,"byteIndex":168,"name":"Note on","channel":1,"noteNumber":38,"noteName":"D2","velocity":9,"programs":[{"name":"solid","params":{"length":23,"color":"rgba(255, 0, 4, 1.0)","height":{"start":60,"end":60,"ease":"easeBounce","speed":1},"y":{"start":180,"end":180,"ease":"easeLinear","speed":1},"opacity":{"start":1,"end":0.5,"ease":"easeLinear","speed":1},"noise":{"start":0,"end":0,"ease":"easeLinear"}},"columnParams":{"type":"manual","manualSelections":{}},"title":"Red"}]},{"track":1,"delta":0,"tick":310,"byteIndex":184,"name":"Note on","channel":1,"noteNumber":38,"noteName":"D2","velocity":11,"programs":[{"name":"solid","params":{"length":23,"color":"rgba(255, 0, 4, 1.0)","height":{"start":60,"end":60,"ease":"easeBounce","speed":1},"y":{"start":270,"end":270,"ease":"easeLinear","speed":1},"opacity":{"start":1,"end":0.5,"ease":"easeLinear","speed":1},"noise":{"start":0,"end":0,"ease":"easeLinear"}},"columnParams":{"type":"manual","manualSelections":{}},"title":"Red"}]},{"track":1,"delta":0,"tick":334,"byteIndex":200,"name":"Note on","channel":1,"noteNumber":38,"noteName":"D2","velocity":9,"programs":[{"name":"solid","params":{"length":23,"color":"rgba(255, 0, 4, 1.0)","height":{"start":60,"end":60,"ease":"easeBounce","speed":1},"y":{"start":180,"end":180,"ease":"easeLinear","speed":1},"opacity":{"start":1,"end":0.5,"ease":"easeLinear","speed":1},"noise":{"start":0,"end":0,"ease":"easeLinear"}},"columnParams":{"type":"manual","manualSelections":{"1":true,"2":true,"3":true,"4":true,"5":true,"8":true,"9":true,"12":true,"13":true,"14":true,"15":true,"16":true}},"title":"Red"}]},{"track":1,"delta":0,"tick":382,"byteIndex":216,"name":"Note on","channel":1,"noteNumber":38,"noteName":"D2","velocity":9,"programs":[]},{"track":1,"delta":5,"tick":408,"byteIndex":232,"name":"Note on","channel":1,"noteNumber":42,"noteName":"Gb2","velocity":1,"programs":[]},{"track":1,"delta":0,"tick":425,"byteIndex":240,"name":"Note on","channel":1,"noteNumber":42,"noteName":"Gb2","velocity":1,"programs":[{"name":"solid","params":{"length":23,"color":"rgba(255, 0, 4, 1.0)","height":{"start":60,"end":60,"ease":"easeBounce","speed":1},"y":{"start":180,"end":180,"ease":"easeLinear","speed":1},"opacity":{"start":1,"end":0.5,"ease":"easeLinear","speed":1},"noise":{"start":0,"end":0,"ease":"easeLinear"}},"columnParams":{"type":"manual","manualSelections":{"6":true,"7":true,"10":true,"11":true}},"title":"Red"}]},{"track":1,"delta":0,"tick":479,"byteIndex":252,"name":"Note on","channel":1,"noteNumber":42,"noteName":"Gb2","velocity":1,"programs":[]},{"track":1,"delta":46,"tick":525,"byteIndex":256,"name":"Note on","channel":1,"noteNumber":38,"noteName":"D2","velocity":17,"programs":[{"name":"solid","params":{"length":23,"color":"rgba(255, 0, 4, 1.0)","height":{"start":60,"end":60,"ease":"easeBounce","speed":1},"y":{"start":180,"end":180,"ease":"easeLinear","speed":1},"opacity":{"start":1,"end":0.5,"ease":"easeLinear","speed":1},"noise":{"start":0,"end":0,"ease":"easeLinear"}},"columnParams":{"type":"manual","manualSelections":{"1":true,"5":true,"7":true,"8":true,"9":true,"11":true,"12":true,"13":true}},"title":"Red"}]},{"track":1,"delta":0,"tick":573,"byteIndex":272,"name":"Note on","channel":1,"noteNumber":42,"noteName":"Gb2","velocity":1,"programs":[]},{"track":1,"delta":0,"tick":597,"byteIndex":280,"name":"Note on","channel":1,"noteNumber":42,"noteName":"Gb2","velocity":1,"programs":[]},{"track":1,"delta":0,"tick":614,"byteIndex":288,"name":"Note on","channel":1,"noteNumber":38,"noteName":"D2","velocity":16,"programs":[]},{"track":1,"delta":0,"tick":642,"byteIndex":304,"name":"Note on","channel":1,"noteNumber":42,"noteName":"Gb2","velocity":1,"programs":[{"name":"solid","params":{"length":23,"color":"rgba(255, 0, 4, 1.0)","height":{"start":60,"end":60,"ease":"easeBounce","speed":1},"y":{"start":180,"end":180,"ease":"easeLinear","speed":1},"opacity":{"start":1,"end":0.5,"ease":"easeLinear","speed":1},"noise":{"start":0,"end":0,"ease":"easeLinear"}},"columnParams":{"type":"manual","manualSelections":{"2":true,"4":true,"5":true,"7":true,"9":true,"11":true,"14":true,"16":true}},"title":"Red"}]},{"track":1,"delta":0,"tick":670,"byteIndex":312,"name":"Note on","channel":1,"noteNumber":42,"noteName":"Gb2","velocity":1,"programs":[]},{"track":1,"delta":0,"tick":691,"byteIndex":320,"name":"Note on","channel":1,"noteNumber":42,"noteName":"Gb2","velocity":1,"programs":[]},{"track":1,"delta":0,"tick":720,"byteIndex":328,"name":"Note on","channel":1,"noteNumber":38,"noteName":"D2","velocity":16,"programs":[]},{"track":1,"delta":0,"tick":743,"byteIndex":344,"name":"Note on","channel":1,"noteNumber":42,"noteName":"Gb2","velocity":1,"programs":[]},{"track":1,"delta":0,"tick":765,"byteIndex":352,"name":"Note on","channel":1,"noteNumber":38,"noteName":"D2","velocity":17,"programs":[]},{"track":1,"delta":0,"tick":864,"byteIndex":368,"name":"Note on","channel":1,"noteNumber":38,"noteName":"D2","velocity":19,"programs":[{"name":"solid","params":{"length":23,"color":"rgba(255, 0, 4, 1.0)","height":{"start":60,"end":60,"ease":"easeBounce","speed":1},"y":{"start":180,"end":180,"ease":"easeLinear","speed":1},"opacity":{"start":1,"end":0.5,"ease":"easeLinear","speed":1},"noise":{"start":0,"end":0,"ease":"easeLinear"}},"columnParams":{"type":"manual","manualSelections":{"1":true,"2":true,"3":true,"5":true,"6":true,"8":true,"9":true,"11":true,"12":true,"14":true,"15":true,"16":true}},"title":"Red"}]},{"track":1,"delta":0,"tick":910,"byteIndex":384,"name":"Note on","channel":1,"noteNumber":38,"noteName":"D2","velocity":16,"programs":[]},{"track":1,"delta":0,"tick":959,"byteIndex":400,"name":"Note on","channel":1,"noteNumber":42,"noteName":"Gb2","velocity":1,"programs":[]},{"track":1,"delta":0,"tick":978,"byteIndex":408,"name":"Note on","channel":1,"noteNumber":42,"noteName":"Gb2","velocity":1,"programs":[]},{"track":1,"delta":0,"tick":1001,"byteIndex":416,"name":"Note on","channel":1,"noteNumber":42,"noteName":"Gb2","velocity":1,"programs":[{"name":"solid","params":{"length":23,"color":"rgba(255, 0, 4, 1.0)","height":{"start":60,"end":60,"ease":"easeBounce","speed":1},"y":{"start":180,"end":180,"ease":"easeLinear","speed":1},"opacity":{"start":1,"end":0.5,"ease":"easeLinear","speed":1},"noise":{"start":0,"end":0,"ease":"easeLinear"}},"columnParams":{"type":"manual","manualSelections":{"1":true,"2":true,"3":true,"4":true,"5":true,"8":true,"9":true,"12":true,"13":true,"14":true,"15":true,"16":true}},"title":"Red"}]},{"track":1,"delta":0,"tick":1027,"byteIndex":424,"name":"Note on","channel":1,"noteNumber":42,"noteName":"Gb2","velocity":1,"programs":[]},{"track":1,"delta":0,"tick":1051,"byteIndex":432,"name":"Note on","channel":1,"noteNumber":42,"noteName":"Gb2","velocity":1,"programs":[]},{"track":1,"delta":0,"tick":1079,"byteIndex":440,"name":"Note on","channel":1,"noteNumber":42,"noteName":"Gb2","velocity":1,"programs":[]},{"track":1,"delta":0,"tick":1103,"byteIndex":448,"name":"Note on","channel":1,"noteNumber":38,"noteName":"D2","velocity":16,"programs":[]},{"track":1,"delta":0,"tick":1150,"byteIndex":464,"name":"Note on","channel":1,"noteNumber":42,"noteName":"Gb2","velocity":1,"programs":[]},{"track":1,"delta":0,"tick":1248,"byteIndex":472,"name":"Note on","channel":1,"noteNumber":38,"noteName":"D2","velocity":19,"programs":[]},{"track":1,"delta":0,"tick":1293,"byteIndex":488,"name":"Note on","channel":1,"noteNumber":38,"noteName":"D2","velocity":16,"programs":[]},{"track":1,"delta":0,"tick":1341,"byteIndex":504,"name":"Note on","channel":1,"noteNumber":42,"noteName":"Gb2","velocity":1,"programs":[]},{"track":1,"delta":0,"tick":1364,"byteIndex":512,"name":"Note on","channel":1,"noteNumber":42,"noteName":"Gb2","velocity":1,"programs":[]},{"track":1,"delta":0,"tick":1386,"byteIndex":520,"name":"Note on","channel":1,"noteNumber":38,"noteName":"D2","velocity":16,"programs":[]},{"track":1,"delta":0,"tick":1412,"byteIndex":536,"name":"Note on","channel":1,"noteNumber":42,"noteName":"Gb2","velocity":1,"programs":[]},{"track":1,"delta":0,"tick":1436,"byteIndex":544,"name":"Note on","channel":1,"noteNumber":42,"noteName":"Gb2","velocity":1,"programs":[]},{"track":1,"delta":0,"tick":1460,"byteIndex":552,"name":"Note on","channel":1,"noteNumber":42,"noteName":"Gb2","velocity":1,"programs":[]},{"track":1,"delta":0,"tick":1484,"byteIndex":560,"name":"Note on","channel":1,"noteNumber":38,"noteName":"D2","velocity":16,"programs":[]},{"track":1,"delta":0,"tick":1532,"byteIndex":576,"name":"Note on","channel":1,"noteNumber":38,"noteName":"D2","velocity":17,"programs":[]},{"track":1,"delta":0,"tick":1631,"byteIndex":592,"name":"Note on","channel":1,"noteNumber":38,"noteName":"D2","velocity":20,"programs":[]},{"track":1,"delta":0,"tick":1679,"byteIndex":608,"name":"Note on","channel":1,"noteNumber":38,"noteName":"D2","velocity":17,"programs":[]},{"track":1,"delta":0,"tick":1726,"byteIndex":624,"name":"Note on","channel":1,"noteNumber":42,"noteName":"Gb2","velocity":1,"programs":[]},{"track":1,"delta":0,"tick":1747,"byteIndex":632,"name":"Note on","channel":1,"noteNumber":42,"noteName":"Gb2","velocity":1,"programs":[]},{"track":1,"delta":0,"tick":1769,"byteIndex":640,"name":"Note on","channel":1,"noteNumber":42,"noteName":"Gb2","velocity":1,"programs":[]},{"track":1,"delta":0,"tick":1795,"byteIndex":648,"name":"Note on","channel":1,"noteNumber":42,"noteName":"Gb2","velocity":1,"programs":[]},{"track":1,"delta":0,"tick":1819,"byteIndex":656,"name":"Note on","channel":1,"noteNumber":42,"noteName":"Gb2","velocity":1,"programs":[]},{"track":1,"delta":0,"tick":1848,"byteIndex":664,"name":"Note on","channel":1,"noteNumber":42,"noteName":"Gb2","velocity":1,"programs":[]},{"track":1,"delta":0,"tick":1872,"byteIndex":672,"name":"Note on","channel":1,"noteNumber":38,"noteName":"D2","velocity":16,"programs":[]},{"track":1,"delta":0,"tick":1916,"byteIndex":688,"name":"Note on","channel":1,"noteNumber":38,"noteName":"D2","velocity":17,"programs":[]},{"track":1,"delta":0,"tick":2016,"byteIndex":704,"name":"Note on","channel":1,"noteNumber":38,"noteName":"D2","velocity":20,"programs":[]},{"track":1,"delta":45,"tick":2061,"byteIndex":716,"name":"Note on","channel":1,"noteNumber":36,"noteName":"C2","velocity":100,"programs":[]},{"track":1,"delta":0,"tick":2109,"byteIndex":744,"name":"Note on","channel":1,"noteNumber":38,"noteName":"D2","velocity":39,"programs":[]},{"track":1,"delta":0,"tick":2132,"byteIndex":760,"name":"Note on","channel":1,"noteNumber":42,"noteName":"Gb2","velocity":1,"programs":[]},{"track":1,"delta":0,"tick":2155,"byteIndex":768,"name":"Note on","channel":1,"noteNumber":42,"noteName":"Gb2","velocity":1,"programs":[]},{"track":1,"delta":0,"tick":2177,"byteIndex":776,"name":"Note on","channel":1,"noteNumber":42,"noteName":"Gb2","velocity":1,"programs":[]},{"track":1,"delta":0,"tick":2201,"byteIndex":784,"name":"Note on","channel":1,"noteNumber":42,"noteName":"Gb2","velocity":1,"programs":[]},{"track":1,"delta":0,"tick":2227,"byteIndex":792,"name":"Note on","channel":1,"noteNumber":42,"noteName":"Gb2","velocity":1,"programs":[]},{"track":1,"delta":0,"tick":2254,"byteIndex":800,"name":"Note on","channel":1,"noteNumber":42,"noteName":"Gb2","velocity":1,"programs":[]},{"track":1,"delta":0,"tick":2302,"byteIndex":808,"name":"Note on","channel":1,"noteNumber":42,"noteName":"Gb2","velocity":1,"programs":[]},{"track":1,"delta":0,"tick":2399,"byteIndex":816,"name":"Note on","channel":1,"noteNumber":38,"noteName":"D2","velocity":17,"programs":[]},{"track":1,"delta":0,"tick":2446,"byteIndex":836,"name":"Note on","channel":1,"noteNumber":42,"noteName":"Gb2","velocity":1,"programs":[]},{"track":1,"delta":0,"tick":2493,"byteIndex":844,"name":"Note on","channel":1,"noteNumber":42,"noteName":"Gb2","velocity":1,"programs":[]},{"track":1,"delta":0,"tick":2517,"byteIndex":852,"name":"Note on","channel":1,"noteNumber":42,"noteName":"Gb2","velocity":1,"programs":[]},{"track":1,"delta":0,"tick":2538,"byteIndex":860,"name":"Note on","channel":1,"noteNumber":42,"noteName":"Gb2","velocity":1,"programs":[]},{"track":1,"delta":0,"tick":2563,"byteIndex":868,"name":"Note on","channel":1,"noteNumber":42,"noteName":"Gb2","velocity":1,"programs":[]},{"track":1,"delta":0,"tick":2586,"byteIndex":876,"name":"Note on","channel":1,"noteNumber":42,"noteName":"Gb2","velocity":1,"programs":[]},{"track":1,"delta":26,"tick":2612,"byteIndex":880,"name":"Note on","channel":1,"noteNumber":36,"noteName":"C2","velocity":30,"programs":[]},{"track":1,"delta":0,"tick":2652,"byteIndex":900,"name":"Note on","channel":1,"noteNumber":42,"noteName":"Gb2","velocity":1,"programs":[]},{"track":1,"delta":0,"tick":2685,"byteIndex":908,"name":"Note on","channel":1,"noteNumber":42,"noteName":"Gb2","velocity":1,"programs":[]},{"track":1,"delta":0,"tick":2784,"byteIndex":920,"name":"Note on","channel":1,"noteNumber":42,"noteName":"Gb2","velocity":1,"programs":[{"name":"solid","params":{"length":48,"color":"rgba(255, 0, 4, 1.0)","height":{"start":60,"end":60,"ease":"easeBounce","speed":1},"y":{"start":240,"end":0,"ease":"easeLinear"},"opacity":{"start":1,"end":0.5,"ease":"easeLinear","speed":1},"noise":{"start":0,"end":0,"ease":"easeLinear"}},"columnParams":{"type":"manual","manualSelections":{"3":"true","6":"true","7":"true"}},"title":"Script Added"}]},{"track":1,"delta":0,"tick":2830,"byteIndex":928,"name":"Note on","channel":1,"noteNumber":42,"noteName":"Gb2","velocity":2,"programs":[]},{"track":1,"delta":46,"tick":2878,"byteIndex":936,"name":"Note on","channel":1,"noteNumber":36,"noteName":"C2","velocity":19,"programs":[]},{"track":1,"delta":0,"tick":2899,"byteIndex":960,"name":"Note on","channel":1,"noteNumber":42,"noteName":"Gb2","velocity":1,"programs":[]},{"track":1,"delta":0,"tick":2921,"byteIndex":968,"name":"Note on","channel":1,"noteNumber":42,"noteName":"Gb2","velocity":1,"programs":[]},{"track":1,"delta":0,"tick":2947,"byteIndex":976,"name":"Note on","channel":1,"noteNumber":42,"noteName":"Gb2","velocity":1,"programs":[]},{"track":1,"delta":0,"tick":2971,"byteIndex":984,"name":"Note on","channel":1,"noteNumber":42,"noteName":"Gb2","velocity":1,"programs":[]},{"track":1,"delta":0,"tick":2997,"byteIndex":992,"name":"Note on","channel":1,"noteNumber":42,"noteName":"Gb2","velocity":1,"programs":[]},{"track":1,"delta":0,"tick":3023,"byteIndex":1000,"name":"Note on","channel":1,"noteNumber":42,"noteName":"Gb2","velocity":1,"programs":[]},{"track":1,"delta":0,"tick":3085,"byteIndex":1012,"name":"Note on","channel":1,"noteNumber":42,"noteName":"Gb2","velocity":1,"programs":[{"name":"solid","params":{"length":98,"color":"rgba(255, 0, 4, 1.0)","height":{"start":60,"end":60,"ease":"easeBounce","speed":1},"y":{"start":320,"end":270,"ease":"easeLinear","speed":1},"opacity":{"start":1,"end":0.5,"ease":"easeLinear","speed":1},"noise":{"start":0,"end":0,"ease":"easeLinear"}},"columnParams":{"type":"manual","manualSelections":{"1":"true","9":"true","16":"true"}},"title":"Red"}]},{"track":1,"delta":31,"tick":3116,"byteIndex":1016,"name":"Note on","channel":1,"noteNumber":36,"noteName":"C2","velocity":26,"programs":[]},{"track":1,"delta":0,"tick":3206,"byteIndex":1040,"name":"Note on","channel":1,"noteNumber":42,"noteName":"Gb2","velocity":1,"programs":[]},{"track":1,"delta":0,"tick":3231,"byteIndex":1048,"name":"Note on","channel":1,"noteNumber":42,"noteName":"Gb2","velocity":1,"programs":[]},{"track":1,"delta":0,"tick":3255,"byteIndex":1056,"name":"Note on","channel":1,"noteNumber":42,"noteName":"Gb2","velocity":1,"programs":[]},{"track":1,"delta":0,"tick":3280,"byteIndex":1064,"name":"Note on","channel":1,"noteNumber":42,"noteName":"Gb2","velocity":1,"programs":[]},{"track":1,"delta":0,"tick":3303,"byteIndex":1072,"name":"Note on","channel":1,"noteNumber":42,"noteName":"Gb2","velocity":1,"programs":[]},{"track":1,"delta":0,"tick":3365,"byteIndex":1084,"name":"Note on","channel":1,"noteNumber":42,"noteName":"Gb2","velocity":1,"programs":[]},{"track":1,"delta":28,"tick":3393,"byteIndex":1088,"name":"Note on","channel":1,"noteNumber":38,"noteName":"D2","velocity":50,"programs":[]},{"track":1,"delta":0,"tick":3501,"byteIndex":1104,"name":"Note on","channel":1,"noteNumber":42,"noteName":"Gb2","velocity":1,"programs":[]},{"track":1,"delta":0,"tick":3604,"byteIndex":1112,"name":"Note on","channel":1,"noteNumber":42,"noteName":"Gb2","velocity":1,"programs":[{"name":"solid","params":{"length":98,"color":"rgba(255, 0, 4, 1.0)","height":{"start":60,"end":60,"ease":"easeBounce","speed":1},"y":{"start":240,"end":270,"ease":"easeLinear","speed":1},"opacity":{"start":1,"end":0.5,"ease":"easeLinear","speed":1},"noise":{"start":0,"end":0,"ease":"easeLinear"}},"columnParams":{"type":"manual","manualSelections":{"7":"true","11":"true","16":"true"}},"title":"Red"}]},{"track":1,"delta":67,"tick":3685,"byteIndex":1120,"name":"Note on","channel":1,"noteNumber":38,"noteName":"D2","velocity":33,"programs":[]},{"track":1,"delta":0,"tick":3737,"byteIndex":1136,"name":"Note on","channel":1,"noteNumber":42,"noteName":"Gb2","velocity":1,"programs":[]},{"track":1,"delta":0,"tick":3750,"byteIndex":1144,"name":"Note on","channel":1,"noteNumber":42,"noteName":"Gb2","velocity":1,"programs":[]},{"track":1,"delta":0,"tick":3857,"byteIndex":1152,"name":"Note on","channel":1,"noteNumber":38,"noteName":"D2","velocity":35,"programs":[{"name":"solid","params":{"length":98,"color":"rgba(255, 0, 4, 1.0)","height":{"start":0,"end":-60,"ease":"easeBounce","speed":1},"y":{"start":240,"end":270,"ease":"easeLinear","speed":1},"opacity":{"start":1,"end":0.5,"ease":"easeLinear","speed":1},"noise":{"start":0,"end":0,"ease":"easeLinear"}},"columnParams":{"type":"manual","manualSelections":{"2":"true","4":"true","10":"true"}},"title":"Red"}]},{"track":1,"delta":0,"tick":3975,"byteIndex":1168,"name":"Note on","channel":1,"noteNumber":42,"noteName":"Gb2","velocity":1,"programs":[]},{"track":1,"delta":0,"tick":4000,"byteIndex":1176,"name":"Note on","channel":1,"noteNumber":42,"noteName":"Gb2","velocity":1,"programs":[]},{"track":1,"delta":0,"tick":4024,"byteIndex":1184,"name":"Note on","channel":1,"noteNumber":42,"noteName":"Gb2","velocity":1,"programs":[]},{"track":1,"delta":0,"tick":4070,"byteIndex":1192,"name":"Note on","channel":1,"noteNumber":42,"noteName":"Gb2","velocity":80,"programs":[]},{"track":1,"delta":56,"tick":4126,"byteIndex":1196,"name":"Note on","channel":1,"noteNumber":36,"noteName":"C2","velocity":28,"programs":[{"name":"solid","params":{"length":98,"color":"rgba(255, 0, 4, 1.0)","height":{"start":0,"end":-60,"ease":"easeBounce","speed":1},"y":{"start":320,"end":100,"ease":"easeLinear","speed":1},"opacity":{"start":1,"end":0.5,"ease":"easeLinear","speed":1},"noise":{"start":0,"end":0,"ease":"easeLinear"}},"columnParams":{"type":"manual","manualSelections":{"3":"true","4":"true","6":"true"}},"title":"Red"}]},{"track":1,"delta":0,"tick":4403,"byteIndex":1221,"name":"Note on","channel":1,"noteNumber":38,"noteName":"D2","velocity":38,"programs":[{"name":"solid","params":{"length":98,"color":"rgba(255, 220, 69, 1.0)","height":{"start":60,"end":100,"ease":"easeBounce","speed":1},"y":{"start":80,"end":20,"ease":"easeLinear","speed":1},"opacity":{"start":1,"end":0.5,"ease":"easeLinear","speed":1},"noise":{"start":0,"end":0,"ease":"easeLinear"}},"columnParams":{"type":"manual","manualSelections":{"2":"true","12":"true","14":"true"}},"title":"Red"}]},{"track":1,"delta":0,"tick":4455,"byteIndex":1233,"name":"Note on","channel":1,"noteNumber":42,"noteName":"Gb2","velocity":1,"programs":[]},{"track":1,"delta":0,"tick":4500,"byteIndex":1245,"name":"Note on","channel":1,"noteNumber":42,"noteName":"Gb2","velocity":1,"programs":[]},{"track":1,"delta":45,"tick":4545,"byteIndex":1249,"name":"Note on","channel":1,"noteNumber":38,"noteName":"D2","velocity":31,"programs":[]},{"track":1,"delta":135,"tick":4680,"byteIndex":1261,"name":"Note on","channel":1,"noteNumber":36,"noteName":"C2","velocity":28,"programs":[{"name":"solid","params":{"length":48,"color":"rgba(255, 0, 4, 1.0)","height":{"start":60,"end":60,"ease":"easeBounce","speed":1},"y":{"start":40,"end":0,"ease":"easeLinear"},"opacity":{"start":1,"end":0.5,"ease":"easeLinear","speed":1},"noise":{"start":0,"end":0,"ease":"easeLinear"}},"columnParams":{"type":"manual","manualSelections":{"3":"true","8":"true","10":"true"}},"title":"Script Added"}]},{"track":1,"delta":0,"tick":4816,"byteIndex":1290,"name":"Note on","channel":1,"noteNumber":42,"noteName":"Gb2","velocity":1,"programs":[]},{"track":1,"delta":0,"tick":4843,"byteIndex":1298,"name":"Note on","channel":1,"noteNumber":42,"noteName":"Gb2","velocity":66,"programs":[]},{"track":1,"delta":0,"tick":4891,"byteIndex":1306,"name":"Note on","channel":1,"noteNumber":42,"noteName":"Gb2","velocity":1,"programs":[]},{"track":1,"delta":0,"tick":5059,"byteIndex":1315,"name":"Note on","channel":1,"noteNumber":38,"noteName":"D2","velocity":46,"programs":[{"name":"solid","params":{"length":48,"color":"rgba(255, 0, 4, 1.0)","height":{"start":60,"end":60,"ease":"easeBounce","speed":1},"y":{"start":80,"end":0,"ease":"easeLinear"},"opacity":{"start":1,"end":0.5,"ease":"easeLinear","speed":1},"noise":{"start":0,"end":0,"ease":"easeLinear"}},"columnParams":{"type":"manual","manualSelections":{"3":"true","8":"true","16":"true"}},"title":"Script Added"}]},{"track":1,"delta":0,"tick":5226,"byteIndex":1332,"name":"Note on","channel":1,"noteNumber":42,"noteName":"Gb2","velocity":70,"programs":[{"name":"solid","params":{"length":48,"color":"rgba(255, 0, 4, 1.0)","height":{"start":60,"end":60,"ease":"easeBounce","speed":1},"y":{"start":120,"end":0,"ease":"easeLinear"},"opacity":{"start":1,"end":0.5,"ease":"easeLinear","speed":1},"noise":{"start":0,"end":0,"ease":"easeLinear"}},"columnParams":{"type":"manual","manualSelections":{"4":"true","6":"true","16":"true"}},"title":"Script Added"}]},{"track":1,"delta":169,"tick":5395,"byteIndex":1336,"name":"Note on","channel":1,"noteNumber":36,"noteName":"C2","velocity":24,"programs":[]},{"track":1,"delta":0,"tick":5511,"byteIndex":1365,"name":"Note on","channel":1,"noteNumber":42,"noteName":"Gb2","velocity":1,"programs":[]},{"track":1,"delta":36,"tick":5547,"byteIndex":1369,"name":"Note on","channel":1,"noteNumber":36,"noteName":"C2","velocity":30,"programs":[]},{"track":1,"delta":0,"tick":5582,"byteIndex":1397,"name":"Note on","channel":1,"noteNumber":42,"noteName":"Gb2","velocity":1,"programs":[]},{"track":1,"delta":0,"tick":5611,"byteIndex":1405,"name":"Note on","channel":1,"noteNumber":42,"noteName":"Gb2","velocity":1,"programs":[]},{"track":1,"delta":0,"tick":5648,"byteIndex":1413,"name":"Note on","channel":1,"noteNumber":42,"noteName":"Gb2","velocity":65,"programs":[]},{"track":1,"delta":0,"tick":5693,"byteIndex":1421,"name":"Note on","channel":1,"noteNumber":38,"noteName":"D2","velocity":31,"programs":[]},{"track":1,"delta":0,"tick":5841,"byteIndex":1438,"name":"Note on","channel":1,"noteNumber":38,"noteName":"D2","velocity":41,"programs":[]},{"track":1,"delta":0,"tick":5896,"byteIndex":1454,"name":"Note on","channel":1,"noteNumber":42,"noteName":"Gb2","velocity":1,"programs":[]},{"track":1,"delta":0,"tick":5919,"byteIndex":1462,"name":"Note on","channel":1,"noteNumber":42,"noteName":"Gb2","velocity":33,"programs":[]},{"track":1,"delta":0,"tick":5985,"byteIndex":1470,"name":"Note on","channel":1,"noteNumber":42,"noteName":"Gb2","velocity":67,"programs":[]},{"track":1,"delta":0,"tick":6013,"byteIndex":1478,"name":"Note on","channel":1,"noteNumber":42,"noteName":"Gb2","velocity":1,"programs":[]},{"track":1,"delta":0,"tick":6070,"byteIndex":1486,"name":"Note on","channel":1,"noteNumber":38,"noteName":"D2","velocity":35,"programs":[]},{"track":1,"delta":45,"tick":6115,"byteIndex":1498,"name":"Note on","channel":1,"noteNumber":36,"noteName":"C2","velocity":42,"programs":[]},{"track":1,"delta":0,"tick":6227,"byteIndex":1526,"name":"Note on","channel":1,"noteNumber":38,"noteName":"D2","velocity":44,"programs":[]},{"track":1,"delta":0,"tick":6278,"byteIndex":1542,"name":"Note on","channel":1,"noteNumber":42,"noteName":"Gb2","velocity":1,"programs":[]},{"track":1,"delta":0,"tick":6304,"byteIndex":1550,"name":"Note on","channel":1,"noteNumber":42,"noteName":"Gb2","velocity":1,"programs":[]},{"track":1,"delta":0,"tick":6336,"byteIndex":1558,"name":"Note on","channel":1,"noteNumber":42,"noteName":"Gb2","velocity":59,"programs":[]},{"track":1,"delta":0,"tick":6379,"byteIndex":1566,"name":"Note on","channel":1,"noteNumber":42,"noteName":"Gb2","velocity":1,"programs":[]},{"track":1,"delta":0,"tick":6440,"byteIndex":1574,"name":"Note on","channel":1,"noteNumber":42,"noteName":"Gb2","velocity":8,"programs":[]},{"track":1,"delta":95,"tick":6545,"byteIndex":1582,"name":"Note on","channel":1,"noteNumber":38,"noteName":"D2","velocity":35,"programs":[]},{"track":1,"delta":0,"tick":6648,"byteIndex":1598,"name":"Note on","channel":1,"noteNumber":38,"noteName":"D2","velocity":33,"programs":[]},{"track":1,"delta":102,"tick":6750,"byteIndex":1610,"name":"Note on","channel":1,"noteNumber":36,"noteName":"C2","velocity":4,"programs":[]},{"track":1,"delta":0,"tick":6782,"byteIndex":1638,"name":"Note on","channel":1,"noteNumber":42,"noteName":"Gb2","velocity":30,"programs":[]},{"track":1,"delta":0,"tick":6821,"byteIndex":1646,"name":"Note on","channel":1,"noteNumber":42,"noteName":"Gb2","velocity":1,"programs":[]},{"track":1,"delta":0,"tick":6856,"byteIndex":1654,"name":"Note on","channel":1,"noteNumber":38,"noteName":"D2","velocity":27,"programs":[]},{"track":1,"delta":0,"tick":6952,"byteIndex":1670,"name":"Note on","channel":1,"noteNumber":38,"noteName":"D2","velocity":32,"programs":[]},{"track":1,"delta":99,"tick":7051,"byteIndex":1682,"name":"Note on","channel":1,"noteNumber":36,"noteName":"C2","velocity":4,"programs":[]},{"track":1,"delta":0,"tick":7072,"byteIndex":1710,"name":"Note on","channel":1,"noteNumber":42,"noteName":"Gb2","velocity":1,"programs":[]},{"track":1,"delta":0,"tick":7101,"byteIndex":1718,"name":"Note on","channel":1,"noteNumber":42,"noteName":"Gb2","velocity":1,"programs":[]},{"track":1,"delta":0,"tick":7147,"byteIndex":1726,"name":"Note on","channel":1,"noteNumber":38,"noteName":"D2","velocity":27,"programs":[]},{"track":1,"delta":0,"tick":7242,"byteIndex":1742,"name":"Note on","channel":1,"noteNumber":38,"noteName":"D2","velocity":31,"programs":[]},{"track":1,"delta":93,"tick":7335,"byteIndex":1754,"name":"Note on","channel":1,"noteNumber":36,"noteName":"C2","velocity":6,"programs":[]},{"track":1,"delta":0,"tick":7418,"byteIndex":1782,"name":"Note on","channel":1,"noteNumber":38,"noteName":"D2","velocity":42,"programs":[]},{"track":1,"delta":0,"tick":7493,"byteIndex":1798,"name":"Note on","channel":1,"noteNumber":42,"noteName":"Gb2","velocity":22,"programs":[]},{"track":1,"delta":0,"tick":7524,"byteIndex":1806,"name":"Note on","channel":1,"noteNumber":42,"noteName":"Gb2","velocity":29,"programs":[]},{"track":1,"delta":0,"tick":7568,"byteIndex":1814,"name":"Note on","channel":1,"noteNumber":42,"noteName":"Gb2","velocity":47,"programs":[]},{"track":1,"delta":76,"tick":7644,"byteIndex":1818,"name":"Note on","channel":1,"noteNumber":36,"noteName":"C2","velocity":6,"programs":[]},{"track":1,"delta":9,"tick":7718,"byteIndex":1842,"name":"Note on","channel":1,"noteNumber":36,"noteName":"C2","velocity":4,"programs":[]},{"track":1,"delta":59,"tick":7787,"byteIndex":1866,"name":"Note on","channel":1,"noteNumber":36,"noteName":"C2","velocity":7,"programs":[]},{"track":1,"delta":0,"tick":7815,"byteIndex":1890,"name":"Note on","channel":1,"noteNumber":42,"noteName":"Gb2","velocity":1,"programs":[]},{"track":1,"delta":0,"tick":7853,"byteIndex":1898,"name":"Note on","channel":1,"noteNumber":38,"noteName":"D2","velocity":27,"programs":[]},{"track":1,"delta":0,"tick":7891,"byteIndex":1914,"name":"Note on","channel":1,"noteNumber":38,"noteName":"D2","velocity":24,"programs":[]},{"track":1,"delta":0,"tick":7923,"byteIndex":1934,"name":"Note on","channel":1,"noteNumber":42,"noteName":"Gb2","velocity":51,"programs":[]},{"track":1,"delta":0,"tick":7991,"byteIndex":1942,"name":"Note on","channel":1,"noteNumber":38,"noteName":"D2","velocity":30,"programs":[]},{"track":1,"delta":67,"tick":8058,"byteIndex":1954,"name":"Note on","channel":1,"noteNumber":36,"noteName":"C2","velocity":3,"programs":[]},{"track":1,"delta":0,"tick":8130,"byteIndex":1978,"name":"Note on","channel":1,"noteNumber":36,"noteName":"C2","velocity":6,"programs":[]},{"track":1,"delta":0,"tick":8203,"byteIndex":2002,"name":"Note on","channel":1,"noteNumber":36,"noteName":"C2","velocity":5,"programs":[]},{"track":1,"delta":0,"tick":8223,"byteIndex":2022,"name":"Note on","channel":1,"noteNumber":38,"noteName":"D2","velocity":31,"programs":[]},{"track":1,"delta":49,"tick":8272,"byteIndex":2034,"name":"Note on","channel":1,"noteNumber":36,"noteName":"C2","velocity":3,"programs":[]},{"track":1,"delta":0,"tick":8294,"byteIndex":2058,"name":"Note on","channel":1,"noteNumber":36,"noteName":"C2","velocity":4,"programs":[]},{"track":1,"delta":0,"tick":8335,"byteIndex":2078,"name":"Note on","channel":1,"noteNumber":42,"noteName":"Gb2","velocity":63,"programs":[]},{"track":1,"delta":23,"tick":8358,"byteIndex":2082,"name":"Note on","channel":1,"noteNumber":36,"noteName":"C2","velocity":5,"programs":[]},{"track":1,"delta":0,"tick":8393,"byteIndex":2106,"name":"Note on","channel":1,"noteNumber":36,"noteName":"C2","velocity":6,"programs":[]},{"track":1,"delta":0,"tick":8453,"byteIndex":2130,"name":"Note on","channel":1,"noteNumber":36,"noteName":"C2","velocity":6,"programs":[]},{"track":1,"delta":21,"tick":8509,"byteIndex":2162,"name":"Note on","channel":1,"noteNumber":36,"noteName":"C2","velocity":17,"programs":[]},{"track":1,"delta":18,"tick":8568,"byteIndex":2178,"name":"Note on","channel":1,"noteNumber":36,"noteName":"C2","velocity":25,"programs":[]},{"track":1,"delta":30,"tick":8625,"byteIndex":2202,"name":"Note on","channel":1,"noteNumber":36,"noteName":"C2","velocity":15,"programs":[]},{"track":1,"delta":14,"tick":8651,"byteIndex":2226,"name":"Note on","channel":1,"noteNumber":36,"noteName":"C2","velocity":13,"programs":[]},{"track":1,"delta":0,"tick":8681,"byteIndex":2254,"name":"Note on","channel":1,"noteNumber":38,"noteName":"D2","velocity":18,"programs":[]},{"track":1,"delta":0,"tick":8737,"byteIndex":2270,"name":"Note on","channel":1,"noteNumber":38,"noteName":"D2","velocity":24,"programs":[]},{"track":1,"delta":0,"tick":8795,"byteIndex":2286,"name":"Note on","channel":1,"noteNumber":38,"noteName":"D2","velocity":18,"programs":[]},{"track":1,"delta":51,"tick":8846,"byteIndex":2298,"name":"Note on","channel":1,"noteNumber":36,"noteName":"C2","velocity":13,"programs":[]},{"track":1,"delta":23,"tick":8900,"byteIndex":2322,"name":"Note on","channel":1,"noteNumber":36,"noteName":"C2","velocity":20,"programs":[]},{"track":1,"delta":42,"tick":8953,"byteIndex":2346,"name":"Note on","channel":1,"noteNumber":36,"noteName":"C2","velocity":27,"programs":[]},{"track":1,"delta":0,"tick":9004,"byteIndex":2370,"name":"Note on","channel":1,"noteNumber":36,"noteName":"C2","velocity":17,"programs":[]},{"track":1,"delta":0,"tick":9061,"byteIndex":2394,"name":"Note on","channel":1,"noteNumber":38,"noteName":"D2","velocity":21,"programs":[]},{"track":1,"delta":0,"tick":9086,"byteIndex":2414,"name":"Note on","channel":1,"noteNumber":38,"noteName":"D2","velocity":43,"programs":[]},{"track":1,"delta":0,"tick":9111,"byteIndex":2430,"name":"Note on","channel":1,"noteNumber":38,"noteName":"D2","velocity":20,"programs":[]},{"track":1,"delta":0,"tick":9128,"byteIndex":2446,"name":"Note on","channel":1,"noteNumber":42,"noteName":"Gb2","velocity":29,"programs":[]},{"track":1,"delta":0,"tick":9161,"byteIndex":2454,"name":"Note on","channel":1,"noteNumber":38,"noteName":"D2","velocity":18,"programs":[]},{"track":1,"delta":0,"tick":9213,"byteIndex":2470,"name":"Note on","channel":1,"noteNumber":38,"noteName":"D2","velocity":24,"programs":[]},{"track":1,"delta":50,"tick":9263,"byteIndex":2482,"name":"Note on","channel":1,"noteNumber":36,"noteName":"C2","velocity":14,"programs":[]},{"track":1,"delta":0,"tick":9313,"byteIndex":2506,"name":"Note on","channel":1,"noteNumber":36,"noteName":"C2","velocity":25,"programs":[]},{"track":1,"delta":14,"tick":9358,"byteIndex":2530,"name":"Note on","channel":1,"noteNumber":36,"noteName":"C2","velocity":14,"programs":[]},{"track":1,"delta":0,"tick":9401,"byteIndex":2554,"name":"Note on","channel":1,"noteNumber":36,"noteName":"C2","velocity":37,"programs":[]},{"track":1,"delta":0,"tick":9422,"byteIndex":2570,"name":"Note on","channel":1,"noteNumber":38,"noteName":"D2","velocity":24,"programs":[]},{"track":1,"delta":0,"tick":9449,"byteIndex":2590,"name":"Note on","channel":1,"noteNumber":38,"noteName":"D2","velocity":33,"programs":[]},{"track":1,"delta":0,"tick":9496,"byteIndex":2606,"name":"Note on","channel":1,"noteNumber":38,"noteName":"D2","velocity":19,"programs":[]},{"track":1,"delta":0,"tick":9540,"byteIndex":2622,"name":"Note on","channel":1,"noteNumber":38,"noteName":"D2","velocity":21,"programs":[]},{"track":1,"delta":0,"tick":9583,"byteIndex":2638,"name":"Note on","channel":1,"noteNumber":38,"noteName":"D2","velocity":22,"programs":[]},{"track":1,"delta":41,"tick":9624,"byteIndex":2650,"name":"Note on","channel":1,"noteNumber":36,"noteName":"C2","velocity":15,"programs":[]},{"track":1,"delta":22,"tick":9666,"byteIndex":2674,"name":"Note on","channel":1,"noteNumber":36,"noteName":"C2","velocity":17,"programs":[]},{"track":1,"delta":21,"tick":9709,"byteIndex":2698,"name":"Note on","channel":1,"noteNumber":36,"noteName":"C2","velocity":25,"programs":[]},{"track":1,"delta":11,"tick":9747,"byteIndex":2722,"name":"Note on","channel":1,"noteNumber":36,"noteName":"C2","velocity":21,"programs":[]},{"track":1,"delta":0,"tick":9789,"byteIndex":2746,"name":"Note on","channel":1,"noteNumber":36,"noteName":"C2","velocity":35,"programs":[]},{"track":1,"delta":0,"tick":9831,"byteIndex":2774,"name":"Note on","channel":1,"noteNumber":38,"noteName":"D2","velocity":18,"programs":[]},{"track":1,"delta":0,"tick":9870,"byteIndex":2790,"name":"Note on","channel":1,"noteNumber":38,"noteName":"D2","velocity":20,"programs":[]},{"track":1,"delta":0,"tick":9913,"byteIndex":2806,"name":"Note on","channel":1,"noteNumber":38,"noteName":"D2","velocity":25,"programs":[]},{"track":1,"delta":0,"tick":9953,"byteIndex":2822,"name":"Note on","channel":1,"noteNumber":38,"noteName":"D2","velocity":23,"programs":[]},{"track":1,"delta":0,"tick":9995,"byteIndex":2838,"name":"Note on","channel":1,"noteNumber":38,"noteName":"D2","velocity":24,"programs":[]},{"track":1,"delta":39,"tick":10034,"byteIndex":2850,"name":"Note on","channel":1,"noteNumber":36,"noteName":"C2","velocity":20,"programs":[]},{"track":1,"delta":0,"tick":10076,"byteIndex":2874,"name":"Note on","channel":1,"noteNumber":36,"noteName":"C2","velocity":19,"programs":[]},{"track":1,"delta":17,"tick":10113,"byteIndex":2898,"name":"Note on","channel":1,"noteNumber":36,"noteName":"C2","velocity":20,"programs":[]},{"track":1,"delta":18,"tick":10152,"byteIndex":2922,"name":"Note on","channel":1,"noteNumber":36,"noteName":"C2","velocity":18,"programs":[]},{"track":1,"delta":0,"tick":10193,"byteIndex":2950,"name":"Note on","channel":1,"noteNumber":38,"noteName":"D2","velocity":19,"programs":[]},{"track":1,"delta":0,"tick":10227,"byteIndex":2966,"name":"Note on","channel":1,"noteNumber":38,"noteName":"D2","velocity":18,"programs":[]},{"track":1,"delta":0,"tick":10266,"byteIndex":2982,"name":"Note on","channel":1,"noteNumber":38,"noteName":"D2","velocity":20,"programs":[]},{"track":1,"delta":0,"tick":10305,"byteIndex":2998,"name":"Note on","channel":1,"noteNumber":38,"noteName":"D2","velocity":32,"programs":[]},{"track":1,"delta":0,"tick":10345,"byteIndex":3014,"name":"Note on","channel":1,"noteNumber":38,"noteName":"D2","velocity":47,"programs":[]},{"track":1,"delta":0,"tick":10381,"byteIndex":3030,"name":"Note on","channel":1,"noteNumber":38,"noteName":"D2","velocity":23,"programs":[]},{"track":1,"delta":36,"tick":10417,"byteIndex":3042,"name":"Note on","channel":1,"noteNumber":36,"noteName":"C2","velocity":20,"programs":[]},{"track":1,"delta":24,"tick":10459,"byteIndex":3066,"name":"Note on","channel":1,"noteNumber":36,"noteName":"C2","velocity":20,"programs":[]},{"track":1,"delta":4,"tick":10494,"byteIndex":3094,"name":"Note on","channel":1,"noteNumber":36,"noteName":"C2","velocity":33,"programs":[]},{"track":1,"delta":0,"tick":10529,"byteIndex":3110,"name":"Note on","channel":1,"noteNumber":36,"noteName":"C2","velocity":31,"programs":[]},{"track":1,"delta":0,"tick":10563,"byteIndex":3130,"name":"Note on","channel":1,"noteNumber":36,"noteName":"C2","velocity":28,"programs":[]},{"track":1,"delta":0,"tick":10598,"byteIndex":3158,"name":"Note on","channel":1,"noteNumber":38,"noteName":"D2","velocity":25,"programs":[]},{"track":1,"delta":0,"tick":10634,"byteIndex":3174,"name":"Note on","channel":1,"noteNumber":38,"noteName":"D2","velocity":26,"programs":[]},{"track":1,"delta":0,"tick":10669,"byteIndex":3190,"name":"Note on","channel":1,"noteNumber":38,"noteName":"D2","velocity":20,"programs":[]},{"track":1,"delta":0,"tick":10700,"byteIndex":3206,"name":"Note on","channel":1,"noteNumber":38,"noteName":"D2","velocity":26,"programs":[]},{"track":1,"delta":0,"tick":10735,"byteIndex":3222,"name":"Note on","channel":1,"noteNumber":38,"noteName":"D2","velocity":24,"programs":[]},{"track":1,"delta":0,"tick":10773,"byteIndex":3238,"name":"Note on","channel":1,"noteNumber":38,"noteName":"D2","velocity":26,"programs":[]},{"track":1,"delta":31,"tick":10804,"byteIndex":3250,"name":"Note on","channel":1,"noteNumber":36,"noteName":"C2","velocity":15,"programs":[]},{"track":1,"delta":0,"tick":10839,"byteIndex":3274,"name":"Note on","channel":1,"noteNumber":36,"noteName":"C2","velocity":20,"programs":[]},{"track":1,"delta":0,"tick":10874,"byteIndex":3298,"name":"Note on","channel":1,"noteNumber":36,"noteName":"C2","velocity":21,"programs":[]},{"track":1,"delta":0,"tick":10907,"byteIndex":3322,"name":"Note on","channel":1,"noteNumber":36,"noteName":"C2","velocity":25,"programs":[]},{"track":1,"delta":0,"tick":10939,"byteIndex":3346,"name":"Note on","channel":1,"noteNumber":36,"noteName":"C2","velocity":28,"programs":[]},{"track":1,"delta":0,"tick":10973,"byteIndex":3374,"name":"Note on","channel":1,"noteNumber":38,"noteName":"D2","velocity":21,"programs":[]},{"track":1,"delta":0,"tick":11001,"byteIndex":3390,"name":"Note on","channel":1,"noteNumber":38,"noteName":"D2","velocity":23,"programs":[]},{"track":1,"delta":0,"tick":11033,"byteIndex":3406,"name":"Note on","channel":1,"noteNumber":38,"noteName":"D2","velocity":22,"programs":[]},{"track":1,"delta":0,"tick":11064,"byteIndex":3422,"name":"Note on","channel":1,"noteNumber":38,"noteName":"D2","velocity":31,"programs":[]},{"track":1,"delta":0,"tick":11096,"byteIndex":3438,"name":"Note on","channel":1,"noteNumber":38,"noteName":"D2","velocity":27,"programs":[]},{"track":1,"delta":0,"tick":11125,"byteIndex":3454,"name":"Note on","channel":1,"noteNumber":38,"noteName":"D2","velocity":32,"programs":[]},{"track":1,"delta":29,"tick":11154,"byteIndex":3466,"name":"Note on","channel":1,"noteNumber":36,"noteName":"C2","velocity":16,"programs":[]},{"track":1,"delta":0,"tick":11182,"byteIndex":3490,"name":"Note on","channel":1,"noteNumber":36,"noteName":"C2","velocity":18,"programs":[]},{"track":1,"delta":16,"tick":11211,"byteIndex":3514,"name":"Note on","channel":1,"noteNumber":36,"noteName":"C2","velocity":24,"programs":[]},{"track":1,"delta":0,"tick":11238,"byteIndex":3538,"name":"Note on","channel":1,"noteNumber":36,"noteName":"C2","velocity":28,"programs":[]},{"track":1,"delta":0,"tick":11269,"byteIndex":3562,"name":"Note on","channel":1,"noteNumber":36,"noteName":"C2","velocity":21,"programs":[]},{"track":1,"delta":8,"tick":11295,"byteIndex":3586,"name":"Note on","channel":1,"noteNumber":36,"noteName":"C2","velocity":29,"programs":[]},{"track":1,"delta":0,"tick":11325,"byteIndex":3610,"name":"Note on","channel":1,"noteNumber":36,"noteName":"C2","velocity":24,"programs":[]},{"track":1,"delta":0,"tick":11352,"byteIndex":3638,"name":"Note on","channel":1,"noteNumber":38,"noteName":"D2","velocity":21,"programs":[]},{"track":1,"delta":0,"tick":11380,"byteIndex":3654,"name":"Note on","channel":1,"noteNumber":38,"noteName":"D2","velocity":24,"programs":[]},{"track":1,"delta":0,"tick":11406,"byteIndex":3670,"name":"Note on","channel":1,"noteNumber":38,"noteName":"D2","velocity":23,"programs":[]},{"track":1,"delta":0,"tick":11433,"byteIndex":3686,"name":"Note on","channel":1,"noteNumber":38,"noteName":"D2","velocity":22,"programs":[]},{"track":1,"delta":0,"tick":11461,"byteIndex":3702,"name":"Note on","channel":1,"noteNumber":38,"noteName":"D2","velocity":23,"programs":[]},{"track":1,"delta":0,"tick":11494,"byteIndex":3718,"name":"Note on","channel":1,"noteNumber":38,"noteName":"D2","velocity":28,"programs":[]},{"track":1,"delta":0,"tick":11517,"byteIndex":3734,"name":"Note on","channel":1,"noteNumber":38,"noteName":"D2","velocity":29,"programs":[]},{"track":1,"delta":25,"tick":11542,"byteIndex":3746,"name":"Note on","channel":1,"noteNumber":36,"noteName":"C2","velocity":14,"programs":[]},{"track":1,"delta":0,"tick":11572,"byteIndex":3770,"name":"Note on","channel":1,"noteNumber":36,"noteName":"C2","velocity":23,"programs":[]},{"track":1,"delta":0,"tick":11598,"byteIndex":3794,"name":"Note on","channel":1,"noteNumber":36,"noteName":"C2","velocity":24,"programs":[]},{"track":1,"delta":9,"tick":11625,"byteIndex":3818,"name":"Note on","channel":1,"noteNumber":36,"noteName":"C2","velocity":35,"programs":[]},{"track":1,"delta":14,"tick":11652,"byteIndex":3842,"name":"Note on","channel":1,"noteNumber":36,"noteName":"C2","velocity":39,"programs":[]},{"track":1,"delta":14,"tick":11681,"byteIndex":3866,"name":"Note on","channel":1,"noteNumber":36,"noteName":"C2","velocity":35,"programs":[]},{"track":1,"delta":0,"tick":11707,"byteIndex":3894,"name":"Note on","channel":1,"noteNumber":38,"noteName":"D2","velocity":25,"programs":[]},{"track":1,"delta":0,"tick":11735,"byteIndex":3910,"name":"Note on","channel":1,"noteNumber":38,"noteName":"D2","velocity":34,"programs":[]},{"track":1,"delta":0,"tick":11762,"byteIndex":3926,"name":"Note on","channel":1,"noteNumber":38,"noteName":"D2","velocity":27,"programs":[]},{"track":1,"delta":0,"tick":11788,"byteIndex":3942,"name":"Note on","channel":1,"noteNumber":38,"noteName":"D2","velocity":38,"programs":[]},{"track":1,"delta":0,"tick":11816,"byteIndex":3958,"name":"Note on","channel":1,"noteNumber":38,"noteName":"D2","velocity":36,"programs":[]},{"track":1,"delta":0,"tick":11844,"byteIndex":3974,"name":"Note on","channel":1,"noteNumber":38,"noteName":"D2","velocity":25,"programs":[]},{"track":1,"delta":0,"tick":11873,"byteIndex":3990,"name":"Note on","channel":1,"noteNumber":38,"noteName":"D2","velocity":38,"programs":[]},{"track":1,"delta":0,"tick":11896,"byteIndex":4006,"name":"Note on","channel":1,"noteNumber":42,"noteName":"Gb2","velocity":38,"programs":[]},{"track":1,"delta":27,"tick":11923,"byteIndex":4010,"name":"Note on","channel":1,"noteNumber":36,"noteName":"C2","velocity":14,"programs":[]},{"track":1,"delta":0,"tick":11950,"byteIndex":4034,"name":"Note on","channel":1,"noteNumber":36,"noteName":"C2","velocity":14,"programs":[]},{"track":1,"delta":0,"tick":11975,"byteIndex":4058,"name":"Note on","channel":1,"noteNumber":38,"noteName":"D2","velocity":28,"programs":[]},{"track":1,"delta":0,"tick":12002,"byteIndex":4078,"name":"Note on","channel":1,"noteNumber":38,"noteName":"D2","velocity":39,"programs":[]},{"track":1,"delta":25,"tick":12027,"byteIndex":4090,"name":"Note on","channel":1,"noteNumber":36,"noteName":"C2","velocity":26,"programs":[]},{"track":1,"delta":0,"tick":12053,"byteIndex":4110,"name":"Note on","channel":1,"noteNumber":38,"noteName":"D2","velocity":38,"programs":[]},{"track":1,"delta":0,"tick":12079,"byteIndex":4126,"name":"Note on","channel":1,"noteNumber":42,"noteName":"Gb2","velocity":17,"programs":[]},{"track":1,"delta":0,"tick":12103,"byteIndex":4134,"name":"Note on","channel":1,"noteNumber":38,"noteName":"D2","velocity":31,"programs":[]},{"track":1,"delta":0,"tick":12129,"byteIndex":4150,"name":"Note on","channel":1,"noteNumber":38,"noteName":"D2","velocity":46,"programs":[]},{"track":1,"delta":0,"tick":12155,"byteIndex":4166,"name":"Note on","channel":1,"noteNumber":42,"noteName":"Gb2","velocity":43,"programs":[]},{"track":1,"delta":0,"tick":12181,"byteIndex":4174,"name":"Note on","channel":1,"noteNumber":38,"noteName":"D2","velocity":47,"programs":[]},{"track":1,"delta":0,"tick":12209,"byteIndex":4190,"name":"Note on","channel":1,"noteNumber":42,"noteName":"Gb2","velocity":28,"programs":[]},{"track":1,"delta":0,"tick":12235,"byteIndex":4198,"name":"Note on","channel":1,"noteNumber":38,"noteName":"D2","velocity":28,"programs":[]},{"track":1,"delta":0,"tick":12260,"byteIndex":4214,"name":"Note on","channel":1,"noteNumber":42,"noteName":"Gb2","velocity":34,"programs":[]},{"track":1,"delta":0,"tick":12285,"byteIndex":4222,"name":"Note on","channel":1,"noteNumber":38,"noteName":"D2","velocity":37,"programs":[]},{"track":1,"delta":29,"tick":12314,"byteIndex":4234,"name":"Note on","channel":1,"noteNumber":36,"noteName":"C2","velocity":15,"programs":[]},{"track":1,"delta":0,"tick":12339,"byteIndex":4258,"name":"Note on","channel":1,"noteNumber":36,"noteName":"C2","velocity":16,"programs":[]},{"track":1,"delta":7,"tick":12362,"byteIndex":4282,"name":"Note on","channel":1,"noteNumber":36,"noteName":"C2","velocity":20,"programs":[]},{"track":1,"delta":0,"tick":12390,"byteIndex":4298,"name":"Note on","channel":1,"noteNumber":36,"noteName":"C2","velocity":16,"programs":[]},{"track":1,"delta":0,"tick":12416,"byteIndex":4322,"name":"Note on","channel":1,"noteNumber":36,"noteName":"C2","velocity":31,"programs":[]},{"track":1,"delta":0,"tick":12439,"byteIndex":4338,"name":"Note on","channel":1,"noteNumber":36,"noteName":"C2","velocity":15,"programs":[]},{"track":1,"delta":0,"tick":12462,"byteIndex":4362,"name":"Note on","channel":1,"noteNumber":36,"noteName":"C2","velocity":20,"programs":[]},{"track":1,"delta":0,"tick":12487,"byteIndex":4390,"name":"Note on","channel":1,"noteNumber":38,"noteName":"D2","velocity":46,"programs":[]},{"track":1,"delta":6,"tick":12510,"byteIndex":4406,"name":"Note on","channel":1,"noteNumber":42,"noteName":"Gb2","velocity":1,"programs":[]},{"track":1,"delta":12,"tick":12530,"byteIndex":4414,"name":"Note on","channel":1,"noteNumber":38,"noteName":"D2","velocity":20,"programs":[]},{"track":1,"delta":0,"tick":12555,"byteIndex":4430,"name":"Note on","channel":1,"noteNumber":38,"noteName":"D2","velocity":32,"programs":[]},{"track":1,"delta":0,"tick":12577,"byteIndex":4446,"name":"Note on","channel":1,"noteNumber":38,"noteName":"D2","velocity":22,"programs":[]},{"track":1,"delta":18,"tick":12595,"byteIndex":4458,"name":"Note on","channel":1,"noteNumber":36,"noteName":"C2","velocity":10,"programs":[]},{"track":1,"delta":0,"tick":12621,"byteIndex":4482,"name":"Note on","channel":1,"noteNumber":36,"noteName":"C2","velocity":9,"programs":[]},{"track":1,"delta":0,"tick":12641,"byteIndex":4506,"name":"Note on","channel":1,"noteNumber":38,"noteName":"D2","velocity":36,"programs":[]},{"track":1,"delta":0,"tick":12663,"byteIndex":4522,"name":"Note on","channel":1,"noteNumber":36,"noteName":"C2","velocity":13,"programs":[]},{"track":1,"delta":0,"tick":12685,"byteIndex":4546,"name":"Note on","channel":1,"noteNumber":36,"noteName":"C2","velocity":20,"programs":[]},{"track":1,"delta":0,"tick":12706,"byteIndex":4562,"name":"Note on","channel":1,"noteNumber":36,"noteName":"C2","velocity":17,"programs":[]},{"track":1,"delta":0,"tick":12722,"byteIndex":4586,"name":"Note on","channel":1,"noteNumber":38,"noteName":"D2","velocity":25,"programs":[]},{"track":1,"delta":12,"tick":12742,"byteIndex":4602,"name":"Note on","channel":1,"noteNumber":36,"noteName":"C2","velocity":9,"programs":[]},{"track":1,"delta":0,"tick":12760,"byteIndex":4626,"name":"Note on","channel":1,"noteNumber":38,"noteName":"D2","velocity":25,"programs":[]},{"track":1,"delta":0,"tick":12779,"byteIndex":4646,"name":"Note on","channel":1,"noteNumber":42,"noteName":"Gb2","velocity":17,"programs":[]},{"track":1,"delta":0,"tick":12799,"byteIndex":4654,"name":"Note on","channel":1,"noteNumber":38,"noteName":"D2","velocity":39,"programs":[]},{"track":1,"delta":19,"tick":12818,"byteIndex":4666,"name":"Note on","channel":1,"noteNumber":36,"noteName":"C2","velocity":9,"programs":[]},{"track":1,"delta":0,"tick":12838,"byteIndex":4690,"name":"Note on","channel":1,"noteNumber":38,"noteName":"D2","velocity":36,"programs":[]},{"track":1,"delta":0,"tick":12857,"byteIndex":4710,"name":"Note on","channel":1,"noteNumber":38,"noteName":"D2","velocity":22,"programs":[]},{"track":1,"delta":0,"tick":12873,"byteIndex":4726,"name":"Note on","channel":1,"noteNumber":42,"noteName":"Gb2","velocity":8,"programs":[]},{"track":1,"delta":0,"tick":12893,"byteIndex":4734,"name":"Note on","channel":1,"noteNumber":38,"noteName":"D2","velocity":43,"programs":[]},{"track":1,"delta":0,"tick":12912,"byteIndex":4750,"name":"Note on","channel":1,"noteNumber":38,"noteName":"D2","velocity":24,"programs":[]},{"track":1,"delta":0,"tick":12931,"byteIndex":4766,"name":"Note on","channel":1,"noteNumber":38,"noteName":"D2","velocity":35,"programs":[]},{"track":1,"delta":0,"tick":12950,"byteIndex":4782,"name":"Note on","channel":1,"noteNumber":38,"noteName":"D2","velocity":29,"programs":[]},{"track":1,"delta":0,"tick":12968,"byteIndex":4798,"name":"Note on","channel":1,"noteNumber":42,"noteName":"Gb2","velocity":22,"programs":[]},{"track":1,"delta":0,"tick":12989,"byteIndex":4806,"name":"Note on","channel":1,"noteNumber":38,"noteName":"D2","velocity":33,"programs":[]},{"track":1,"delta":0,"tick":13008,"byteIndex":4822,"name":"Note on","channel":1,"noteNumber":38,"noteName":"D2","velocity":31,"programs":[]},{"track":1,"delta":0,"tick":13026,"byteIndex":4838,"name":"Note on","channel":1,"noteNumber":38,"noteName":"D2","velocity":24,"programs":[]},{"track":1,"delta":0,"tick":13045,"byteIndex":4854,"name":"Note on","channel":1,"noteNumber":38,"noteName":"D2","velocity":31,"programs":[]},{"track":1,"delta":0,"tick":13062,"byteIndex":4870,"name":"Note on","channel":1,"noteNumber":38,"noteName":"D2","velocity":20,"programs":[]},{"track":1,"delta":0,"tick":13094,"byteIndex":4886,"name":"Note on","channel":1,"noteNumber":38,"noteName":"D2","velocity":35,"programs":[]},{"track":1,"delta":0,"tick":13116,"byteIndex":4902,"name":"Note on","channel":1,"noteNumber":38,"noteName":"D2","velocity":36,"programs":[]},{"track":1,"delta":17,"tick":13133,"byteIndex":4914,"name":"Note on","channel":1,"noteNumber":36,"noteName":"C2","velocity":10,"programs":[]},{"track":1,"delta":0,"tick":13153,"byteIndex":4930,"name":"Note on","channel":1,"noteNumber":38,"noteName":"D2","velocity":25,"programs":[]},{"track":1,"delta":0,"tick":13172,"byteIndex":4950,"name":"Note on","channel":1,"noteNumber":38,"noteName":"D2","velocity":28,"programs":[]},{"track":1,"delta":0,"tick":13188,"byteIndex":4966,"name":"Note on","channel":1,"noteNumber":38,"noteName":"D2","velocity":39,"programs":[]},{"track":1,"delta":0,"tick":13206,"byteIndex":4982,"name":"Note on","channel":1,"noteNumber":38,"noteName":"D2","velocity":36,"programs":[]},{"track":1,"delta":0,"tick":13224,"byteIndex":4998,"name":"Note on","channel":1,"noteNumber":42,"noteName":"Gb2","velocity":20,"programs":[]},{"track":1,"delta":0,"tick":13239,"byteIndex":5006,"name":"Note on","channel":1,"noteNumber":38,"noteName":"D2","velocity":35,"programs":[]},{"track":1,"delta":0,"tick":13258,"byteIndex":5022,"name":"Note on","channel":1,"noteNumber":38,"noteName":"D2","velocity":41,"programs":[]},{"track":1,"delta":0,"tick":13291,"byteIndex":5038,"name":"Note on","channel":1,"noteNumber":38,"noteName":"D2","velocity":40,"programs":[]},{"track":1,"delta":0,"tick":13309,"byteIndex":5054,"name":"Note on","channel":1,"noteNumber":38,"noteName":"D2","velocity":24,"programs":[]},{"track":1,"delta":0,"tick":13325,"byteIndex":5070,"name":"Note on","channel":1,"noteNumber":38,"noteName":"D2","velocity":43,"programs":[]},{"track":1,"delta":0,"tick":13346,"byteIndex":5086,"name":"Note on","channel":1,"noteNumber":38,"noteName":"D2","velocity":22,"programs":[]},{"track":1,"delta":0,"tick":13364,"byteIndex":5102,"name":"Note on","channel":1,"noteNumber":42,"noteName":"Gb2","velocity":27,"programs":[]},{"track":1,"delta":0,"tick":13381,"byteIndex":5110,"name":"Note on","channel":1,"noteNumber":38,"noteName":"D2","velocity":31,"programs":[]},{"track":1,"delta":33,"tick":13414,"byteIndex":5122,"name":"Note on","channel":1,"noteNumber":36,"noteName":"C2","velocity":9,"programs":[]},{"track":1,"delta":0,"tick":13462,"byteIndex":5150,"name":"Note on","channel":1,"noteNumber":38,"noteName":"D2","velocity":48,"programs":[]},{"track":1,"delta":0,"tick":13476,"byteIndex":5166,"name":"Note on","channel":1,"noteNumber":38,"noteName":"D2","velocity":31,"programs":[]},{"track":1,"delta":0,"tick":13491,"byteIndex":5182,"name":"Note on","channel":1,"noteNumber":38,"noteName":"D2","velocity":39,"programs":[]},{"track":1,"delta":0,"tick":13510,"byteIndex":5198,"name":"Note on","channel":1,"noteNumber":42,"noteName":"Gb2","velocity":22,"programs":[]},{"track":1,"delta":0,"tick":13523,"byteIndex":5206,"name":"Note on","channel":1,"noteNumber":38,"noteName":"D2","velocity":45,"programs":[]},{"track":1,"delta":0,"tick":13539,"byteIndex":5222,"name":"Note on","channel":1,"noteNumber":38,"noteName":"D2","velocity":31,"programs":[]},{"track":1,"delta":0,"tick":13556,"byteIndex":5238,"name":"Note on","channel":1,"noteNumber":42,"noteName":"Gb2","velocity":19,"programs":[]},{"track":1,"delta":0,"tick":13573,"byteIndex":5246,"name":"Note on","channel":1,"noteNumber":38,"noteName":"D2","velocity":41,"programs":[]},{"track":1,"delta":0,"tick":13590,"byteIndex":5262,"name":"Note on","channel":1,"noteNumber":38,"noteName":"D2","velocity":41,"programs":[]},{"track":1,"delta":0,"tick":13609,"byteIndex":5278,"name":"Note on","channel":1,"noteNumber":38,"noteName":"D2","velocity":31,"programs":[]},{"track":1,"delta":0,"tick":13623,"byteIndex":5294,"name":"Note on","channel":1,"noteNumber":42,"noteName":"Gb2","velocity":19,"programs":[]},{"track":1,"delta":0,"tick":13641,"byteIndex":5302,"name":"Note on","channel":1,"noteNumber":38,"noteName":"D2","velocity":46,"programs":[]},{"track":1,"delta":0,"tick":13657,"byteIndex":5318,"name":"Note on","channel":1,"noteNumber":38,"noteName":"D2","velocity":51,"programs":[]},{"track":1,"delta":0,"tick":13674,"byteIndex":5334,"name":"Note on","channel":1,"noteNumber":42,"noteName":"Gb2","velocity":24,"programs":[]},{"track":1,"delta":0,"tick":13689,"byteIndex":5342,"name":"Note on","channel":1,"noteNumber":38,"noteName":"D2","velocity":39,"programs":[]},{"track":1,"delta":0,"tick":13704,"byteIndex":5358,"name":"Note on","channel":1,"noteNumber":38,"noteName":"D2","velocity":32,"programs":[]},{"track":1,"delta":0,"tick":13726,"byteIndex":5374,"name":"Note on","channel":1,"noteNumber":38,"noteName":"D2","velocity":45,"programs":[]},{"track":1,"delta":0,"tick":13758,"byteIndex":5390,"name":"Note on","channel":1,"noteNumber":38,"noteName":"D2","velocity":38,"programs":[]},{"track":1,"delta":0,"tick":13784,"byteIndex":5406,"name":"Note on","channel":1,"noteNumber":38,"noteName":"D2","velocity":43,"programs":[]},{"track":1,"delta":0,"tick":13806,"byteIndex":5422,"name":"Note on","channel":1,"noteNumber":38,"noteName":"D2","velocity":47,"programs":[]},{"track":1,"delta":0,"tick":13822,"byteIndex":5438,"name":"Note on","channel":1,"noteNumber":38,"noteName":"D2","velocity":29,"programs":[]},{"track":1,"delta":0,"tick":13840,"byteIndex":5454,"name":"Note on","channel":1,"noteNumber":38,"noteName":"D2","velocity":29,"programs":[]},{"track":1,"delta":0,"tick":13857,"byteIndex":5470,"name":"Note on","channel":1,"noteNumber":38,"noteName":"D2","velocity":37,"programs":[]},{"track":1,"delta":0,"tick":13883,"byteIndex":5486,"name":"Note on","channel":1,"noteNumber":42,"noteName":"Gb2","velocity":27,"programs":[]},{"track":1,"delta":0,"tick":13898,"byteIndex":5494,"name":"Note on","channel":1,"noteNumber":38,"noteName":"D2","velocity":31,"programs":[]},{"track":1,"delta":0,"tick":13942,"byteIndex":5510,"name":"Note on","channel":1,"noteNumber":38,"noteName":"D2","velocity":40,"programs":[]},{"track":1,"delta":0,"tick":13958,"byteIndex":5526,"name":"Note on","channel":1,"noteNumber":38,"noteName":"D2","velocity":42,"programs":[]},{"track":1,"delta":0,"tick":13974,"byteIndex":5542,"name":"Note on","channel":1,"noteNumber":42,"noteName":"Gb2","velocity":20,"programs":[]},{"track":1,"delta":0,"tick":13989,"byteIndex":5550,"name":"Note on","channel":1,"noteNumber":38,"noteName":"D2","velocity":39,"programs":[]},{"track":1,"delta":0,"tick":14005,"byteIndex":5566,"name":"Note on","channel":1,"noteNumber":38,"noteName":"D2","velocity":36,"programs":[]},{"track":1,"delta":0,"tick":14020,"byteIndex":5582,"name":"Note on","channel":1,"noteNumber":38,"noteName":"D2","velocity":43,"programs":[]},{"track":1,"delta":0,"tick":14052,"byteIndex":5598,"name":"Note on","channel":1,"noteNumber":38,"noteName":"D2","velocity":47,"programs":[]},{"track":1,"delta":0,"tick":14063,"byteIndex":5614,"name":"Note on","channel":1,"noteNumber":42,"noteName":"Gb2","velocity":21,"programs":[]},{"track":1,"delta":0,"tick":14081,"byteIndex":5622,"name":"Note on","channel":1,"noteNumber":38,"noteName":"D2","velocity":32,"programs":[]},{"track":1,"delta":0,"tick":14097,"byteIndex":5638,"name":"Note on","channel":1,"noteNumber":38,"noteName":"D2","velocity":41,"programs":[]},{"track":1,"delta":0,"tick":14116,"byteIndex":5654,"name":"Note on","channel":1,"noteNumber":42,"noteName":"Gb2","velocity":23,"programs":[]},{"track":1,"delta":0,"tick":14129,"byteIndex":5662,"name":"Note on","channel":1,"noteNumber":38,"noteName":"D2","velocity":31,"programs":[]},{"track":1,"delta":0,"tick":14159,"byteIndex":5678,"name":"Note on","channel":1,"noteNumber":38,"noteName":"D2","velocity":35,"programs":[]},{"track":1,"delta":0,"tick":14173,"byteIndex":5694,"name":"Note on","channel":1,"noteNumber":38,"noteName":"D2","velocity":35,"programs":[]},{"track":1,"delta":0,"tick":14191,"byteIndex":5710,"name":"Note on","channel":1,"noteNumber":38,"noteName":"D2","velocity":31,"programs":[]},{"track":1,"delta":0,"tick":14210,"byteIndex":5726,"name":"Note on","channel":1,"noteNumber":42,"noteName":"Gb2","velocity":29,"programs":[]},{"track":1,"delta":0,"tick":14222,"byteIndex":5734,"name":"Note on","channel":1,"noteNumber":38,"noteName":"D2","velocity":46,"programs":[]},{"track":1,"delta":0,"tick":14237,"byteIndex":5750,"name":"Note on","channel":1,"noteNumber":38,"noteName":"D2","velocity":25,"programs":[]},{"track":1,"delta":0,"tick":14268,"byteIndex":5766,"name":"Note on","channel":1,"noteNumber":38,"noteName":"D2","velocity":36,"programs":[]},{"track":1,"delta":0,"tick":14284,"byteIndex":5782,"name":"Note on","channel":1,"noteNumber":38,"noteName":"D2","velocity":36,"programs":[]},{"track":1,"delta":0,"tick":14326,"byteIndex":5798,"name":"Note on","channel":1,"noteNumber":38,"noteName":"D2","velocity":43,"programs":[]},{"track":1,"delta":0,"tick":14341,"byteIndex":5814,"name":"Note on","channel":1,"noteNumber":38,"noteName":"D2","velocity":47,"programs":[]},{"track":1,"delta":0,"tick":14356,"byteIndex":5830,"name":"Note on","channel":1,"noteNumber":38,"noteName":"D2","velocity":44,"programs":[]},{"track":1,"delta":0,"tick":14372,"byteIndex":5846,"name":"Note on","channel":1,"noteNumber":42,"noteName":"Gb2","velocity":17,"programs":[]},{"track":1,"delta":0,"tick":14386,"byteIndex":5854,"name":"Note on","channel":1,"noteNumber":38,"noteName":"D2","velocity":36,"programs":[]},{"track":1,"delta":0,"tick":14402,"byteIndex":5870,"name":"Note on","channel":1,"noteNumber":38,"noteName":"D2","velocity":52,"programs":[]},{"track":1,"delta":0,"tick":14432,"byteIndex":5886,"name":"Note on","channel":1,"noteNumber":38,"noteName":"D2","velocity":48,"programs":[]},{"track":1,"delta":0,"tick":14442,"byteIndex":5902,"name":"Note on","channel":1,"noteNumber":42,"noteName":"Gb2","velocity":27,"programs":[]},{"track":1,"delta":0,"tick":14458,"byteIndex":5910,"name":"Note on","channel":1,"noteNumber":38,"noteName":"D2","velocity":40,"programs":[]},{"track":1,"delta":0,"tick":14469,"byteIndex":5926,"name":"Note on","channel":1,"noteNumber":42,"noteName":"Gb2","velocity":22,"programs":[]},{"track":1,"delta":0,"tick":14487,"byteIndex":5934,"name":"Note on","channel":1,"noteNumber":38,"noteName":"D2","velocity":41,"programs":[]},{"track":1,"delta":0,"tick":14516,"byteIndex":5950,"name":"Note on","channel":1,"noteNumber":38,"noteName":"D2","velocity":40,"programs":[]},{"track":1,"delta":0,"tick":14561,"byteIndex":5966,"name":"Note on","channel":1,"noteNumber":38,"noteName":"D2","velocity":31,"programs":[]},{"track":1,"delta":0,"tick":14571,"byteIndex":5982,"name":"Note on","channel":1,"noteNumber":38,"noteName":"D2","velocity":46,"programs":[]},{"track":1,"delta":0,"tick":14618,"byteIndex":5998,"name":"Note on","channel":1,"noteNumber":38,"noteName":"D2","velocity":43,"programs":[]},{"track":1,"delta":0,"tick":14655,"byteIndex":6014,"name":"Note on","channel":1,"noteNumber":38,"noteName":"D2","velocity":36,"programs":[]},{"track":1,"delta":0,"tick":14682,"byteIndex":6030,"name":"Note on","channel":1,"noteNumber":38,"noteName":"D2","velocity":48,"programs":[]},{"track":1,"delta":0,"tick":14724,"byteIndex":6046,"name":"Note on","channel":1,"noteNumber":38,"noteName":"D2","velocity":48,"programs":[]},{"track":1,"delta":0,"tick":14750,"byteIndex":6062,"name":"Note on","channel":1,"noteNumber":38,"noteName":"D2","velocity":44,"programs":[]},{"track":1,"delta":0,"tick":14768,"byteIndex":6078,"name":"Note on","channel":1,"noteNumber":38,"noteName":"D2","velocity":35,"programs":[]},{"track":1,"delta":0,"tick":14795,"byteIndex":6094,"name":"Note on","channel":1,"noteNumber":38,"noteName":"D2","velocity":52,"programs":[]},{"track":1,"delta":0,"tick":14814,"byteIndex":6110,"name":"Note on","channel":1,"noteNumber":38,"noteName":"D2","velocity":48,"programs":[]},{"track":1,"delta":0,"tick":14850,"byteIndex":6126,"name":"Note on","channel":1,"noteNumber":38,"noteName":"D2","velocity":37,"programs":[]},{"track":1,"delta":0,"tick":14866,"byteIndex":6142,"name":"Note on","channel":1,"noteNumber":38,"noteName":"D2","velocity":39,"programs":[]},{"track":1,"delta":0,"tick":14884,"byteIndex":6158,"name":"Note on","channel":1,"noteNumber":38,"noteName":"D2","velocity":39,"programs":[]},{"track":1,"delta":0,"tick":14895,"byteIndex":6174,"name":"Note on","channel":1,"noteNumber":38,"noteName":"D2","velocity":32,"programs":[]},{"track":1,"delta":0,"tick":14934,"byteIndex":6190,"name":"Note on","channel":1,"noteNumber":38,"noteName":"D2","velocity":43,"programs":[]},{"track":1,"delta":0,"tick":14992,"byteIndex":6206,"name":"Note on","channel":1,"noteNumber":38,"noteName":"D2","velocity":37,"programs":[]},{"track":1,"delta":0,"tick":15013,"byteIndex":6222,"name":"Note on","channel":1,"noteNumber":38,"noteName":"D2","velocity":53,"programs":[]},{"track":1,"delta":0,"tick":15048,"byteIndex":6238,"name":"Note on","channel":1,"noteNumber":38,"noteName":"D2","velocity":44,"programs":[]},{"track":1,"delta":0,"tick":15097,"byteIndex":6254,"name":"Note on","channel":1,"noteNumber":38,"noteName":"D2","velocity":45,"programs":[]},{"track":1,"delta":0,"tick":15179,"byteIndex":6270,"name":"Note on","channel":1,"noteNumber":38,"noteName":"D2","velocity":51,"programs":[]},{"track":1,"delta":0,"tick":15255,"byteIndex":6286,"name":"Note on","channel":1,"noteNumber":38,"noteName":"D2","velocity":50,"programs":[]},{"track":1,"delta":312,"tick":15567,"byteIndex":6298,"name":"Note on","channel":1,"noteNumber":36,"noteName":"C2","velocity":59,"programs":[]},{"track":1,"delta":125,"tick":16498,"byteIndex":6329,"name":"Note on","channel":1,"noteNumber":36,"noteName":"C2","velocity":53,"programs":[]},{"track":1,"delta":0,"tick":16524,"byteIndex":6349,"name":"Note on","channel":1,"noteNumber":36,"noteName":"C2","velocity":41,"programs":[]},{"track":1,"delta":112,"tick":16666,"byteIndex":6377,"name":"Note on","channel":1,"noteNumber":36,"noteName":"C2","velocity":61,"programs":[]},{"track":1,"delta":0,"tick":16739,"byteIndex":6397,"name":"Note on","channel":1,"noteNumber":36,"noteName":"C2","velocity":40,"programs":[]},{"track":1,"delta":0,"tick":16788,"byteIndex":6413,"name":"Note on","channel":1,"noteNumber":36,"noteName":"C2","velocity":62,"programs":[]},{"track":1,"delta":4,"tick":16835,"byteIndex":6437,"name":"Note on","channel":1,"noteNumber":36,"noteName":"C2","velocity":46,"programs":[]},{"track":1,"delta":30,"tick":16885,"byteIndex":6461,"name":"Note on","channel":1,"noteNumber":36,"noteName":"C2","velocity":53,"programs":[]},{"track":1,"delta":6,"tick":16931,"byteIndex":6485,"name":"Note on","channel":1,"noteNumber":36,"noteName":"C2","velocity":41,"programs":[]},{"track":1,"delta":31,"tick":16978,"byteIndex":6501,"name":"Note on","channel":1,"noteNumber":36,"noteName":"C2","velocity":57,"programs":[]},{"track":1,"delta":0,"tick":17027,"byteIndex":6525,"name":"Note on","channel":1,"noteNumber":36,"noteName":"C2","velocity":40,"programs":[]},{"track":1,"delta":0,"tick":17053,"byteIndex":6541,"name":"Note on","channel":1,"noteNumber":42,"noteName":"Gb2","velocity":19,"programs":[]},{"track":1,"delta":0,"tick":17078,"byteIndex":6549,"name":"Note on","channel":1,"noteNumber":36,"noteName":"C2","velocity":54,"programs":[]},{"track":1,"delta":0,"tick":17102,"byteIndex":6573,"name":"Note on","channel":1,"noteNumber":42,"noteName":"Gb2","velocity":6,"programs":[]},{"track":1,"delta":0,"tick":17123,"byteIndex":6581,"name":"Note on","channel":1,"noteNumber":42,"noteName":"Gb2","velocity":20,"programs":[]},{"track":1,"delta":0,"tick":17150,"byteIndex":6589,"name":"Note on","channel":1,"noteNumber":42,"noteName":"Gb2","velocity":19,"programs":[]},{"track":1,"delta":9,"tick":17178,"byteIndex":6597,"name":"Note on","channel":1,"noteNumber":36,"noteName":"C2","velocity":39,"programs":[]},{"track":1,"delta":0,"tick":17219,"byteIndex":6621,"name":"Note on","channel":1,"noteNumber":36,"noteName":"C2","velocity":38,"programs":[]},{"track":1,"delta":21,"tick":17269,"byteIndex":6645,"name":"Note on","channel":1,"noteNumber":36,"noteName":"C2","velocity":52,"programs":[]},{"track":1,"delta":0,"tick":17314,"byteIndex":6673,"name":"Note on","channel":1,"noteNumber":38,"noteName":"D2","velocity":38,"programs":[]},{"track":1,"delta":0,"tick":17362,"byteIndex":6689,"name":"Note on","channel":1,"noteNumber":38,"noteName":"D2","velocity":35,"programs":[]},{"track":1,"delta":0,"tick":17411,"byteIndex":6705,"name":"Note on","channel":1,"noteNumber":42,"noteName":"Gb2","velocity":1,"programs":[]},{"track":1,"delta":0,"tick":17437,"byteIndex":6713,"name":"Note on","channel":1,"noteNumber":42,"noteName":"Gb2","velocity":1,"programs":[]},{"track":1,"delta":24,"tick":17461,"byteIndex":6717,"name":"Note on","channel":1,"noteNumber":36,"noteName":"C2","velocity":53,"programs":[]},{"track":1,"delta":0,"tick":17486,"byteIndex":6741,"name":"Note on","channel":1,"noteNumber":36,"noteName":"C2","velocity":42,"programs":[]},{"track":1,"delta":0,"tick":17506,"byteIndex":6757,"name":"Note on","channel":1,"noteNumber":42,"noteName":"Gb2","velocity":24,"programs":[]},{"track":1,"delta":0,"tick":17534,"byteIndex":6765,"name":"Note on","channel":1,"noteNumber":42,"noteName":"Gb2","velocity":23,"programs":[]},{"track":1,"delta":10,"tick":17562,"byteIndex":6773,"name":"Note on","channel":1,"noteNumber":36,"noteName":"C2","velocity":50,"programs":[]},{"track":1,"delta":0,"tick":17603,"byteIndex":6797,"name":"Note on","channel":1,"noteNumber":36,"noteName":"C2","velocity":52,"programs":[]},{"track":1,"delta":20,"tick":17653,"byteIndex":6821,"name":"Note on","channel":1,"noteNumber":36,"noteName":"C2","velocity":48,"programs":[]},{"track":1,"delta":0,"tick":17699,"byteIndex":6845,"name":"Note on","channel":1,"noteNumber":36,"noteName":"C2","velocity":46,"programs":[]},{"track":1,"delta":0,"tick":17749,"byteIndex":6873,"name":"Note on","channel":1,"noteNumber":38,"noteName":"D2","velocity":37,"programs":[]},{"track":1,"delta":0,"tick":17795,"byteIndex":6889,"name":"Note on","channel":1,"noteNumber":42,"noteName":"Gb2","velocity":1,"programs":[]},{"track":1,"delta":0,"tick":17824,"byteIndex":6897,"name":"Note on","channel":1,"noteNumber":42,"noteName":"Gb2","velocity":1,"programs":[]},{"track":1,"delta":23,"tick":17847,"byteIndex":6901,"name":"Note on","channel":1,"noteNumber":36,"noteName":"C2","velocity":44,"programs":[]},{"track":1,"delta":0,"tick":17869,"byteIndex":6925,"name":"Note on","channel":1,"noteNumber":36,"noteName":"C2","velocity":54,"programs":[]},{"track":1,"delta":0,"tick":17889,"byteIndex":6941,"name":"Note on","channel":1,"noteNumber":42,"noteName":"Gb2","velocity":24,"programs":[]},{"track":1,"delta":0,"tick":17917,"byteIndex":6949,"name":"Note on","channel":1,"noteNumber":42,"noteName":"Gb2","velocity":24,"programs":[]},{"track":1,"delta":5,"tick":17943,"byteIndex":6957,"name":"Note on","channel":1,"noteNumber":36,"noteName":"C2","velocity":45,"programs":[]},{"track":1,"delta":0,"tick":17987,"byteIndex":6981,"name":"Note on","channel":1,"noteNumber":36,"noteName":"C2","velocity":56,"programs":[]},{"track":1,"delta":20,"tick":18035,"byteIndex":7005,"name":"Note on","channel":1,"noteNumber":36,"noteName":"C2","velocity":42,"programs":[]},{"track":1,"delta":7,"tick":18083,"byteIndex":7029,"name":"Note on","channel":1,"noteNumber":36,"noteName":"C2","velocity":43,"programs":[]},{"track":1,"delta":0,"tick":18130,"byteIndex":7057,"name":"Note on","channel":1,"noteNumber":38,"noteName":"D2","velocity":35,"programs":[]},{"track":1,"delta":0,"tick":18179,"byteIndex":7073,"name":"Note on","channel":1,"noteNumber":42,"noteName":"Gb2","velocity":1,"programs":[]},{"track":1,"delta":0,"tick":18206,"byteIndex":7081,"name":"Note on","channel":1,"noteNumber":42,"noteName":"Gb2","velocity":1,"programs":[]},{"track":1,"delta":21,"tick":18227,"byteIndex":7085,"name":"Note on","channel":1,"noteNumber":36,"noteName":"C2","velocity":50,"programs":[]},{"track":1,"delta":0,"tick":18253,"byteIndex":7109,"name":"Note on","channel":1,"noteNumber":36,"noteName":"C2","velocity":39,"programs":[]},{"track":1,"delta":0,"tick":18275,"byteIndex":7125,"name":"Note on","channel":1,"noteNumber":42,"noteName":"Gb2","velocity":24,"programs":[]},{"track":1,"delta":0,"tick":18302,"byteIndex":7133,"name":"Note on","channel":1,"noteNumber":42,"noteName":"Gb2","velocity":23,"programs":[]},{"track":1,"delta":11,"tick":18326,"byteIndex":7141,"name":"Note on","channel":1,"noteNumber":36,"noteName":"C2","velocity":52,"programs":[]},{"track":1,"delta":0,"tick":18354,"byteIndex":7165,"name":"Note on","channel":1,"noteNumber":36,"noteName":"C2","velocity":39,"programs":[]},{"track":1,"delta":82,"tick":18467,"byteIndex":7189,"name":"Note on","channel":1,"noteNumber":36,"noteName":"C2","velocity":42,"programs":[]},{"track":1,"delta":0,"tick":18515,"byteIndex":7213,"name":"Note on","channel":1,"noteNumber":38,"noteName":"D2","velocity":36,"programs":[]},{"track":1,"delta":0,"tick":18563,"byteIndex":7233,"name":"Note on","channel":1,"noteNumber":42,"noteName":"Gb2","velocity":1,"programs":[]},{"track":1,"delta":0,"tick":18591,"byteIndex":7245,"name":"Note on","channel":1,"noteNumber":42,"noteName":"Gb2","velocity":1,"programs":[]},{"track":1,"delta":22,"tick":18613,"byteIndex":7249,"name":"Note on","channel":1,"noteNumber":36,"noteName":"C2","velocity":59,"programs":[]},{"track":1,"delta":0,"tick":18638,"byteIndex":7269,"name":"Note on","channel":1,"noteNumber":36,"noteName":"C2","velocity":43,"programs":[]},{"track":1,"delta":0,"tick":18659,"byteIndex":7285,"name":"Note on","channel":1,"noteNumber":42,"noteName":"Gb2","velocity":22,"programs":[]},{"track":1,"delta":0,"tick":18684,"byteIndex":7293,"name":"Note on","channel":1,"noteNumber":42,"noteName":"Gb2","velocity":21,"programs":[]},{"track":1,"delta":0,"tick":18710,"byteIndex":7301,"name":"Note on","channel":1,"noteNumber":36,"noteName":"C2","velocity":58,"programs":[]},{"track":1,"delta":0,"tick":18732,"byteIndex":7325,"name":"Note on","channel":1,"noteNumber":36,"noteName":"C2","velocity":52,"programs":[]},{"track":1,"delta":35,"tick":18797,"byteIndex":7349,"name":"Note on","channel":1,"noteNumber":36,"noteName":"C2","velocity":51,"programs":[]},{"track":1,"delta":12,"tick":18850,"byteIndex":7373,"name":"Note on","channel":1,"noteNumber":36,"noteName":"C2","velocity":42,"programs":[]},{"track":1,"delta":32,"tick":18899,"byteIndex":7397,"name":"Note on","channel":1,"noteNumber":36,"noteName":"C2","velocity":35,"programs":[]},{"track":1,"delta":0,"tick":18947,"byteIndex":7421,"name":"Note on","channel":1,"noteNumber":36,"noteName":"C2","velocity":61,"programs":[]},{"track":1,"delta":0,"tick":18978,"byteIndex":7437,"name":"Note on","channel":1,"noteNumber":42,"noteName":"Gb2","velocity":16,"programs":[]},{"track":1,"delta":0,"tick":18998,"byteIndex":7445,"name":"Note on","channel":1,"noteNumber":36,"noteName":"C2","velocity":48,"programs":[]},{"track":1,"delta":0,"tick":19026,"byteIndex":7469,"name":"Note on","channel":1,"noteNumber":36,"noteName":"C2","velocity":44,"programs":[]},{"track":1,"delta":0,"tick":19042,"byteIndex":7485,"name":"Note on","channel":1,"noteNumber":42,"noteName":"Gb2","velocity":30,"programs":[]},{"track":1,"delta":0,"tick":19071,"byteIndex":7493,"name":"Note on","channel":1,"noteNumber":42,"noteName":"Gb2","velocity":20,"programs":[]},{"track":1,"delta":8,"tick":19095,"byteIndex":7501,"name":"Note on","channel":1,"noteNumber":36,"noteName":"C2","velocity":54,"programs":[]},{"track":1,"delta":0,"tick":19120,"byteIndex":7525,"name":"Note on","channel":1,"noteNumber":36,"noteName":"C2","velocity":35,"programs":[]},{"track":1,"delta":31,"tick":19177,"byteIndex":7541,"name":"Note on","channel":1,"noteNumber":36,"noteName":"C2","velocity":50,"programs":[]},{"track":1,"delta":0,"tick":19234,"byteIndex":7569,"name":"Note on","channel":1,"noteNumber":38,"noteName":"D2","velocity":34,"programs":[]},{"track":1,"delta":49,"tick":19283,"byteIndex":7581,"name":"Note on","channel":1,"noteNumber":36,"noteName":"C2","velocity":55,"programs":[]},{"track":1,"delta":6,"tick":19330,"byteIndex":7605,"name":"Note on","channel":1,"noteNumber":36,"noteName":"C2","velocity":35,"programs":[]},{"track":1,"delta":0,"tick":19359,"byteIndex":7625,"name":"Note on","channel":1,"noteNumber":42,"noteName":"Gb2","velocity":17,"programs":[]},{"track":1,"delta":22,"tick":19381,"byteIndex":7629,"name":"Note on","channel":1,"noteNumber":36,"noteName":"C2","velocity":49,"programs":[]},{"track":1,"delta":0,"tick":19406,"byteIndex":7653,"name":"Note on","channel":1,"noteNumber":42,"noteName":"Gb2","velocity":30,"programs":[]},{"track":1,"delta":0,"tick":19427,"byteIndex":7661,"name":"Note on","channel":1,"noteNumber":42,"noteName":"Gb2","velocity":30,"programs":[]},{"track":1,"delta":0,"tick":19455,"byteIndex":7669,"name":"Note on","channel":1,"noteNumber":42,"noteName":"Gb2","velocity":18,"programs":[]},{"track":1,"delta":11,"tick":19480,"byteIndex":7677,"name":"Note on","channel":1,"noteNumber":36,"noteName":"C2","velocity":50,"programs":[]},{"track":1,"delta":0,"tick":19503,"byteIndex":7701,"name":"Note on","channel":1,"noteNumber":36,"noteName":"C2","velocity":38,"programs":[]},{"track":1,"delta":86,"tick":19619,"byteIndex":7725,"name":"Note on","channel":1,"noteNumber":36,"noteName":"C2","velocity":43,"programs":[]},{"track":1,"delta":0,"tick":19665,"byteIndex":7749,"name":"Note on","channel":1,"noteNumber":36,"noteName":"C2","velocity":51,"programs":[]},{"track":1,"delta":0,"tick":19715,"byteIndex":7773,"name":"Note on","channel":1,"noteNumber":36,"noteName":"C2","velocity":42,"programs":[]},{"track":1,"delta":0,"tick":19744,"byteIndex":7789,"name":"Note on","channel":1,"noteNumber":42,"noteName":"Gb2","velocity":17,"programs":[]},{"track":1,"delta":0,"tick":19771,"byteIndex":7797,"name":"Note on","channel":1,"noteNumber":36,"noteName":"C2","velocity":38,"programs":[]},{"track":1,"delta":0,"tick":19790,"byteIndex":7821,"name":"Note on","channel":1,"noteNumber":36,"noteName":"C2","velocity":50,"programs":[]},{"track":1,"delta":0,"tick":19811,"byteIndex":7837,"name":"Note on","channel":1,"noteNumber":42,"noteName":"Gb2","velocity":27,"programs":[]},{"track":1,"delta":0,"tick":19837,"byteIndex":7845,"name":"Note on","channel":1,"noteNumber":36,"noteName":"C2","velocity":35,"programs":[]},{"track":1,"delta":0,"tick":19862,"byteIndex":7861,"name":"Note on","channel":1,"noteNumber":36,"noteName":"C2","velocity":43,"programs":[]},{"track":1,"delta":0,"tick":19907,"byteIndex":7885,"name":"Note on","channel":1,"noteNumber":36,"noteName":"C2","velocity":51,"programs":[]},{"track":1,"delta":21,"tick":19956,"byteIndex":7909,"name":"Note on","channel":1,"noteNumber":36,"noteName":"C2","velocity":35,"programs":[]},{"track":1,"delta":0,"tick":19976,"byteIndex":7933,"name":"Note on","channel":1,"noteNumber":36,"noteName":"C2","velocity":40,"programs":[]},{"track":1,"delta":0,"tick":20002,"byteIndex":7961,"name":"Note on","channel":1,"noteNumber":38,"noteName":"D2","velocity":35,"programs":[]},{"track":1,"delta":0,"tick":20099,"byteIndex":7977,"name":"Note on","channel":1,"noteNumber":38,"noteName":"D2","velocity":47,"programs":[]},{"track":1,"delta":0,"tick":20125,"byteIndex":7993,"name":"Note on","channel":1,"noteNumber":38,"noteName":"D2","velocity":43,"programs":[]},{"track":1,"delta":25,"tick":20150,"byteIndex":8005,"name":"Note on","channel":1,"noteNumber":36,"noteName":"C2","velocity":36,"programs":[]},{"track":1,"delta":0,"tick":20173,"byteIndex":8029,"name":"Note on","channel":1,"noteNumber":36,"noteName":"C2","velocity":35,"programs":[]},{"track":1,"delta":0,"tick":20195,"byteIndex":8045,"name":"Note on","channel":1,"noteNumber":42,"noteName":"Gb2","velocity":32,"programs":[]},{"track":1,"delta":0,"tick":20222,"byteIndex":8057,"name":"Note on","channel":1,"noteNumber":42,"noteName":"Gb2","velocity":20,"programs":[]},{"track":1,"delta":26,"tick":20248,"byteIndex":8061,"name":"Note on","channel":1,"noteNumber":36,"noteName":"C2","velocity":47,"programs":[]},{"track":1,"delta":0,"tick":20268,"byteIndex":8085,"name":"Note on","channel":1,"noteNumber":38,"noteName":"D2","velocity":35,"programs":[]},{"track":1,"delta":0,"tick":20291,"byteIndex":8101,"name":"Note on","channel":1,"noteNumber":38,"noteName":"D2","velocity":34,"programs":[]},{"track":1,"delta":0,"tick":20328,"byteIndex":8121,"name":"Note on","channel":1,"noteNumber":38,"noteName":"D2","velocity":34,"programs":[]},{"track":1,"delta":11,"tick":20339,"byteIndex":8133,"name":"Note on","channel":1,"noteNumber":36,"noteName":"C2","velocity":40,"programs":[]},{"track":1,"delta":0,"tick":20361,"byteIndex":8149,"name":"Note on","channel":1,"noteNumber":38,"noteName":"D2","velocity":50,"programs":[]},{"track":1,"delta":0,"tick":20387,"byteIndex":8169,"name":"Note on","channel":1,"noteNumber":38,"noteName":"D2","velocity":38,"programs":[]},{"track":1,"delta":95,"tick":20482,"byteIndex":8181,"name":"Note on","channel":1,"noteNumber":36,"noteName":"C2","velocity":46,"programs":[]},{"track":1,"delta":0,"tick":20511,"byteIndex":8205,"name":"Note on","channel":1,"noteNumber":42,"noteName":"Gb2","velocity":16,"programs":[]},{"track":1,"delta":0,"tick":20535,"byteIndex":8213,"name":"Note on","channel":1,"noteNumber":36,"noteName":"C2","velocity":41,"programs":[]},{"track":1,"delta":0,"tick":20560,"byteIndex":8237,"name":"Note on","channel":1,"noteNumber":36,"noteName":"C2","velocity":34,"programs":[]},{"track":1,"delta":9,"tick":20579,"byteIndex":8253,"name":"Note on","channel":1,"noteNumber":42,"noteName":"Gb2","velocity":17,"programs":[]},{"track":1,"delta":0,"tick":20605,"byteIndex":8261,"name":"Note on","channel":1,"noteNumber":42,"noteName":"Gb2","velocity":16,"programs":[]},{"track":1,"delta":25,"tick":20630,"byteIndex":8265,"name":"Note on","channel":1,"noteNumber":36,"noteName":"C2","velocity":45,"programs":[]},{"track":1,"delta":0,"tick":20674,"byteIndex":8285,"name":"Note on","channel":1,"noteNumber":36,"noteName":"C2","velocity":42,"programs":[]},{"track":1,"delta":0,"tick":20711,"byteIndex":8313,"name":"Note on","channel":1,"noteNumber":42,"noteName":"Gb2","velocity":16,"programs":[]},{"track":1,"delta":0,"tick":20722,"byteIndex":8321,"name":"Note on","channel":1,"noteNumber":38,"noteName":"D2","velocity":54,"programs":[]},{"track":1,"delta":18,"tick":20740,"byteIndex":8333,"name":"Note on","channel":1,"noteNumber":36,"noteName":"C2","velocity":43,"programs":[]},{"track":1,"delta":0,"tick":20771,"byteIndex":8349,"name":"Note on","channel":1,"noteNumber":42,"noteName":"Gb2","velocity":30,"programs":[]},{"track":1,"delta":24,"tick":20866,"byteIndex":8361,"name":"Note on","channel":1,"noteNumber":36,"noteName":"C2","velocity":50,"programs":[]},{"track":1,"delta":0,"tick":20897,"byteIndex":8385,"name":"Note on","channel":1,"noteNumber":42,"noteName":"Gb2","velocity":17,"programs":[]},{"track":1,"delta":5,"tick":20917,"byteIndex":8393,"name":"Note on","channel":1,"noteNumber":36,"noteName":"C2","velocity":39,"programs":[]},{"track":1,"delta":0,"tick":20941,"byteIndex":8413,"name":"Note on","channel":1,"noteNumber":36,"noteName":"C2","velocity":42,"programs":[]},{"track":1,"delta":0,"tick":20963,"byteIndex":8429,"name":"Note on","channel":1,"noteNumber":42,"noteName":"Gb2","velocity":31,"programs":[]},{"track":1,"delta":0,"tick":20989,"byteIndex":8441,"name":"Note on","channel":1,"noteNumber":42,"noteName":"Gb2","velocity":20,"programs":[]},{"track":1,"delta":28,"tick":21017,"byteIndex":8445,"name":"Note on","channel":1,"noteNumber":36,"noteName":"C2","velocity":38,"programs":[]},{"track":1,"delta":0,"tick":21043,"byteIndex":8469,"name":"Note on","channel":1,"noteNumber":36,"noteName":"C2","velocity":43,"programs":[]},{"track":1,"delta":0,"tick":21064,"byteIndex":8497,"name":"Note on","channel":1,"noteNumber":42,"noteName":"Gb2","velocity":19,"programs":[]},{"track":1,"delta":0,"tick":21091,"byteIndex":8505,"name":"Note on","channel":1,"noteNumber":42,"noteName":"Gb2","velocity":16,"programs":[]},{"track":1,"delta":33,"tick":21124,"byteIndex":8509,"name":"Note on","channel":1,"noteNumber":36,"noteName":"C2","velocity":38,"programs":[]},{"track":1,"delta":0,"tick":21154,"byteIndex":8533,"name":"Note on","channel":1,"noteNumber":42,"noteName":"Gb2","velocity":30,"programs":[]},{"track":1,"delta":86,"tick":21251,"byteIndex":8541,"name":"Note on","channel":1,"noteNumber":36,"noteName":"C2","velocity":47,"programs":[]},{"track":1,"delta":0,"tick":21278,"byteIndex":8565,"name":"Note on","channel":1,"noteNumber":42,"noteName":"Gb2","velocity":15,"programs":[]},{"track":1,"delta":0,"tick":21302,"byteIndex":8573,"name":"Note on","channel":1,"noteNumber":36,"noteName":"C2","velocity":39,"programs":[]},{"track":1,"delta":0,"tick":21327,"byteIndex":8597,"name":"Note on","channel":1,"noteNumber":36,"noteName":"C2","velocity":32,"programs":[]},{"track":1,"delta":0,"tick":21347,"byteIndex":8613,"name":"Note on","channel":1,"noteNumber":42,"noteName":"Gb2","velocity":25,"programs":[]},{"track":1,"delta":0,"tick":21371,"byteIndex":8621,"name":"Note on","channel":1,"noteNumber":42,"noteName":"Gb2","velocity":19,"programs":[]},{"track":1,"delta":10,"tick":21400,"byteIndex":8629,"name":"Note on","channel":1,"noteNumber":36,"noteName":"C2","velocity":45,"programs":[]},{"track":1,"delta":0,"tick":21442,"byteIndex":8653,"name":"Note on","channel":1,"noteNumber":36,"noteName":"C2","velocity":32,"programs":[]},{"track":1,"delta":0,"tick":21473,"byteIndex":8681,"name":"Note on","channel":1,"noteNumber":38,"noteName":"D2","velocity":39,"programs":[]},{"track":1,"delta":0,"tick":21493,"byteIndex":8697,"name":"Note on","channel":1,"noteNumber":42,"noteName":"Gb2","velocity":10,"programs":[]},{"track":1,"delta":11,"tick":21504,"byteIndex":8701,"name":"Note on","channel":1,"noteNumber":36,"noteName":"C2","velocity":35,"programs":[]},{"track":1,"delta":0,"tick":21538,"byteIndex":8725,"name":"Note on","channel":1,"noteNumber":42,"noteName":"Gb2","velocity":28,"programs":[]},{"track":1,"delta":56,"tick":21601,"byteIndex":8733,"name":"Note on","channel":1,"noteNumber":36,"noteName":"C2","velocity":36,"programs":[]},{"track":1,"delta":0,"tick":21635,"byteIndex":8757,"name":"Note on","channel":1,"noteNumber":36,"noteName":"C2","velocity":47,"programs":[]},{"track":1,"delta":0,"tick":21666,"byteIndex":8773,"name":"Note on","channel":1,"noteNumber":42,"noteName":"Gb2","velocity":17,"programs":[]},{"track":1,"delta":0,"tick":21687,"byteIndex":8781,"name":"Note on","channel":1,"noteNumber":36,"noteName":"C2","velocity":54,"programs":[]},{"track":1,"delta":0,"tick":21731,"byteIndex":8805,"name":"Note on","channel":1,"noteNumber":36,"noteName":"C2","velocity":34,"programs":[]},{"track":1,"delta":0,"tick":21762,"byteIndex":8821,"name":"Note on","channel":1,"noteNumber":38,"noteName":"D2","velocity":37,"programs":[]},{"track":1,"delta":0,"tick":21791,"byteIndex":8841,"name":"Note on","channel":1,"noteNumber":38,"noteName":"D2","velocity":53,"programs":[]},{"track":1,"delta":0,"tick":21827,"byteIndex":8857,"name":"Note on","channel":1,"noteNumber":38,"noteName":"D2","velocity":46,"programs":[]},{"track":1,"delta":0,"tick":21858,"byteIndex":8873,"name":"Note on","channel":1,"noteNumber":42,"noteName":"Gb2","velocity":6,"programs":[]},{"track":1,"delta":0,"tick":21889,"byteIndex":8881,"name":"Note on","channel":1,"noteNumber":38,"noteName":"D2","velocity":57,"programs":[]},{"track":1,"delta":0,"tick":21922,"byteIndex":8897,"name":"Note on","channel":1,"noteNumber":38,"noteName":"D2","velocity":96,"programs":[]},{"track":1,"delta":62,"tick":21984,"byteIndex":8909,"name":"Note on","channel":1,"noteNumber":36,"noteName":"C2","velocity":35,"programs":[]},{"track":1,"delta":0,"tick":22019,"byteIndex":8933,"name":"Note on","channel":1,"noteNumber":36,"noteName":"C2","velocity":54,"programs":[]},{"track":1,"delta":0,"tick":22045,"byteIndex":8949,"name":"Note on","channel":1,"noteNumber":42,"noteName":"Gb2","velocity":67,"programs":[]},{"track":1,"delta":0,"tick":22070,"byteIndex":8957,"name":"Note on","channel":1,"noteNumber":36,"noteName":"C2","velocity":44,"programs":[]},{"track":1,"delta":0,"tick":22114,"byteIndex":8981,"name":"Note on","channel":1,"noteNumber":36,"noteName":"C2","velocity":38,"programs":[]},{"track":1,"delta":43,"tick":22211,"byteIndex":8997,"name":"Note on","channel":1,"noteNumber":36,"noteName":"C2","velocity":37,"programs":[]},{"track":1,"delta":30,"tick":22260,"byteIndex":9021,"name":"Note on","channel":1,"noteNumber":36,"noteName":"C2","velocity":50,"programs":[]},{"track":1,"delta":0,"tick":22306,"byteIndex":9049,"name":"Note on","channel":1,"noteNumber":42,"noteName":"Gb2","velocity":65,"programs":[]},{"track":1,"delta":97,"tick":22403,"byteIndex":9053,"name":"Note on","channel":1,"noteNumber":36,"noteName":"C2","velocity":35,"programs":[]},{"track":1,"delta":0,"tick":22429,"byteIndex":9077,"name":"Note on","channel":1,"noteNumber":42,"noteName":"Gb2","velocity":57,"programs":[]},{"track":1,"delta":8,"tick":22454,"byteIndex":9085,"name":"Note on","channel":1,"noteNumber":36,"noteName":"C2","velocity":50,"programs":[]},{"track":1,"delta":0,"tick":22478,"byteIndex":9109,"name":"Note on","channel":1,"noteNumber":36,"noteName":"C2","velocity":32,"programs":[]},{"track":1,"delta":0,"tick":22499,"byteIndex":9125,"name":"Note on","channel":1,"noteNumber":42,"noteName":"Gb2","velocity":32,"programs":[]},{"track":1,"delta":0,"tick":22523,"byteIndex":9133,"name":"Note on","channel":1,"noteNumber":42,"noteName":"Gb2","velocity":76,"programs":[]},{"track":1,"delta":33,"tick":22562,"byteIndex":9141,"name":"Note on","channel":1,"noteNumber":36,"noteName":"C2","velocity":49,"programs":[]},{"track":1,"delta":0,"tick":22594,"byteIndex":9165,"name":"Note on","channel":1,"noteNumber":38,"noteName":"D2","velocity":32,"programs":[]},{"track":1,"delta":48,"tick":22643,"byteIndex":9181,"name":"Note on","channel":1,"noteNumber":36,"noteName":"C2","velocity":43,"programs":[]},{"track":1,"delta":0,"tick":22691,"byteIndex":9205,"name":"Note on","channel":1,"noteNumber":36,"noteName":"C2","velocity":37,"programs":[]},{"track":1,"delta":0,"tick":22716,"byteIndex":9229,"name":"Note on","channel":1,"noteNumber":38,"noteName":"D2","velocity":46,"programs":[]},{"track":1,"delta":18,"tick":22746,"byteIndex":9245,"name":"Note on","channel":1,"noteNumber":36,"noteName":"C2","velocity":50,"programs":[]},{"track":1,"delta":0,"tick":22789,"byteIndex":9269,"name":"Note on","channel":1,"noteNumber":36,"noteName":"C2","velocity":43,"programs":[]},{"track":1,"delta":0,"tick":22813,"byteIndex":9285,"name":"Note on","channel":1,"noteNumber":42,"noteName":"Gb2","velocity":54,"programs":[]},{"track":1,"delta":0,"tick":22838,"byteIndex":9293,"name":"Note on","channel":1,"noteNumber":36,"noteName":"C2","velocity":36,"programs":[]},{"track":1,"delta":0,"tick":22865,"byteIndex":9317,"name":"Note on","channel":1,"noteNumber":36,"noteName":"C2","velocity":50,"programs":[]},{"track":1,"delta":0,"tick":22887,"byteIndex":9333,"name":"Note on","channel":1,"noteNumber":42,"noteName":"Gb2","velocity":25,"programs":[]},{"track":1,"delta":0,"tick":22907,"byteIndex":9341,"name":"Note on","channel":1,"noteNumber":42,"noteName":"Gb2","velocity":44,"programs":[]},{"track":1,"delta":0,"tick":22932,"byteIndex":9349,"name":"Note on","channel":1,"noteNumber":36,"noteName":"C2","velocity":43,"programs":[]},{"track":1,"delta":0,"tick":22955,"byteIndex":9373,"name":"Note on","channel":1,"noteNumber":36,"noteName":"C2","velocity":49,"programs":[]},{"track":1,"delta":0,"tick":22979,"byteIndex":9393,"name":"Note on","channel":1,"noteNumber":38,"noteName":"D2","velocity":36,"programs":[]},{"track":1,"delta":94,"tick":23073,"byteIndex":9405,"name":"Note on","channel":1,"noteNumber":36,"noteName":"C2","velocity":39,"programs":[]},{"track":1,"delta":0,"tick":23149,"byteIndex":9433,"name":"Note on","channel":1,"noteNumber":38,"noteName":"D2","velocity":43,"programs":[]},{"track":1,"delta":0,"tick":23171,"byteIndex":9449,"name":"Note on","channel":1,"noteNumber":38,"noteName":"D2","velocity":42,"programs":[]},{"track":1,"delta":0,"tick":23196,"byteIndex":9465,"name":"Note on","channel":1,"noteNumber":38,"noteName":"D2","velocity":35,"programs":[]},{"track":1,"delta":25,"tick":23221,"byteIndex":9477,"name":"Note on","channel":1,"noteNumber":36,"noteName":"C2","velocity":43,"programs":[]},{"track":1,"delta":0,"tick":23247,"byteIndex":9501,"name":"Note on","channel":1,"noteNumber":42,"noteName":"Gb2","velocity":31,"programs":[]},{"track":1,"delta":0,"tick":23266,"byteIndex":9509,"name":"Note on","channel":1,"noteNumber":42,"noteName":"Gb2","velocity":32,"programs":[]},{"track":1,"delta":0,"tick":23292,"byteIndex":9517,"name":"Note on","channel":1,"noteNumber":42,"noteName":"Gb2","velocity":75,"programs":[]},{"track":1,"delta":15,"tick":23318,"byteIndex":9525,"name":"Note on","channel":1,"noteNumber":36,"noteName":"C2","velocity":47,"programs":[]},{"track":1,"delta":0,"tick":23342,"byteIndex":9549,"name":"Note on","channel":1,"noteNumber":36,"noteName":"C2","velocity":32,"programs":[]},{"track":1,"delta":0,"tick":23362,"byteIndex":9565,"name":"Note on","channel":1,"noteNumber":38,"noteName":"D2","velocity":35,"programs":[]},{"track":1,"delta":43,"tick":23413,"byteIndex":9581,"name":"Note on","channel":1,"noteNumber":36,"noteName":"C2","velocity":39,"programs":[]},{"track":1,"delta":1,"tick":23457,"byteIndex":9605,"name":"Note on","channel":1,"noteNumber":36,"noteName":"C2","velocity":31,"programs":[]},{"track":1,"delta":61,"tick":23533,"byteIndex":9629,"name":"Note on","channel":1,"noteNumber":36,"noteName":"C2","velocity":43,"programs":[]},{"track":1,"delta":0,"tick":23555,"byteIndex":9653,"name":"Note on","channel":1,"noteNumber":42,"noteName":"Gb2","velocity":48,"programs":[]},{"track":1,"delta":0,"tick":23581,"byteIndex":9661,"name":"Note on","channel":1,"noteNumber":42,"noteName":"Gb2","velocity":50,"programs":[]},{"track":1,"delta":0,"tick":23606,"byteIndex":9669,"name":"Note on","channel":1,"noteNumber":36,"noteName":"C2","velocity":36,"programs":[]},{"track":1,"delta":0,"tick":23631,"byteIndex":9693,"name":"Note on","channel":1,"noteNumber":36,"noteName":"C2","velocity":35,"programs":[]},{"track":1,"delta":0,"tick":23651,"byteIndex":9709,"name":"Note on","channel":1,"noteNumber":42,"noteName":"Gb2","velocity":27,"programs":[]},{"track":1,"delta":0,"tick":23682,"byteIndex":9717,"name":"Note on","channel":1,"noteNumber":42,"noteName":"Gb2","velocity":71,"programs":[]},{"track":1,"delta":18,"tick":23703,"byteIndex":9725,"name":"Note on","channel":1,"noteNumber":36,"noteName":"C2","velocity":57,"programs":[]},{"track":1,"delta":0,"tick":23726,"byteIndex":9749,"name":"Note on","channel":1,"noteNumber":36,"noteName":"C2","velocity":40,"programs":[]},{"track":1,"delta":0,"tick":23746,"byteIndex":9765,"name":"Note on","channel":1,"noteNumber":38,"noteName":"D2","velocity":33,"programs":[]},{"track":1,"delta":0,"tick":23779,"byteIndex":9785,"name":"Note on","channel":1,"noteNumber":42,"noteName":"Gb2","velocity":40,"programs":[]},{"track":1,"delta":23,"tick":23802,"byteIndex":9789,"name":"Note on","channel":1,"noteNumber":36,"noteName":"C2","velocity":52,"programs":[]},{"track":1,"delta":0,"tick":23842,"byteIndex":9813,"name":"Note on","channel":1,"noteNumber":36,"noteName":"C2","velocity":38,"programs":[]},{"track":1,"delta":57,"tick":23917,"byteIndex":9837,"name":"Note on","channel":1,"noteNumber":36,"noteName":"C2","velocity":53,"programs":[]},{"track":1,"delta":0,"tick":23938,"byteIndex":9861,"name":"Note on","channel":1,"noteNumber":42,"noteName":"Gb2","velocity":44,"programs":[]},{"track":1,"delta":0,"tick":23964,"byteIndex":9869,"name":"Note on","channel":1,"noteNumber":38,"noteName":"D2","velocity":31,"programs":[]},{"track":1,"delta":0,"tick":23990,"byteIndex":9885,"name":"Note on","channel":1,"noteNumber":36,"noteName":"C2","velocity":51,"programs":[]},{"track":1,"delta":0,"tick":24035,"byteIndex":9909,"name":"Note on","channel":1,"noteNumber":36,"noteName":"C2","velocity":46,"programs":[]},{"track":1,"delta":0,"tick":24064,"byteIndex":9933,"name":"Note on","channel":1,"noteNumber":42,"noteName":"Gb2","velocity":69,"programs":[]},{"track":1,"delta":0,"tick":24086,"byteIndex":9941,"name":"Note on","channel":1,"noteNumber":36,"noteName":"C2","velocity":53,"programs":[]},{"track":1,"delta":0,"tick":24110,"byteIndex":9965,"name":"Note on","channel":1,"noteNumber":36,"noteName":"C2","velocity":36,"programs":[]},{"track":1,"delta":0,"tick":24135,"byteIndex":9993,"name":"Note on","channel":1,"noteNumber":42,"noteName":"Gb2","velocity":40,"programs":[]},{"track":1,"delta":0,"tick":24165,"byteIndex":10001,"name":"Note on","channel":1,"noteNumber":38,"noteName":"D2","velocity":31,"programs":[]},{"track":1,"delta":30,"tick":24195,"byteIndex":10013,"name":"Note on","channel":1,"noteNumber":36,"noteName":"C2","velocity":50,"programs":[]},{"track":1,"delta":0,"tick":24227,"byteIndex":10037,"name":"Note on","channel":1,"noteNumber":38,"noteName":"D2","velocity":33,"programs":[]},{"track":1,"delta":42,"tick":24301,"byteIndex":10053,"name":"Note on","channel":1,"noteNumber":36,"noteName":"C2","velocity":39,"programs":[]},{"track":1,"delta":0,"tick":24323,"byteIndex":10077,"name":"Note on","channel":1,"noteNumber":42,"noteName":"Gb2","velocity":43,"programs":[]},{"track":1,"delta":0,"tick":24354,"byteIndex":10085,"name":"Note on","channel":1,"noteNumber":38,"noteName":"D2","velocity":34,"programs":[]},{"track":1,"delta":0,"tick":24375,"byteIndex":10101,"name":"Note on","channel":1,"noteNumber":36,"noteName":"C2","velocity":44,"programs":[]},{"track":1,"delta":0,"tick":24418,"byteIndex":10125,"name":"Note on","channel":1,"noteNumber":36,"noteName":"C2","velocity":35,"programs":[]},{"track":1,"delta":0,"tick":24446,"byteIndex":10149,"name":"Note on","channel":1,"noteNumber":38,"noteName":"D2","velocity":32,"programs":[]},{"track":1,"delta":0,"tick":24472,"byteIndex":10165,"name":"Note on","channel":1,"noteNumber":36,"noteName":"C2","velocity":31,"programs":[]},{"track":1,"delta":0,"tick":24495,"byteIndex":10189,"name":"Note on","channel":1,"noteNumber":36,"noteName":"C2","velocity":32,"programs":[]},{"track":1,"delta":0,"tick":24515,"byteIndex":10217,"name":"Note on","channel":1,"noteNumber":38,"noteName":"D2","velocity":32,"programs":[]},{"track":1,"delta":0,"tick":24547,"byteIndex":10233,"name":"Note on","channel":1,"noteNumber":38,"noteName":"D2","velocity":34,"programs":[]},{"track":1,"delta":17,"tick":24564,"byteIndex":10245,"name":"Note on","channel":1,"noteNumber":36,"noteName":"C2","velocity":46,"programs":[]},{"track":1,"delta":0,"tick":24609,"byteIndex":10277,"name":"Note on","channel":1,"noteNumber":38,"noteName":"D2","velocity":40,"programs":[]},{"track":1,"delta":76,"tick":24685,"byteIndex":10285,"name":"Note on","channel":1,"noteNumber":36,"noteName":"C2","velocity":45,"programs":[]},{"track":1,"delta":0,"tick":24707,"byteIndex":10309,"name":"Note on","channel":1,"noteNumber":42,"noteName":"Gb2","velocity":45,"programs":[]},{"track":1,"delta":0,"tick":24737,"byteIndex":10321,"name":"Note on","channel":1,"noteNumber":42,"noteName":"Gb2","velocity":46,"programs":[]},{"track":1,"delta":21,"tick":24758,"byteIndex":10325,"name":"Note on","channel":1,"noteNumber":36,"noteName":"C2","velocity":35,"programs":[]},{"track":1,"delta":0,"tick":24803,"byteIndex":10349,"name":"Note on","channel":1,"noteNumber":36,"noteName":"C2","velocity":41,"programs":[]},{"track":1,"delta":0,"tick":24880,"byteIndex":10369,"name":"Note on","channel":1,"noteNumber":42,"noteName":"Gb2","velocity":62,"programs":[]},{"track":1,"delta":0,"tick":24900,"byteIndex":10377,"name":"Note on","channel":1,"noteNumber":38,"noteName":"D2","velocity":61,"programs":[]},{"track":1,"delta":0,"tick":24931,"byteIndex":10393,"name":"Note on","channel":1,"noteNumber":42,"noteName":"Gb2","velocity":1,"programs":[]},{"track":1,"delta":0,"tick":24948,"byteIndex":10401,"name":"Note on","channel":1,"noteNumber":42,"noteName":"Gb2","velocity":1,"programs":[]},{"track":1,"delta":0,"tick":24993,"byteIndex":10409,"name":"Note on","channel":1,"noteNumber":38,"noteName":"D2","velocity":51,"programs":[]},{"track":1,"delta":77,"tick":25070,"byteIndex":10421,"name":"Note on","channel":1,"noteNumber":36,"noteName":"C2","velocity":70,"programs":[]},{"track":1,"delta":0,"tick":25091,"byteIndex":10445,"name":"Note on","channel":1,"noteNumber":42,"noteName":"Gb2","velocity":43,"programs":[]},{"track":1,"delta":0,"tick":25123,"byteIndex":10453,"name":"Note on","channel":1,"noteNumber":42,"noteName":"Gb2","velocity":45,"programs":[]},{"track":1,"delta":0,"tick":25148,"byteIndex":10461,"name":"Note on","channel":1,"noteNumber":36,"noteName":"C2","velocity":39,"programs":[]},{"track":1,"delta":0,"tick":25187,"byteIndex":10485,"name":"Note on","channel":1,"noteNumber":36,"noteName":"C2","velocity":50,"programs":[]},{"track":1,"delta":0,"tick":25261,"byteIndex":10501,"name":"Note on","channel":1,"noteNumber":36,"noteName":"C2","velocity":47,"programs":[]},{"track":1,"delta":0,"tick":25282,"byteIndex":10525,"name":"Note on","channel":1,"noteNumber":42,"noteName":"Gb2","velocity":31,"programs":[]},{"track":1,"delta":0,"tick":25310,"byteIndex":10533,"name":"Note on","channel":1,"noteNumber":42,"noteName":"Gb2","velocity":38,"programs":[]},{"track":1,"delta":22,"tick":25334,"byteIndex":10541,"name":"Note on","channel":1,"noteNumber":36,"noteName":"C2","velocity":35,"programs":[]},{"track":1,"delta":0,"tick":25359,"byteIndex":10565,"name":"Note on","channel":1,"noteNumber":42,"noteName":"Gb2","velocity":27,"programs":[]},{"track":1,"delta":0,"tick":25378,"byteIndex":10577,"name":"Note on","channel":1,"noteNumber":42,"noteName":"Gb2","velocity":27,"programs":[]},{"track":1,"delta":24,"tick":25402,"byteIndex":10581,"name":"Note on","channel":1,"noteNumber":36,"noteName":"C2","velocity":37,"programs":[]},{"track":1,"delta":0,"tick":25431,"byteIndex":10597,"name":"Note on","channel":1,"noteNumber":36,"noteName":"C2","velocity":41,"programs":[]},{"track":1,"delta":0,"tick":25453,"byteIndex":10621,"name":"Note on","channel":1,"noteNumber":36,"noteName":"C2","velocity":33,"programs":[]},{"track":1,"delta":0,"tick":25475,"byteIndex":10637,"name":"Note on","channel":1,"noteNumber":36,"noteName":"C2","velocity":33,"programs":[]},{"track":1,"delta":0,"tick":25499,"byteIndex":10653,"name":"Note on","channel":1,"noteNumber":36,"noteName":"C2","velocity":35,"programs":[]},{"track":1,"delta":0,"tick":25526,"byteIndex":10669,"name":"Note on","channel":1,"noteNumber":36,"noteName":"C2","velocity":57,"programs":[]},{"track":1,"delta":0,"tick":25553,"byteIndex":10693,"name":"Note on","channel":1,"noteNumber":36,"noteName":"C2","velocity":38,"programs":[]},{"track":1,"delta":0,"tick":25570,"byteIndex":10709,"name":"Note on","channel":1,"noteNumber":42,"noteName":"Gb2","velocity":29,"programs":[]},{"track":1,"delta":0,"tick":25597,"byteIndex":10725,"name":"Note on","channel":1,"noteNumber":42,"noteName":"Gb2","velocity":80,"programs":[]},{"track":1,"delta":49,"tick":25646,"byteIndex":10729,"name":"Note on","channel":1,"noteNumber":36,"noteName":"C2","velocity":57,"programs":[]},{"track":1,"delta":0,"tick":25666,"byteIndex":10749,"name":"Note on","channel":1,"noteNumber":42,"noteName":"Gb2","velocity":1,"programs":[]},{"track":1,"delta":0,"tick":25694,"byteIndex":10761,"name":"Note on","channel":1,"noteNumber":42,"noteName":"Gb2","velocity":1,"programs":[]},{"track":1,"delta":23,"tick":25717,"byteIndex":10765,"name":"Note on","channel":1,"noteNumber":36,"noteName":"C2","velocity":54,"programs":[]},{"track":1,"delta":5,"tick":25763,"byteIndex":10789,"name":"Note on","channel":1,"noteNumber":36,"noteName":"C2","velocity":42,"programs":[]},{"track":1,"delta":0,"tick":25785,"byteIndex":10813,"name":"Note on","channel":1,"noteNumber":36,"noteName":"C2","velocity":35,"programs":[]},{"track":1,"delta":0,"tick":25817,"byteIndex":10829,"name":"Note on","channel":1,"noteNumber":36,"noteName":"C2","velocity":57,"programs":[]},{"track":1,"delta":0,"tick":25838,"byteIndex":10853,"name":"Note on","channel":1,"noteNumber":36,"noteName":"C2","velocity":53,"programs":[]},{"track":1,"delta":0,"tick":25885,"byteIndex":10869,"name":"Note on","channel":1,"noteNumber":36,"noteName":"C2","velocity":32,"programs":[]},{"track":1,"delta":0,"tick":25909,"byteIndex":10885,"name":"Note on","channel":1,"noteNumber":36,"noteName":"C2","velocity":68,"programs":[]},{"track":1,"delta":38,"tick":26005,"byteIndex":10913,"name":"Note on","channel":1,"noteNumber":36,"noteName":"C2","velocity":47,"programs":[]},{"track":1,"delta":0,"tick":26027,"byteIndex":10933,"name":"Note on","channel":1,"noteNumber":36,"noteName":"C2","velocity":57,"programs":[]},{"track":1,"delta":0,"tick":26050,"byteIndex":10949,"name":"Note on","channel":1,"noteNumber":42,"noteName":"Gb2","velocity":38,"programs":[]},{"track":1,"delta":20,"tick":26109,"byteIndex":10957,"name":"Note on","channel":1,"noteNumber":36,"noteName":"C2","velocity":44,"programs":[]},{"track":1,"delta":0,"tick":26146,"byteIndex":10981,"name":"Note on","channel":1,"noteNumber":36,"noteName":"C2","velocity":34,"programs":[]},{"track":1,"delta":0,"tick":26223,"byteIndex":11005,"name":"Note on","channel":1,"noteNumber":36,"noteName":"C2","velocity":76,"programs":[]},{"track":1,"delta":0,"tick":26242,"byteIndex":11029,"name":"Note on","channel":1,"noteNumber":36,"noteName":"C2","velocity":33,"programs":[]},{"track":1,"delta":0,"tick":26269,"byteIndex":11045,"name":"Note on","channel":1,"noteNumber":36,"noteName":"C2","velocity":33,"programs":[]},{"track":1,"delta":0,"tick":26294,"byteIndex":11061,"name":"Note on","channel":1,"noteNumber":36,"noteName":"C2","velocity":48,"programs":[]},{"track":1,"delta":0,"tick":26339,"byteIndex":11085,"name":"Note on","channel":1,"noteNumber":42,"noteName":"Gb2","velocity":28,"programs":[]},{"track":1,"delta":19,"tick":26387,"byteIndex":11097,"name":"Note on","channel":1,"noteNumber":36,"noteName":"C2","velocity":52,"programs":[]},{"track":1,"delta":0,"tick":26412,"byteIndex":11117,"name":"Note on","channel":1,"noteNumber":42,"noteName":"Gb2","velocity":1,"programs":[]},{"track":1,"delta":0,"tick":26435,"byteIndex":11129,"name":"Note on","channel":1,"noteNumber":38,"noteName":"D2","velocity":43,"programs":[]},{"track":1,"delta":52,"tick":26487,"byteIndex":11141,"name":"Note on","channel":1,"noteNumber":36,"noteName":"C2","velocity":46,"programs":[]},{"track":1,"delta":0,"tick":26531,"byteIndex":11165,"name":"Note on","channel":1,"noteNumber":36,"noteName":"C2","velocity":32,"programs":[]},{"track":1,"delta":0,"tick":26587,"byteIndex":11189,"name":"Note on","channel":1,"noteNumber":36,"noteName":"C2","velocity":51,"programs":[]},{"track":1,"delta":9,"tick":26628,"byteIndex":11221,"name":"Note on","channel":1,"noteNumber":42,"noteName":"Gb2","velocity":20,"programs":[]},{"track":1,"delta":0,"tick":26653,"byteIndex":11229,"name":"Note on","channel":1,"noteNumber":42,"noteName":"Gb2","velocity":30,"programs":[]},{"track":1,"delta":24,"tick":26677,"byteIndex":11233,"name":"Note on","channel":1,"noteNumber":36,"noteName":"C2","velocity":45,"programs":[]},{"track":1,"delta":0,"tick":26701,"byteIndex":11253,"name":"Note on","channel":1,"noteNumber":36,"noteName":"C2","velocity":38,"programs":[]},{"track":1,"delta":0,"tick":26723,"byteIndex":11269,"name":"Note on","channel":1,"noteNumber":42,"noteName":"Gb2","velocity":22,"programs":[]},{"track":1,"delta":0,"tick":26745,"byteIndex":11281,"name":"Note on","channel":1,"noteNumber":42,"noteName":"Gb2","velocity":41,"programs":[]},{"track":1,"delta":26,"tick":26771,"byteIndex":11285,"name":"Note on","channel":1,"noteNumber":36,"noteName":"C2","velocity":46,"programs":[]},{"track":1,"delta":0,"tick":26817,"byteIndex":11309,"name":"Note on","channel":1,"noteNumber":36,"noteName":"C2","velocity":41,"programs":[]},{"track":1,"delta":0,"tick":26871,"byteIndex":11333,"name":"Note on","channel":1,"noteNumber":36,"noteName":"C2","velocity":42,"programs":[]},{"track":1,"delta":3,"tick":26915,"byteIndex":11357,"name":"Note on","channel":1,"noteNumber":36,"noteName":"C2","velocity":31,"programs":[]},{"track":1,"delta":34,"tick":26966,"byteIndex":11381,"name":"Note on","channel":1,"noteNumber":36,"noteName":"C2","velocity":31,"programs":[]},{"track":1,"delta":0,"tick":26990,"byteIndex":11405,"name":"Note on","channel":1,"noteNumber":36,"noteName":"C2","velocity":51,"programs":[]},{"track":1,"delta":0,"tick":27010,"byteIndex":11421,"name":"Note on","channel":1,"noteNumber":42,"noteName":"Gb2","velocity":47,"programs":[]},{"track":1,"delta":0,"tick":27042,"byteIndex":11429,"name":"Note on","channel":1,"noteNumber":42,"noteName":"Gb2","velocity":49,"programs":[]},{"track":1,"delta":0,"tick":27062,"byteIndex":11437,"name":"Note on","channel":1,"noteNumber":36,"noteName":"C2","velocity":34,"programs":[]},{"track":1,"delta":0,"tick":27106,"byteIndex":11461,"name":"Note on","channel":1,"noteNumber":36,"noteName":"C2","velocity":44,"programs":[]},{"track":1,"delta":18,"tick":27155,"byteIndex":11477,"name":"Note on","channel":1,"noteNumber":36,"noteName":"C2","velocity":42,"programs":[]},{"track":1,"delta":0,"tick":27180,"byteIndex":11501,"name":"Note on","channel":1,"noteNumber":36,"noteName":"C2","velocity":35,"programs":[]},{"track":1,"delta":0,"tick":27203,"byteIndex":11517,"name":"Note on","channel":1,"noteNumber":38,"noteName":"D2","velocity":44,"programs":[]},{"track":1,"delta":0,"tick":27251,"byteIndex":11533,"name":"Note on","channel":1,"noteNumber":36,"noteName":"C2","velocity":39,"programs":[]},{"track":1,"delta":0,"tick":27299,"byteIndex":11557,"name":"Note on","channel":1,"noteNumber":38,"noteName":"D2","velocity":34,"programs":[]},{"track":1,"delta":0,"tick":27350,"byteIndex":11573,"name":"Note on","channel":1,"noteNumber":36,"noteName":"C2","velocity":42,"programs":[]},{"track":1,"delta":0,"tick":27374,"byteIndex":11597,"name":"Note on","channel":1,"noteNumber":36,"noteName":"C2","velocity":29,"programs":[]},{"track":1,"delta":0,"tick":27395,"byteIndex":11613,"name":"Note on","channel":1,"noteNumber":42,"noteName":"Gb2","velocity":28,"programs":[]},{"track":1,"delta":0,"tick":27423,"byteIndex":11621,"name":"Note on","channel":1,"noteNumber":42,"noteName":"Gb2","velocity":35,"programs":[]},{"track":1,"delta":0,"tick":27446,"byteIndex":11629,"name":"Note on","channel":1,"noteNumber":36,"noteName":"C2","velocity":46,"programs":[]},{"track":1,"delta":0,"tick":27468,"byteIndex":11653,"name":"Note on","channel":1,"noteNumber":36,"noteName":"C2","velocity":29,"programs":[]},{"track":1,"delta":0,"tick":27491,"byteIndex":11677,"name":"Note on","channel":1,"noteNumber":42,"noteName":"Gb2","velocity":20,"programs":[]},{"track":1,"delta":0,"tick":27517,"byteIndex":11685,"name":"Note on","channel":1,"noteNumber":42,"noteName":"Gb2","velocity":58,"programs":[]},{"track":1,"delta":0,"tick":27539,"byteIndex":11693,"name":"Note on","channel":1,"noteNumber":36,"noteName":"C2","velocity":42,"programs":[]},{"track":1,"delta":0,"tick":27565,"byteIndex":11717,"name":"Note on","channel":1,"noteNumber":36,"noteName":"C2","velocity":41,"programs":[]},{"track":1,"delta":0,"tick":27586,"byteIndex":11733,"name":"Note on","channel":1,"noteNumber":42,"noteName":"Gb2","velocity":38,"programs":[]},{"track":1,"delta":53,"tick":27644,"byteIndex":11741,"name":"Note on","channel":1,"noteNumber":36,"noteName":"C2","velocity":34,"programs":[]},{"track":1,"delta":0,"tick":27682,"byteIndex":11765,"name":"Note on","channel":1,"noteNumber":36,"noteName":"C2","velocity":29,"programs":[]},{"track":1,"delta":0,"tick":27736,"byteIndex":11789,"name":"Note on","channel":1,"noteNumber":36,"noteName":"C2","velocity":36,"programs":[]},{"track":1,"delta":0,"tick":27761,"byteIndex":11813,"name":"Note on","channel":1,"noteNumber":36,"noteName":"C2","velocity":39,"programs":[]},{"track":1,"delta":0,"tick":27777,"byteIndex":11829,"name":"Note on","channel":1,"noteNumber":38,"noteName":"D2","velocity":35,"programs":[]},{"track":1,"delta":0,"tick":27804,"byteIndex":11845,"name":"Note on","channel":1,"noteNumber":38,"noteName":"D2","velocity":51,"programs":[]},{"track":1,"delta":0,"tick":27827,"byteIndex":11861,"name":"Note on","channel":1,"noteNumber":36,"noteName":"C2","velocity":29,"programs":[]},{"track":1,"delta":0,"tick":27875,"byteIndex":11885,"name":"Note on","channel":1,"noteNumber":36,"noteName":"C2","velocity":33,"programs":[]},{"track":1,"delta":0,"tick":27897,"byteIndex":11909,"name":"Note on","channel":1,"noteNumber":38,"noteName":"D2","velocity":35,"programs":[]},{"track":1,"delta":0,"tick":27923,"byteIndex":11929,"name":"Note on","channel":1,"noteNumber":38,"noteName":"D2","velocity":41,"programs":[]},{"track":1,"delta":0,"tick":27947,"byteIndex":11945,"name":"Note on","channel":1,"noteNumber":38,"noteName":"D2","velocity":39,"programs":[]},{"track":1,"delta":0,"tick":27970,"byteIndex":11961,"name":"Note on","channel":1,"noteNumber":38,"noteName":"D2","velocity":39,"programs":[]},{"track":1,"delta":22,"tick":27992,"byteIndex":11973,"name":"Note on","channel":1,"noteNumber":36,"noteName":"C2","velocity":35,"programs":[]},{"track":1,"delta":0,"tick":28021,"byteIndex":11997,"name":"Note on","channel":1,"noteNumber":36,"noteName":"C2","velocity":34,"programs":[]},{"track":1,"delta":4,"tick":28066,"byteIndex":12021,"name":"Note on","channel":1,"noteNumber":36,"noteName":"C2","velocity":35,"programs":[]},{"track":1,"delta":0,"tick":28119,"byteIndex":12045,"name":"Note on","channel":1,"noteNumber":36,"noteName":"C2","velocity":35,"programs":[]},{"track":1,"delta":0,"tick":28142,"byteIndex":12069,"name":"Note on","channel":1,"noteNumber":36,"noteName":"C2","velocity":49,"programs":[]},{"track":1,"delta":0,"tick":28163,"byteIndex":12085,"name":"Note on","channel":1,"noteNumber":42,"noteName":"Gb2","velocity":19,"programs":[]},{"track":1,"delta":0,"tick":28190,"byteIndex":12093,"name":"Note on","channel":1,"noteNumber":42,"noteName":"Gb2","velocity":28,"programs":[]},{"track":1,"delta":0,"tick":28210,"byteIndex":12101,"name":"Note on","channel":1,"noteNumber":36,"noteName":"C2","velocity":31,"programs":[]},{"track":1,"delta":0,"tick":28259,"byteIndex":12125,"name":"Note on","channel":1,"noteNumber":36,"noteName":"C2","velocity":30,"programs":[]},{"track":1,"delta":0,"tick":28307,"byteIndex":12149,"name":"Note on","channel":1,"noteNumber":36,"noteName":"C2","velocity":37,"programs":[]},{"track":1,"delta":0,"tick":28333,"byteIndex":12173,"name":"Note on","channel":1,"noteNumber":36,"noteName":"C2","velocity":30,"programs":[]},{"track":1,"delta":0,"tick":28355,"byteIndex":12197,"name":"Note on","channel":1,"noteNumber":42,"noteName":"Gb2","velocity":31,"programs":[]},{"track":1,"delta":52,"tick":28410,"byteIndex":12205,"name":"Note on","channel":1,"noteNumber":36,"noteName":"C2","velocity":31,"programs":[]},{"track":1,"delta":0,"tick":28450,"byteIndex":12229,"name":"Note on","channel":1,"noteNumber":42,"noteName":"Gb2","velocity":67,"programs":[]},{"track":1,"delta":0,"tick":28525,"byteIndex":12237,"name":"Note on","channel":1,"noteNumber":36,"noteName":"C2","velocity":33,"programs":[]},{"track":1,"delta":0,"tick":28545,"byteIndex":12261,"name":"Note on","channel":1,"noteNumber":38,"noteName":"D2","velocity":35,"programs":[]},{"track":1,"delta":0,"tick":28578,"byteIndex":12277,"name":"Note on","channel":1,"noteNumber":42,"noteName":"Gb2","velocity":43,"programs":[]},{"track":1,"delta":0,"tick":28599,"byteIndex":12285,"name":"Note on","channel":1,"noteNumber":36,"noteName":"C2","velocity":46,"programs":[]},{"track":1,"delta":0,"tick":28642,"byteIndex":12317,"name":"Note on","channel":1,"noteNumber":42,"noteName":"Gb2","velocity":28,"programs":[]},{"track":1,"delta":49,"tick":28691,"byteIndex":12321,"name":"Note on","channel":1,"noteNumber":38,"noteName":"D2","velocity":40,"programs":[]},{"track":1,"delta":0,"tick":28721,"byteIndex":12337,"name":"Note on","channel":1,"noteNumber":38,"noteName":"D2","velocity":41,"programs":[]},{"track":1,"delta":0,"tick":28739,"byteIndex":12353,"name":"Note on","channel":1,"noteNumber":38,"noteName":"D2","velocity":39,"programs":[]},{"track":1,"delta":0,"tick":28791,"byteIndex":12369,"name":"Note on","channel":1,"noteNumber":38,"noteName":"D2","velocity":40,"programs":[]},{"track":1,"delta":0,"tick":28816,"byteIndex":12385,"name":"Note on","channel":1,"noteNumber":38,"noteName":"D2","velocity":36,"programs":[]},{"track":1,"delta":0,"tick":28835,"byteIndex":12401,"name":"Note on","channel":1,"noteNumber":38,"noteName":"D2","velocity":94,"programs":[]},{"track":1,"delta":0,"tick":28862,"byteIndex":12417,"name":"Note on","channel":1,"noteNumber":38,"noteName":"D2","velocity":78,"programs":[]},{"track":1,"delta":24,"tick":28886,"byteIndex":12429,"name":"Note on","channel":1,"noteNumber":36,"noteName":"C2","velocity":32,"programs":[]},{"track":1,"delta":0,"tick":28909,"byteIndex":12453,"name":"Note on","channel":1,"noteNumber":36,"noteName":"C2","velocity":70,"programs":[]},{"track":1,"delta":0,"tick":28934,"byteIndex":12469,"name":"Note on","channel":1,"noteNumber":36,"noteName":"C2","velocity":31,"programs":[]},{"track":1,"delta":0,"tick":28956,"byteIndex":12485,"name":"Note on","channel":1,"noteNumber":42,"noteName":"Gb2","velocity":35,"programs":[]},{"track":1,"delta":0,"tick":28982,"byteIndex":12493,"name":"Note on","channel":1,"noteNumber":36,"noteName":"C2","velocity":29,"programs":[]},{"track":1,"delta":0,"tick":29004,"byteIndex":12517,"name":"Note on","channel":1,"noteNumber":36,"noteName":"C2","velocity":41,"programs":[]},{"track":1,"delta":0,"tick":29031,"byteIndex":12541,"name":"Note on","channel":1,"noteNumber":42,"noteName":"Gb2","velocity":24,"programs":[]},{"track":1,"delta":0,"tick":29059,"byteIndex":12549,"name":"Note on","channel":1,"noteNumber":42,"noteName":"Gb2","velocity":83,"programs":[]},{"track":1,"delta":11,"tick":29077,"byteIndex":12557,"name":"Note on","channel":1,"noteNumber":36,"noteName":"C2","velocity":45,"programs":[]},{"track":1,"delta":0,"tick":29100,"byteIndex":12581,"name":"Note on","channel":1,"noteNumber":36,"noteName":"C2","velocity":40,"programs":[]},{"track":1,"delta":0,"tick":29123,"byteIndex":12597,"name":"Note on","channel":1,"noteNumber":42,"noteName":"Gb2","velocity":25,"programs":[]},{"track":1,"delta":0,"tick":29149,"byteIndex":12605,"name":"Note on","channel":1,"noteNumber":42,"noteName":"Gb2","velocity":32,"programs":[]},{"track":1,"delta":24,"tick":29175,"byteIndex":12613,"name":"Note on","channel":1,"noteNumber":36,"noteName":"C2","velocity":46,"programs":[]},{"track":1,"delta":0,"tick":29217,"byteIndex":12637,"name":"Note on","channel":1,"noteNumber":36,"noteName":"C2","velocity":33,"programs":[]},{"track":1,"delta":0,"tick":29274,"byteIndex":12661,"name":"Note on","channel":1,"noteNumber":36,"noteName":"C2","velocity":39,"programs":[]},{"track":1,"delta":0,"tick":29293,"byteIndex":12685,"name":"Note on","channel":1,"noteNumber":36,"noteName":"C2","velocity":32,"programs":[]},{"track":1,"delta":0,"tick":29314,"byteIndex":12701,"name":"Note on","channel":1,"noteNumber":38,"noteName":"D2","velocity":39,"programs":[]},{"track":1,"delta":0,"tick":29340,"byteIndex":12717,"name":"Note on","channel":1,"noteNumber":36,"noteName":"C2","velocity":30,"programs":[]},{"track":1,"delta":0,"tick":29367,"byteIndex":12733,"name":"Note on","channel":1,"noteNumber":36,"noteName":"C2","velocity":29,"programs":[]},{"track":1,"delta":0,"tick":29390,"byteIndex":12757,"name":"Note on","channel":1,"noteNumber":42,"noteName":"Gb2","velocity":5,"programs":[]},{"track":1,"delta":0,"tick":29410,"byteIndex":12765,"name":"Note on","channel":1,"noteNumber":42,"noteName":"Gb2","velocity":28,"programs":[]},{"track":1,"delta":0,"tick":29439,"byteIndex":12777,"name":"Note on","channel":1,"noteNumber":42,"noteName":"Gb2","velocity":63,"programs":[]},{"track":1,"delta":20,"tick":29459,"byteIndex":12781,"name":"Note on","channel":1,"noteNumber":36,"noteName":"C2","velocity":29,"programs":[]},{"track":1,"delta":0,"tick":29484,"byteIndex":12805,"name":"Note on","channel":1,"noteNumber":36,"noteName":"C2","velocity":31,"programs":[]},{"track":1,"delta":0,"tick":29506,"byteIndex":12821,"name":"Note on","channel":1,"noteNumber":36,"noteName":"C2","velocity":32,"programs":[]},{"track":1,"delta":0,"tick":29560,"byteIndex":12845,"name":"Note on","channel":1,"noteNumber":36,"noteName":"C2","velocity":31,"programs":[]},{"track":1,"delta":0,"tick":29603,"byteIndex":12869,"name":"Note on","channel":1,"noteNumber":36,"noteName":"C2","velocity":29,"programs":[]},{"track":1,"delta":0,"tick":29651,"byteIndex":12893,"name":"Note on","channel":1,"noteNumber":36,"noteName":"C2","velocity":39,"programs":[]},{"track":1,"delta":0,"tick":29679,"byteIndex":12917,"name":"Note on","channel":1,"noteNumber":36,"noteName":"C2","velocity":51,"programs":[]},{"track":1,"delta":0,"tick":29698,"byteIndex":12933,"name":"Note on","channel":1,"noteNumber":42,"noteName":"Gb2","velocity":13,"programs":[]},{"track":1,"delta":0,"tick":29725,"byteIndex":12941,"name":"Note on","channel":1,"noteNumber":42,"noteName":"Gb2","velocity":24,"programs":[]},{"track":1,"delta":0,"tick":29747,"byteIndex":12949,"name":"Note on","channel":1,"noteNumber":36,"noteName":"C2","velocity":38,"programs":[]},{"track":1,"delta":0,"tick":29776,"byteIndex":12973,"name":"Note on","channel":1,"noteNumber":36,"noteName":"C2","velocity":34,"programs":[]},{"track":1,"delta":0,"tick":29796,"byteIndex":12997,"name":"Note on","channel":1,"noteNumber":42,"noteName":"Gb2","velocity":20,"programs":[]},{"track":1,"delta":0,"tick":29820,"byteIndex":13009,"name":"Note on","channel":1,"noteNumber":42,"noteName":"Gb2","velocity":72,"programs":[]},{"track":1,"delta":25,"tick":29845,"byteIndex":13013,"name":"Note on","channel":1,"noteNumber":36,"noteName":"C2","velocity":45,"programs":[]},{"track":1,"delta":0,"tick":29869,"byteIndex":13037,"name":"Note on","channel":1,"noteNumber":36,"noteName":"C2","velocity":33,"programs":[]},{"track":1,"delta":0,"tick":29890,"byteIndex":13053,"name":"Note on","channel":1,"noteNumber":38,"noteName":"D2","velocity":43,"programs":[]},{"track":1,"delta":0,"tick":29922,"byteIndex":13069,"name":"Note on","channel":1,"noteNumber":42,"noteName":"Gb2","velocity":26,"programs":[]},{"track":1,"delta":0,"tick":29945,"byteIndex":13077,"name":"Note on","channel":1,"noteNumber":36,"noteName":"C2","velocity":43,"programs":[]},{"track":1,"delta":0,"tick":29985,"byteIndex":13101,"name":"Note on","channel":1,"noteNumber":36,"noteName":"C2","velocity":29,"programs":[]},{"track":1,"delta":0,"tick":30041,"byteIndex":13125,"name":"Note on","channel":1,"noteNumber":36,"noteName":"C2","velocity":38,"programs":[]},{"track":1,"delta":0,"tick":30062,"byteIndex":13149,"name":"Note on","channel":1,"noteNumber":36,"noteName":"C2","velocity":43,"programs":[]},{"track":1,"delta":0,"tick":30083,"byteIndex":13165,"name":"Note on","channel":1,"noteNumber":42,"noteName":"Gb2","velocity":30,"programs":[]},{"track":1,"delta":0,"tick":30109,"byteIndex":13173,"name":"Note on","channel":1,"noteNumber":42,"noteName":"Gb2","velocity":41,"programs":[]},{"track":1,"delta":0,"tick":30134,"byteIndex":13181,"name":"Note on","channel":1,"noteNumber":36,"noteName":"C2","velocity":36,"programs":[]},{"track":1,"delta":0,"tick":30157,"byteIndex":13205,"name":"Note on","channel":1,"noteNumber":36,"noteName":"C2","velocity":35,"programs":[]},{"track":1,"delta":0,"tick":30178,"byteIndex":13221,"name":"Note on","channel":1,"noteNumber":42,"noteName":"Gb2","velocity":24,"programs":[]},{"track":1,"delta":46,"tick":30227,"byteIndex":13229,"name":"Note on","channel":1,"noteNumber":36,"noteName":"C2","velocity":42,"programs":[]},{"track":1,"delta":0,"tick":30252,"byteIndex":13253,"name":"Note on","channel":1,"noteNumber":36,"noteName":"C2","velocity":29,"programs":[]},{"track":1,"delta":0,"tick":30275,"byteIndex":13269,"name":"Note on","channel":1,"noteNumber":38,"noteName":"D2","velocity":45,"programs":[]},{"track":1,"delta":0,"tick":30328,"byteIndex":13285,"name":"Note on","channel":1,"noteNumber":36,"noteName":"C2","velocity":41,"programs":[]},{"track":1,"delta":0,"tick":30370,"byteIndex":13309,"name":"Note on","channel":1,"noteNumber":38,"noteName":"D2","velocity":35,"programs":[]},{"track":1,"delta":0,"tick":30422,"byteIndex":13325,"name":"Note on","channel":1,"noteNumber":36,"noteName":"C2","velocity":43,"programs":[]},{"track":1,"delta":0,"tick":30447,"byteIndex":13349,"name":"Note on","channel":1,"noteNumber":36,"noteName":"C2","velocity":38,"programs":[]},{"track":1,"delta":0,"tick":30466,"byteIndex":13365,"name":"Note on","channel":1,"noteNumber":42,"noteName":"Gb2","velocity":13,"programs":[]},{"track":1,"delta":0,"tick":30492,"byteIndex":13373,"name":"Note on","channel":1,"noteNumber":42,"noteName":"Gb2","velocity":29,"programs":[]},{"track":1,"delta":0,"tick":30519,"byteIndex":13381,"name":"Note on","channel":1,"noteNumber":36,"noteName":"C2","velocity":39,"programs":[]},{"track":1,"delta":0,"tick":30543,"byteIndex":13405,"name":"Note on","channel":1,"noteNumber":36,"noteName":"C2","velocity":29,"programs":[]},{"track":1,"delta":0,"tick":30562,"byteIndex":13429,"name":"Note on","channel":1,"noteNumber":42,"noteName":"Gb2","velocity":17,"programs":[]},{"track":1,"delta":0,"tick":30588,"byteIndex":13437,"name":"Note on","channel":1,"noteNumber":42,"noteName":"Gb2","velocity":34,"programs":[]},{"track":1,"delta":4,"tick":30609,"byteIndex":13445,"name":"Note on","channel":1,"noteNumber":36,"noteName":"C2","velocity":43,"programs":[]},{"track":1,"delta":0,"tick":30658,"byteIndex":13477,"name":"Note on","channel":1,"noteNumber":42,"noteName":"Gb2","velocity":57,"programs":[]},{"track":1,"delta":0,"tick":30689,"byteIndex":13485,"name":"Note on","channel":1,"noteNumber":42,"noteName":"Gb2","velocity":53,"programs":[]},{"track":1,"delta":23,"tick":30712,"byteIndex":13489,"name":"Note on","channel":1,"noteNumber":36,"noteName":"C2","velocity":53,"programs":[]},{"track":1,"delta":0,"tick":30754,"byteIndex":13513,"name":"Note on","channel":1,"noteNumber":38,"noteName":"D2","velocity":49,"programs":[]},{"track":1,"delta":22,"tick":30776,"byteIndex":13525,"name":"Note on","channel":1,"noteNumber":36,"noteName":"C2","velocity":46,"programs":[]},{"track":1,"delta":0,"tick":30809,"byteIndex":13541,"name":"Note on","channel":1,"noteNumber":36,"noteName":"C2","velocity":57,"programs":[]},{"track":1,"delta":0,"tick":30829,"byteIndex":13565,"name":"Note on","channel":1,"noteNumber":36,"noteName":"C2","velocity":61,"programs":[]},{"track":1,"delta":0,"tick":30851,"byteIndex":13581,"name":"Note on","channel":1,"noteNumber":42,"noteName":"Gb2","velocity":58,"programs":[]},{"track":1,"delta":0,"tick":30880,"byteIndex":13589,"name":"Note on","channel":1,"noteNumber":42,"noteName":"Gb2","velocity":65,"programs":[]},{"track":1,"delta":0,"tick":30898,"byteIndex":13597,"name":"Note on","channel":1,"noteNumber":36,"noteName":"C2","velocity":78,"programs":[]},{"track":1,"delta":0,"tick":30947,"byteIndex":13621,"name":"Note on","channel":1,"noteNumber":36,"noteName":"C2","velocity":57,"programs":[]},{"track":1,"delta":0,"tick":30971,"byteIndex":13637,"name":"Note on","channel":1,"noteNumber":42,"noteName":"Gb2","velocity":87,"programs":[]},{"track":1,"delta":11,"tick":30999,"byteIndex":13645,"name":"Note on","channel":1,"noteNumber":36,"noteName":"C2","velocity":52,"programs":[]},{"track":1,"delta":0,"tick":31020,"byteIndex":13669,"name":"Note on","channel":1,"noteNumber":36,"noteName":"C2","velocity":69,"programs":[]},{"track":1,"delta":0,"tick":31043,"byteIndex":13685,"name":"Note on","channel":1,"noteNumber":38,"noteName":"D2","velocity":46,"programs":[]},{"track":1,"delta":0,"tick":31061,"byteIndex":13701,"name":"Note on","channel":1,"noteNumber":42,"noteName":"Gb2","velocity":59,"programs":[]},{"track":1,"delta":0,"tick":31101,"byteIndex":13709,"name":"Note on","channel":1,"noteNumber":36,"noteName":"C2","velocity":46,"programs":[]},{"track":1,"delta":0,"tick":31139,"byteIndex":13733,"name":"Note on","channel":1,"noteNumber":36,"noteName":"C2","velocity":65,"programs":[]},{"track":1,"delta":0,"tick":31189,"byteIndex":13757,"name":"Note on","channel":1,"noteNumber":36,"noteName":"C2","velocity":61,"programs":[]},{"track":1,"delta":0,"tick":31217,"byteIndex":13781,"name":"Note on","channel":1,"noteNumber":36,"noteName":"C2","velocity":59,"programs":[]},{"track":1,"delta":0,"tick":31234,"byteIndex":13797,"name":"Note on","channel":1,"noteNumber":42,"noteName":"Gb2","velocity":1,"programs":[]},{"track":1,"delta":0,"tick":31282,"byteIndex":13805,"name":"Note on","channel":1,"noteNumber":38,"noteName":"D2","velocity":43,"programs":[]},{"track":1,"delta":0,"tick":31331,"byteIndex":13821,"name":"Note on","channel":1,"noteNumber":42,"noteName":"Gb2","velocity":1,"programs":[]},{"track":1,"delta":0,"tick":31354,"byteIndex":13829,"name":"Note on","channel":1,"noteNumber":42,"noteName":"Gb2","velocity":1,"programs":[]},{"track":1,"delta":0,"tick":31379,"byteIndex":13841,"name":"Note on","channel":1,"noteNumber":42,"noteName":"Gb2","velocity":1,"programs":[]},{"track":1,"delta":0,"tick":31405,"byteIndex":13849,"name":"Note on","channel":1,"noteNumber":42,"noteName":"Gb2","velocity":1,"programs":[]},{"track":1,"delta":0,"tick":31426,"byteIndex":13857,"name":"Note on","channel":1,"noteNumber":42,"noteName":"Gb2","velocity":1,"programs":[]},{"track":1,"delta":0,"tick":31458,"byteIndex":13865,"name":"Note on","channel":1,"noteNumber":42,"noteName":"Gb2","velocity":1,"programs":[]},{"track":1,"delta":0,"tick":31477,"byteIndex":13873,"name":"Note on","channel":1,"noteNumber":42,"noteName":"Gb2","velocity":1,"programs":[]},{"track":1,"delta":0,"tick":31523,"byteIndex":13881,"name":"Note on","channel":1,"noteNumber":42,"noteName":"Gb2","velocity":2,"programs":[]},{"track":1,"delta":0,"tick":31574,"byteIndex":13889,"name":"Note on","channel":1,"noteNumber":42,"noteName":"Gb2","velocity":1,"programs":[]},{"track":1,"delta":0,"tick":31598,"byteIndex":13897,"name":"Note on","channel":1,"noteNumber":42,"noteName":"Gb2","velocity":1,"programs":[]},{"track":1,"delta":0,"tick":31619,"byteIndex":13905,"name":"Note on","channel":1,"noteNumber":42,"noteName":"Gb2","velocity":1,"programs":[]},{"track":1,"delta":0,"tick":31645,"byteIndex":13913,"name":"Note on","channel":1,"noteNumber":42,"noteName":"Gb2","velocity":1,"programs":[]},{"track":1,"delta":0,"tick":31666,"byteIndex":13921,"name":"Note on","channel":1,"noteNumber":42,"noteName":"Gb2","velocity":1,"programs":[]},{"track":1,"delta":0,"tick":31715,"byteIndex":13929,"name":"Note on","channel":1,"noteNumber":42,"noteName":"Gb2","velocity":1,"programs":[]},{"track":1,"delta":0,"tick":31739,"byteIndex":13937,"name":"Note on","channel":1,"noteNumber":42,"noteName":"Gb2","velocity":1,"programs":[]},{"track":1,"delta":0,"tick":31768,"byteIndex":13945,"name":"Note on","channel":1,"noteNumber":42,"noteName":"Gb2","velocity":1,"programs":[]},{"track":1,"delta":0,"tick":31789,"byteIndex":13953,"name":"Note on","channel":1,"noteNumber":42,"noteName":"Gb2","velocity":1,"programs":[]},{"track":1,"delta":0,"tick":31811,"byteIndex":13961,"name":"Note on","channel":1,"noteNumber":42,"noteName":"Gb2","velocity":1,"programs":[]},{"track":1,"delta":0,"tick":31833,"byteIndex":13969,"name":"Note on","channel":1,"noteNumber":42,"noteName":"Gb2","velocity":1,"programs":[]},{"track":1,"delta":0,"tick":31863,"byteIndex":13977,"name":"Note on","channel":1,"noteNumber":42,"noteName":"Gb2","velocity":1,"programs":[]},{"track":1,"delta":0,"tick":31905,"byteIndex":13985,"name":"Note on","channel":1,"noteNumber":42,"noteName":"Gb2","velocity":1,"programs":[]},{"track":1,"delta":0,"tick":31939,"byteIndex":13993,"name":"Note on","channel":1,"noteNumber":42,"noteName":"Gb2","velocity":1,"programs":[]},{"track":1,"delta":16,"tick":31955,"byteIndex":13997,"name":"Note on","channel":1,"noteNumber":36,"noteName":"C2","velocity":83,"programs":[]},{"track":1,"delta":0,"tick":31986,"byteIndex":14021,"name":"Note on","channel":1,"noteNumber":36,"noteName":"C2","velocity":81,"programs":[]},{"track":1,"delta":0,"tick":32003,"byteIndex":14037,"name":"Note on","channel":1,"noteNumber":42,"noteName":"Gb2","velocity":1,"programs":[]},{"track":1,"delta":0,"tick":32024,"byteIndex":14045,"name":"Note on","channel":1,"noteNumber":42,"noteName":"Gb2","velocity":1,"programs":[]},{"track":1,"delta":0,"tick":32051,"byteIndex":14057,"name":"Note on","channel":1,"noteNumber":42,"noteName":"Gb2","velocity":1,"programs":[]},{"track":1,"delta":0,"tick":32099,"byteIndex":14065,"name":"Note on","channel":1,"noteNumber":42,"noteName":"Gb2","velocity":1,"programs":[]},{"track":1,"delta":0,"tick":32120,"byteIndex":14073,"name":"Note on","channel":1,"noteNumber":42,"noteName":"Gb2","velocity":1,"programs":[]},{"track":1,"delta":27,"tick":32147,"byteIndex":14077,"name":"Note on","channel":1,"noteNumber":36,"noteName":"C2","velocity":80,"programs":[]},{"track":1,"delta":0,"tick":32173,"byteIndex":14101,"name":"Note on","channel":1,"noteNumber":36,"noteName":"C2","velocity":58,"programs":[]},{"track":1,"delta":0,"tick":32194,"byteIndex":14117,"name":"Note on","channel":1,"noteNumber":42,"noteName":"Gb2","velocity":1,"programs":[]},{"track":1,"delta":0,"tick":32195,"byteIndex":14125,"name":"Note on","channel":1,"noteNumber":42,"noteName":"Gb2","velocity":1,"programs":[]},{"track":1,"delta":0,"tick":32295,"byteIndex":14137,"name":"Note on","channel":1,"noteNumber":42,"noteName":"Gb2","velocity":2,"programs":[]},{"track":1,"delta":54,"tick":32349,"byteIndex":14141,"name":"Note on","channel":1,"noteNumber":36,"noteName":"C2","velocity":51,"programs":[]},{"track":1,"delta":0,"tick":32475,"byteIndex":14169,"name":"Note on","channel":1,"noteNumber":42,"noteName":"Gb2","velocity":1,"programs":[]},{"track":1,"delta":0,"tick":32505,"byteIndex":14177,"name":"Note on","channel":1,"noteNumber":42,"noteName":"Gb2","velocity":1,"programs":[]},{"track":1,"delta":26,"tick":32531,"byteIndex":14181,"name":"Note on","channel":1,"noteNumber":36,"noteName":"C2","velocity":47,"programs":[]},{"track":1,"delta":116,"tick":32776,"byteIndex":14213,"name":"Note on","channel":1,"noteNumber":36,"noteName":"C2","velocity":72,"programs":[]},{"track":1,"delta":0,"tick":32872,"byteIndex":14229,"name":"Note on","channel":1,"noteNumber":38,"noteName":"D2","velocity":32,"programs":[]},{"track":1,"delta":44,"tick":32919,"byteIndex":14245,"name":"Note on","channel":1,"noteNumber":36,"noteName":"C2","velocity":60,"programs":[]},{"track":1,"delta":0,"tick":32963,"byteIndex":14269,"name":"Note on","channel":1,"noteNumber":36,"noteName":"C2","velocity":62,"programs":[]},{"track":1,"delta":168,"tick":33154,"byteIndex":14293,"name":"Note on","channel":1,"noteNumber":36,"noteName":"C2","velocity":78,"programs":[]},{"track":1,"delta":0,"tick":33207,"byteIndex":14318,"name":"Note on","channel":1,"noteNumber":38,"noteName":"D2","velocity":28,"programs":[]},{"track":1,"delta":0,"tick":33243,"byteIndex":14334,"name":"Note on","channel":1,"noteNumber":38,"noteName":"D2","velocity":18,"programs":[]},{"track":1,"delta":0,"tick":33274,"byteIndex":14350,"name":"Note on","channel":1,"noteNumber":38,"noteName":"D2","velocity":15,"programs":[]},{"track":1,"delta":0,"tick":33296,"byteIndex":14366,"name":"Note on","channel":1,"noteNumber":36,"noteName":"C2","velocity":65,"programs":[]},{"track":1,"delta":1,"tick":33346,"byteIndex":14390,"name":"Note on","channel":1,"noteNumber":36,"noteName":"C2","velocity":48,"programs":[]},{"track":1,"delta":167,"tick":33539,"byteIndex":14406,"name":"Note on","channel":1,"noteNumber":36,"noteName":"C2","velocity":63,"programs":[]},{"track":1,"delta":0,"tick":33640,"byteIndex":14431,"name":"Note on","channel":1,"noteNumber":38,"noteName":"D2","velocity":17,"programs":[]},{"track":1,"delta":4,"tick":33688,"byteIndex":14447,"name":"Note on","channel":1,"noteNumber":36,"noteName":"C2","velocity":51,"programs":[]},{"track":1,"delta":0,"tick":33729,"byteIndex":14471,"name":"Note on","channel":1,"noteNumber":36,"noteName":"C2","velocity":50,"programs":[]},{"track":1,"delta":0,"tick":33809,"byteIndex":14491,"name":"Note on","channel":1,"noteNumber":38,"noteName":"D2","velocity":16,"programs":[]},{"track":1,"delta":114,"tick":33923,"byteIndex":14503,"name":"Note on","channel":1,"noteNumber":36,"noteName":"C2","velocity":62,"programs":[]},{"track":1,"delta":0,"tick":33976,"byteIndex":14531,"name":"Note on","channel":1,"noteNumber":42,"noteName":"Gb2","velocity":1,"programs":[]},{"track":1,"delta":0,"tick":34011,"byteIndex":14539,"name":"Note on","channel":1,"noteNumber":38,"noteName":"D2","velocity":21,"programs":[]},{"track":1,"delta":53,"tick":34064,"byteIndex":14551,"name":"Note on","channel":1,"noteNumber":36,"noteName":"C2","velocity":67,"programs":[]},{"track":1,"delta":9,"tick":34114,"byteIndex":14575,"name":"Note on","channel":1,"noteNumber":36,"noteName":"C2","velocity":52,"programs":[]},{"track":1,"delta":175,"tick":34307,"byteIndex":14599,"name":"Note on","channel":1,"noteNumber":36,"noteName":"C2","velocity":49,"programs":[]},{"track":1,"delta":0,"tick":34408,"byteIndex":14628,"name":"Note on","channel":1,"noteNumber":38,"noteName":"D2","velocity":39,"programs":[]},{"track":1,"delta":39,"tick":34447,"byteIndex":14640,"name":"Note on","channel":1,"noteNumber":36,"noteName":"C2","velocity":44,"programs":[]},{"track":1,"delta":0,"tick":34499,"byteIndex":14668,"name":"Note on","channel":1,"noteNumber":42,"noteName":"Gb2","velocity":2,"programs":[]},{"track":1,"delta":0,"tick":34579,"byteIndex":14676,"name":"Note on","channel":1,"noteNumber":38,"noteName":"D2","velocity":17,"programs":[]},{"track":1,"delta":39,"tick":34691,"byteIndex":14696,"name":"Note on","channel":1,"noteNumber":36,"noteName":"C2","velocity":71,"programs":[]},{"track":1,"delta":56,"tick":34778,"byteIndex":14708,"name":"Note on","channel":1,"noteNumber":38,"noteName":"D2","velocity":17,"programs":[]},{"track":1,"delta":0,"tick":34795,"byteIndex":14724,"name":"Note on","channel":1,"noteNumber":38,"noteName":"D2","velocity":22,"programs":[]},{"track":1,"delta":0,"tick":34809,"byteIndex":14740,"name":"Note on","channel":1,"noteNumber":42,"noteName":"Gb2","velocity":9,"programs":[]},{"track":1,"delta":40,"tick":34849,"byteIndex":14744,"name":"Note on","channel":1,"noteNumber":36,"noteName":"C2","velocity":56,"programs":[]},{"track":1,"delta":0,"tick":34883,"byteIndex":14768,"name":"Note on","channel":1,"noteNumber":36,"noteName":"C2","velocity":60,"programs":[]},{"track":1,"delta":0,"tick":34985,"byteIndex":14796,"name":"Note on","channel":1,"noteNumber":38,"noteName":"D2","velocity":18,"programs":[]},{"track":1,"delta":38,"tick":35023,"byteIndex":14808,"name":"Note on","channel":1,"noteNumber":36,"noteName":"C2","velocity":54,"programs":[]},{"track":1,"delta":0,"tick":35075,"byteIndex":14832,"name":"Note on","channel":1,"noteNumber":36,"noteName":"C2","velocity":61,"programs":[]},{"track":1,"delta":0,"tick":35121,"byteIndex":14856,"name":"Note on","channel":1,"noteNumber":38,"noteName":"D2","velocity":27,"programs":[]},{"track":1,"delta":0,"tick":35171,"byteIndex":14872,"name":"Note on","channel":1,"noteNumber":38,"noteName":"D2","velocity":25,"programs":[]},{"track":1,"delta":1,"tick":35215,"byteIndex":14888,"name":"Note on","channel":1,"noteNumber":36,"noteName":"C2","velocity":57,"programs":[]},{"track":1,"delta":9,"tick":35266,"byteIndex":14912,"name":"Note on","channel":1,"noteNumber":36,"noteName":"C2","velocity":52,"programs":[]},{"track":1,"delta":114,"tick":35399,"byteIndex":14936,"name":"Note on","channel":1,"noteNumber":36,"noteName":"C2","velocity":51,"programs":[]},{"track":1,"delta":0,"tick":35459,"byteIndex":14964,"name":"Note on","channel":1,"noteNumber":38,"noteName":"D2","velocity":17,"programs":[]},{"track":1,"delta":152,"tick":35611,"byteIndex":14976,"name":"Note on","channel":1,"noteNumber":36,"noteName":"C2","velocity":44,"programs":[]},{"track":1,"delta":0,"tick":35651,"byteIndex":15001,"name":"Note on","channel":1,"noteNumber":36,"noteName":"C2","velocity":41,"programs":[]},{"track":1,"delta":115,"tick":35790,"byteIndex":15025,"name":"Note on","channel":1,"noteNumber":36,"noteName":"C2","velocity":49,"programs":[]},{"track":1,"delta":0,"tick":35841,"byteIndex":15049,"name":"Note on","channel":1,"noteNumber":36,"noteName":"C2","velocity":54,"programs":[]},{"track":1,"delta":0,"tick":35885,"byteIndex":15073,"name":"Note on","channel":1,"noteNumber":38,"noteName":"D2","velocity":36,"programs":[]},{"track":1,"delta":0,"tick":35933,"byteIndex":15089,"name":"Note on","channel":1,"noteNumber":38,"noteName":"D2","velocity":31,"programs":[]},{"track":1,"delta":61,"tick":36035,"byteIndex":15105,"name":"Note on","channel":1,"noteNumber":36,"noteName":"C2","velocity":74,"programs":[]},{"track":1,"delta":0,"tick":36061,"byteIndex":15129,"name":"Note on","channel":1,"noteNumber":38,"noteName":"D2","velocity":17,"programs":[]},{"track":1,"delta":146,"tick":36227,"byteIndex":15145,"name":"Note on","channel":1,"noteNumber":36,"noteName":"C2","velocity":57,"programs":[]},{"track":1,"delta":0,"tick":36266,"byteIndex":15170,"name":"Note on","channel":1,"noteNumber":38,"noteName":"D2","velocity":35,"programs":[]},{"track":1,"delta":0,"tick":36339,"byteIndex":15186,"name":"Note on","channel":1,"noteNumber":38,"noteName":"D2","velocity":40,"programs":[]},{"track":1,"delta":70,"tick":36418,"byteIndex":15202,"name":"Note on","channel":1,"noteNumber":36,"noteName":"C2","velocity":64,"programs":[]},{"track":1,"delta":98,"tick":36558,"byteIndex":15226,"name":"Note on","channel":1,"noteNumber":36,"noteName":"C2","velocity":61,"programs":[]},{"track":1,"delta":0,"tick":36610,"byteIndex":15250,"name":"Note on","channel":1,"noteNumber":38,"noteName":"D2","velocity":28,"programs":[]},{"track":1,"delta":0,"tick":36655,"byteIndex":15266,"name":"Note on","channel":1,"noteNumber":38,"noteName":"D2","velocity":30,"programs":[]},{"track":1,"delta":0,"tick":36705,"byteIndex":15290,"name":"Note on","channel":1,"noteNumber":38,"noteName":"D2","velocity":25,"programs":[]},{"track":1,"delta":36,"tick":36754,"byteIndex":15302,"name":"Note on","channel":1,"noteNumber":36,"noteName":"C2","velocity":44,"programs":[]},{"track":1,"delta":0,"tick":36802,"byteIndex":15322,"name":"Note on","channel":1,"noteNumber":36,"noteName":"C2","velocity":57,"programs":[]},{"track":1,"delta":0,"tick":36833,"byteIndex":15338,"name":"Note on","channel":1,"noteNumber":38,"noteName":"D2","velocity":28,"programs":[]},{"track":1,"delta":91,"tick":36948,"byteIndex":15354,"name":"Note on","channel":1,"noteNumber":36,"noteName":"C2","velocity":42,"programs":[]},{"track":1,"delta":0,"tick":36994,"byteIndex":15378,"name":"Note on","channel":1,"noteNumber":36,"noteName":"C2","velocity":63,"programs":[]},{"track":1,"delta":0,"tick":37055,"byteIndex":15398,"name":"Note on","channel":1,"noteNumber":38,"noteName":"D2","velocity":32,"programs":[]},{"track":1,"delta":107,"tick":37162,"byteIndex":15410,"name":"Note on","channel":1,"noteNumber":36,"noteName":"C2","velocity":64,"programs":[]},{"track":1,"delta":0,"tick":37187,"byteIndex":15434,"name":"Note on","channel":1,"noteNumber":38,"noteName":"D2","velocity":36,"programs":[]},{"track":1,"delta":0,"tick":37233,"byteIndex":15454,"name":"Note on","channel":1,"noteNumber":38,"noteName":"D2","velocity":35,"programs":[]},{"track":1,"delta":0,"tick":37269,"byteIndex":15470,"name":"Note on","channel":1,"noteNumber":38,"noteName":"D2","velocity":57,"programs":[]},{"track":1,"delta":56,"tick":37325,"byteIndex":15482,"name":"Note on","channel":1,"noteNumber":36,"noteName":"C2","velocity":46,"programs":[]},{"track":1,"delta":0,"tick":37377,"byteIndex":15506,"name":"Note on","channel":1,"noteNumber":36,"noteName":"C2","velocity":49,"programs":[]},{"track":1,"delta":0,"tick":37422,"byteIndex":15530,"name":"Note on","channel":1,"noteNumber":38,"noteName":"D2","velocity":42,"programs":[]},{"track":1,"delta":18,"tick":37469,"byteIndex":15546,"name":"Note on","channel":1,"noteNumber":36,"noteName":"C2","velocity":39,"programs":[]},{"track":1,"delta":26,"tick":37571,"byteIndex":15570,"name":"Note on","channel":1,"noteNumber":36,"noteName":"C2","velocity":38,"programs":[]},{"track":1,"delta":0,"tick":37674,"byteIndex":15598,"name":"Note on","channel":1,"noteNumber":38,"noteName":"D2","velocity":33,"programs":[]},{"track":1,"delta":89,"tick":37763,"byteIndex":15610,"name":"Note on","channel":1,"noteNumber":36,"noteName":"C2","velocity":63,"programs":[]},{"track":1,"delta":0,"tick":37867,"byteIndex":15638,"name":"Note on","channel":1,"noteNumber":38,"noteName":"D2","velocity":33,"programs":[]},{"track":1,"delta":40,"tick":37907,"byteIndex":15650,"name":"Note on","channel":1,"noteNumber":36,"noteName":"C2","velocity":62,"programs":[]},{"track":1,"delta":0,"tick":37956,"byteIndex":15674,"name":"Note on","channel":1,"noteNumber":36,"noteName":"C2","velocity":57,"programs":[]},{"track":1,"delta":0,"tick":38002,"byteIndex":15694,"name":"Note on","channel":1,"noteNumber":38,"noteName":"D2","velocity":28,"programs":[]},{"track":1,"delta":0,"tick":38056,"byteIndex":15710,"name":"Note on","channel":1,"noteNumber":42,"noteName":"Gb2","velocity":70,"programs":[]},{"track":1,"delta":39,"tick":38095,"byteIndex":15714,"name":"Note on","channel":1,"noteNumber":36,"noteName":"C2","velocity":57,"programs":[]},{"track":1,"delta":0,"tick":38147,"byteIndex":15738,"name":"Note on","channel":1,"noteNumber":36,"noteName":"C2","velocity":60,"programs":[]},{"track":1,"delta":0,"tick":38190,"byteIndex":15762,"name":"Note on","channel":1,"noteNumber":38,"noteName":"D2","velocity":35,"programs":[]},{"track":1,"delta":0,"tick":38211,"byteIndex":15778,"name":"Note on","channel":1,"noteNumber":38,"noteName":"D2","velocity":44,"programs":[]},{"track":1,"delta":0,"tick":38242,"byteIndex":15794,"name":"Note on","channel":1,"noteNumber":38,"noteName":"D2","velocity":28,"programs":[]},{"track":1,"delta":0,"tick":38286,"byteIndex":15810,"name":"Note on","channel":1,"noteNumber":36,"noteName":"C2","velocity":60,"programs":[]},{"track":1,"delta":8,"tick":38338,"byteIndex":15834,"name":"Note on","channel":1,"noteNumber":36,"noteName":"C2","velocity":46,"programs":[]},{"track":1,"delta":0,"tick":38364,"byteIndex":15854,"name":"Note on","channel":1,"noteNumber":42,"noteName":"Gb2","velocity":18,"programs":[]},{"track":1,"delta":0,"tick":38390,"byteIndex":15862,"name":"Note on","channel":1,"noteNumber":38,"noteName":"D2","velocity":30,"programs":[]},{"track":1,"delta":0,"tick":38435,"byteIndex":15878,"name":"Note on","channel":1,"noteNumber":38,"noteName":"D2","velocity":29,"programs":[]},{"track":1,"delta":71,"tick":38506,"byteIndex":15890,"name":"Note on","channel":1,"noteNumber":36,"noteName":"C2","velocity":54,"programs":[]},{"track":1,"delta":0,"tick":38531,"byteIndex":15914,"name":"Note on","channel":1,"noteNumber":42,"noteName":"Gb2","velocity":17,"programs":[]},{"track":1,"delta":0,"tick":38578,"byteIndex":15926,"name":"Note on","channel":1,"noteNumber":38,"noteName":"D2","velocity":32,"programs":[]},{"track":1,"delta":0,"tick":38626,"byteIndex":15942,"name":"Note on","channel":1,"noteNumber":38,"noteName":"D2","velocity":28,"programs":[]},{"track":1,"delta":56,"tick":38723,"byteIndex":15958,"name":"Note on","channel":1,"noteNumber":36,"noteName":"C2","velocity":50,"programs":[]},{"track":1,"delta":0,"tick":38778,"byteIndex":15982,"name":"Note on","channel":1,"noteNumber":38,"noteName":"D2","velocity":32,"programs":[]},{"track":1,"delta":0,"tick":38819,"byteIndex":15998,"name":"Note on","channel":1,"noteNumber":38,"noteName":"D2","velocity":29,"programs":[]},{"track":1,"delta":96,"tick":38915,"byteIndex":16010,"name":"Note on","channel":1,"noteNumber":36,"noteName":"C2","velocity":54,"programs":[]},{"track":1,"delta":0,"tick":38962,"byteIndex":16034,"name":"Note on","channel":1,"noteNumber":38,"noteName":"D2","velocity":46,"programs":[]},{"track":1,"delta":0,"tick":38996,"byteIndex":16050,"name":"Note on","channel":1,"noteNumber":38,"noteName":"D2","velocity":31,"programs":[]},{"track":1,"delta":0,"tick":39011,"byteIndex":16066,"name":"Note on","channel":1,"noteNumber":38,"noteName":"D2","velocity":29,"programs":[]},{"track":1,"delta":88,"tick":39107,"byteIndex":16082,"name":"Note on","channel":1,"noteNumber":36,"noteName":"C2","velocity":51,"programs":[]},{"track":1,"delta":0,"tick":39128,"byteIndex":16106,"name":"Note on","channel":1,"noteNumber":38,"noteName":"D2","velocity":28,"programs":[]},{"track":1,"delta":0,"tick":39155,"byteIndex":16126,"name":"Note on","channel":1,"noteNumber":38,"noteName":"D2","velocity":35,"programs":[]},{"track":1,"delta":0,"tick":39173,"byteIndex":16142,"name":"Note on","channel":1,"noteNumber":42,"noteName":"Gb2","velocity":83,"programs":[]},{"track":1,"delta":0,"tick":39202,"byteIndex":16150,"name":"Note on","channel":1,"noteNumber":38,"noteName":"D2","velocity":27,"programs":[]},{"track":1,"delta":96,"tick":39298,"byteIndex":16162,"name":"Note on","channel":1,"noteNumber":36,"noteName":"C2","velocity":50,"programs":[]},{"track":1,"delta":0,"tick":39346,"byteIndex":16186,"name":"Note on","channel":1,"noteNumber":38,"noteName":"D2","velocity":47,"programs":[]},{"track":1,"delta":0,"tick":39394,"byteIndex":16202,"name":"Note on","channel":1,"noteNumber":38,"noteName":"D2","velocity":34,"programs":[]},{"track":1,"delta":22,"tick":39463,"byteIndex":16218,"name":"Note on","channel":1,"noteNumber":36,"noteName":"C2","velocity":43,"programs":[]},{"track":1,"delta":0,"tick":39491,"byteIndex":16242,"name":"Note on","channel":1,"noteNumber":42,"noteName":"Gb2","velocity":13,"programs":[]},{"track":1,"delta":0,"tick":39517,"byteIndex":16254,"name":"Note on","channel":1,"noteNumber":38,"noteName":"D2","velocity":28,"programs":[]},{"track":1,"delta":0,"tick":39537,"byteIndex":16270,"name":"Note on","channel":1,"noteNumber":38,"noteName":"D2","velocity":35,"programs":[]},{"track":1,"delta":0,"tick":39567,"byteIndex":16286,"name":"Note on","channel":1,"noteNumber":42,"noteName":"Gb2","velocity":57,"programs":[]},{"track":1,"delta":0,"tick":39586,"byteIndex":16294,"name":"Note on","channel":1,"noteNumber":38,"noteName":"D2","velocity":28,"programs":[]},{"track":1,"delta":96,"tick":39682,"byteIndex":16306,"name":"Note on","channel":1,"noteNumber":36,"noteName":"C2","velocity":34,"programs":[]},{"track":1,"delta":0,"tick":39727,"byteIndex":16330,"name":"Note on","channel":1,"noteNumber":38,"noteName":"D2","velocity":52,"programs":[]},{"track":1,"delta":0,"tick":39779,"byteIndex":16350,"name":"Note on","channel":1,"noteNumber":38,"noteName":"D2","velocity":28,"programs":[]},{"track":1,"delta":96,"tick":39875,"byteIndex":16362,"name":"Note on","channel":1,"noteNumber":36,"noteName":"C2","velocity":58,"programs":[]},{"track":1,"delta":0,"tick":39973,"byteIndex":16390,"name":"Note on","channel":1,"noteNumber":38,"noteName":"D2","velocity":30,"programs":[]},{"track":1,"delta":61,"tick":40034,"byteIndex":16402,"name":"Note on","channel":1,"noteNumber":36,"noteName":"C2","velocity":61,"programs":[]},{"track":1,"delta":0,"tick":40067,"byteIndex":16426,"name":"Note on","channel":1,"noteNumber":36,"noteName":"C2","velocity":48,"programs":[]},{"track":1,"delta":0,"tick":40122,"byteIndex":16454,"name":"Note on","channel":1,"noteNumber":38,"noteName":"D2","velocity":30,"programs":[]},{"track":1,"delta":0,"tick":40163,"byteIndex":16470,"name":"Note on","channel":1,"noteNumber":38,"noteName":"D2","velocity":28,"programs":[]},{"track":1,"delta":57,"tick":40220,"byteIndex":16482,"name":"Note on","channel":1,"noteNumber":36,"noteName":"C2","velocity":56,"programs":[]},{"track":1,"delta":0,"tick":40259,"byteIndex":16506,"name":"Note on","channel":1,"noteNumber":36,"noteName":"C2","velocity":44,"programs":[]},{"track":1,"delta":0,"tick":40303,"byteIndex":16526,"name":"Note on","channel":1,"noteNumber":38,"noteName":"D2","velocity":29,"programs":[]},{"track":1,"delta":0,"tick":40354,"byteIndex":16542,"name":"Note on","channel":1,"noteNumber":38,"noteName":"D2","velocity":31,"programs":[]},{"track":1,"delta":75,"tick":40429,"byteIndex":16554,"name":"Note on","channel":1,"noteNumber":36,"noteName":"C2","velocity":53,"programs":[]},{"track":1,"delta":0,"tick":40451,"byteIndex":16578,"name":"Note on","channel":1,"noteNumber":38,"noteName":"D2","velocity":43,"programs":[]},{"track":1,"delta":0,"tick":40502,"byteIndex":16594,"name":"Note on","channel":1,"noteNumber":36,"noteName":"C2","velocity":36,"programs":[]},{"track":1,"delta":0,"tick":40547,"byteIndex":16618,"name":"Note on","channel":1,"noteNumber":36,"noteName":"C2","velocity":35,"programs":[]},{"track":1,"delta":0,"tick":40592,"byteIndex":16642,"name":"Note on","channel":1,"noteNumber":36,"noteName":"C2","velocity":83,"programs":[]},{"track":1,"delta":0,"tick":40643,"byteIndex":16666,"name":"Note on","channel":1,"noteNumber":38,"noteName":"D2","velocity":28,"programs":[]},{"track":1,"delta":0,"tick":40671,"byteIndex":16682,"name":"Note on","channel":1,"noteNumber":38,"noteName":"D2","velocity":28,"programs":[]},{"track":1,"delta":0,"tick":40687,"byteIndex":16698,"name":"Note on","channel":1,"noteNumber":38,"noteName":"D2","velocity":31,"programs":[]},{"track":1,"delta":0,"tick":40718,"byteIndex":16722,"name":"Note on","channel":1,"noteNumber":38,"noteName":"D2","velocity":39,"programs":[]},{"track":1,"delta":7,"tick":40739,"byteIndex":16730,"name":"Note on","channel":1,"noteNumber":38,"noteName":"D2","velocity":29,"programs":[]},{"track":1,"delta":59,"tick":40798,"byteIndex":16738,"name":"Note on","channel":1,"noteNumber":36,"noteName":"C2","velocity":45,"programs":[]},{"track":1,"delta":0,"tick":40835,"byteIndex":16762,"name":"Note on","channel":1,"noteNumber":36,"noteName":"C2","velocity":36,"programs":[]},{"track":1,"delta":0,"tick":40873,"byteIndex":16786,"name":"Note on","channel":1,"noteNumber":38,"noteName":"D2","velocity":32,"programs":[]},{"track":1,"delta":0,"tick":40912,"byteIndex":16802,"name":"Note on","channel":1,"noteNumber":38,"noteName":"D2","velocity":60,"programs":[]},{"track":1,"delta":0,"tick":40931,"byteIndex":16818,"name":"Note on","channel":1,"noteNumber":38,"noteName":"D2","velocity":29,"programs":[]},{"track":1,"delta":0,"tick":40987,"byteIndex":16834,"name":"Note on","channel":1,"noteNumber":36,"noteName":"C2","velocity":31,"programs":[]},{"track":1,"delta":0,"tick":41027,"byteIndex":16858,"name":"Note on","channel":1,"noteNumber":36,"noteName":"C2","velocity":47,"programs":[]},{"track":1,"delta":0,"tick":41066,"byteIndex":16882,"name":"Note on","channel":1,"noteNumber":38,"noteName":"D2","velocity":31,"programs":[]},{"track":1,"delta":0,"tick":41104,"byteIndex":16898,"name":"Note on","channel":1,"noteNumber":38,"noteName":"D2","velocity":60,"programs":[]},{"track":1,"delta":0,"tick":41122,"byteIndex":16914,"name":"Note on","channel":1,"noteNumber":38,"noteName":"D2","velocity":29,"programs":[]},{"track":1,"delta":0,"tick":41179,"byteIndex":16930,"name":"Note on","channel":1,"noteNumber":36,"noteName":"C2","velocity":38,"programs":[]},{"track":1,"delta":0,"tick":41219,"byteIndex":16954,"name":"Note on","channel":1,"noteNumber":36,"noteName":"C2","velocity":60,"programs":[]},{"track":1,"delta":0,"tick":41253,"byteIndex":16978,"name":"Note on","channel":1,"noteNumber":36,"noteName":"C2","velocity":31,"programs":[]},{"track":1,"delta":0,"tick":41267,"byteIndex":17002,"name":"Note on","channel":1,"noteNumber":42,"noteName":"Gb2","velocity":10,"programs":[]},{"track":1,"delta":0,"tick":41284,"byteIndex":17010,"name":"Note on","channel":1,"noteNumber":38,"noteName":"D2","velocity":70,"programs":[]},{"track":1,"delta":0,"tick":41315,"byteIndex":17026,"name":"Note on","channel":1,"noteNumber":38,"noteName":"D2","velocity":30,"programs":[]},{"track":1,"delta":0,"tick":41409,"byteIndex":17042,"name":"Note on","channel":1,"noteNumber":36,"noteName":"C2","velocity":39,"programs":[]},{"track":1,"delta":0,"tick":41458,"byteIndex":17066,"name":"Note on","channel":1,"noteNumber":38,"noteName":"D2","velocity":31,"programs":[]},{"track":1,"delta":0,"tick":41489,"byteIndex":17082,"name":"Note on","channel":1,"noteNumber":38,"noteName":"D2","velocity":57,"programs":[]},{"track":1,"delta":0,"tick":41505,"byteIndex":17102,"name":"Note on","channel":1,"noteNumber":38,"noteName":"D2","velocity":27,"programs":[]},{"track":1,"delta":53,"tick":41558,"byteIndex":17114,"name":"Note on","channel":1,"noteNumber":36,"noteName":"C2","velocity":35,"programs":[]},{"track":1,"delta":0,"tick":41603,"byteIndex":17138,"name":"Note on","channel":1,"noteNumber":36,"noteName":"C2","velocity":32,"programs":[]},{"track":1,"delta":0,"tick":41628,"byteIndex":17162,"name":"Note on","channel":1,"noteNumber":38,"noteName":"D2","velocity":39,"programs":[]},{"track":1,"delta":0,"tick":41656,"byteIndex":17178,"name":"Note on","channel":1,"noteNumber":38,"noteName":"D2","velocity":68,"programs":[]},{"track":1,"delta":0,"tick":41698,"byteIndex":17198,"name":"Note on","channel":1,"noteNumber":38,"noteName":"D2","velocity":28,"programs":[]},{"track":1,"delta":0,"tick":41721,"byteIndex":17214,"name":"Note on","channel":1,"noteNumber":38,"noteName":"D2","velocity":30,"programs":[]},{"track":1,"delta":32,"tick":41753,"byteIndex":17226,"name":"Note on","channel":1,"noteNumber":36,"noteName":"C2","velocity":31,"programs":[]},{"track":1,"delta":0,"tick":41775,"byteIndex":17250,"name":"Note on","channel":1,"noteNumber":36,"noteName":"C2","velocity":35,"programs":[]},{"track":1,"delta":0,"tick":41796,"byteIndex":17274,"name":"Note on","channel":1,"noteNumber":38,"noteName":"D2","velocity":29,"programs":[]},{"track":1,"delta":0,"tick":41817,"byteIndex":17290,"name":"Note on","channel":1,"noteNumber":38,"noteName":"D2","velocity":30,"programs":[]},{"track":1,"delta":0,"tick":41846,"byteIndex":17306,"name":"Note on","channel":1,"noteNumber":38,"noteName":"D2","velocity":36,"programs":[]},{"track":1,"delta":0,"tick":41871,"byteIndex":17326,"name":"Note on","channel":1,"noteNumber":38,"noteName":"D2","velocity":35,"programs":[]},{"track":1,"delta":0,"tick":41891,"byteIndex":17342,"name":"Note on","channel":1,"noteNumber":38,"noteName":"D2","velocity":28,"programs":[]},{"track":1,"delta":51,"tick":41942,"byteIndex":17354,"name":"Note on","channel":1,"noteNumber":36,"noteName":"C2","velocity":32,"programs":[]},{"track":1,"delta":0,"tick":41961,"byteIndex":17378,"name":"Note on","channel":1,"noteNumber":36,"noteName":"C2","velocity":53,"programs":[]},{"track":1,"delta":0,"tick":41987,"byteIndex":17402,"name":"Note on","channel":1,"noteNumber":38,"noteName":"D2","velocity":43,"programs":[]},{"track":1,"delta":0,"tick":42020,"byteIndex":17418,"name":"Note on","channel":1,"noteNumber":38,"noteName":"D2","velocity":42,"programs":[]},{"track":1,"delta":0,"tick":42043,"byteIndex":17434,"name":"Note on","channel":1,"noteNumber":38,"noteName":"D2","velocity":53,"programs":[]},{"track":1,"delta":0,"tick":42083,"byteIndex":17450,"name":"Note on","channel":1,"noteNumber":38,"noteName":"D2","velocity":53,"programs":[]},{"track":1,"delta":0,"tick":42133,"byteIndex":17466,"name":"Note on","channel":1,"noteNumber":36,"noteName":"C2","velocity":43,"programs":[]},{"track":1,"delta":0,"tick":42160,"byteIndex":17490,"name":"Note on","channel":1,"noteNumber":36,"noteName":"C2","velocity":44,"programs":[]},{"track":1,"delta":0,"tick":42180,"byteIndex":17514,"name":"Note on","channel":1,"noteNumber":38,"noteName":"D2","velocity":28,"programs":[]},{"track":1,"delta":0,"tick":42205,"byteIndex":17530,"name":"Note on","channel":1,"noteNumber":38,"noteName":"D2","velocity":29,"programs":[]},{"track":1,"delta":0,"tick":42231,"byteIndex":17546,"name":"Note on","channel":1,"noteNumber":38,"noteName":"D2","velocity":40,"programs":[]},{"track":1,"delta":0,"tick":42274,"byteIndex":17562,"name":"Note on","channel":1,"noteNumber":38,"noteName":"D2","velocity":34,"programs":[]},{"track":1,"delta":0,"tick":42327,"byteIndex":17578,"name":"Note on","channel":1,"noteNumber":36,"noteName":"C2","velocity":33,"programs":[]},{"track":1,"delta":0,"tick":42346,"byteIndex":17602,"name":"Note on","channel":1,"noteNumber":36,"noteName":"C2","velocity":51,"programs":[]},{"track":1,"delta":0,"tick":42371,"byteIndex":17626,"name":"Note on","channel":1,"noteNumber":38,"noteName":"D2","velocity":31,"programs":[]},{"track":1,"delta":0,"tick":42398,"byteIndex":17642,"name":"Note on","channel":1,"noteNumber":38,"noteName":"D2","velocity":38,"programs":[]},{"track":1,"delta":0,"tick":42426,"byteIndex":17658,"name":"Note on","channel":1,"noteNumber":38,"noteName":"D2","velocity":50,"programs":[]},{"track":1,"delta":0,"tick":42466,"byteIndex":17674,"name":"Note on","channel":1,"noteNumber":38,"noteName":"D2","velocity":38,"programs":[]},{"track":1,"delta":0,"tick":42519,"byteIndex":17690,"name":"Note on","channel":1,"noteNumber":36,"noteName":"C2","velocity":46,"programs":[]},{"track":1,"delta":0,"tick":42543,"byteIndex":17714,"name":"Note on","channel":1,"noteNumber":36,"noteName":"C2","velocity":34,"programs":[]},{"track":1,"delta":0,"tick":42562,"byteIndex":17730,"name":"Note on","channel":1,"noteNumber":38,"noteName":"D2","velocity":27,"programs":[]},{"track":1,"delta":0,"tick":42586,"byteIndex":17746,"name":"Note on","channel":1,"noteNumber":38,"noteName":"D2","velocity":33,"programs":[]},{"track":1,"delta":0,"tick":42615,"byteIndex":17762,"name":"Note on","channel":1,"noteNumber":38,"noteName":"D2","velocity":45,"programs":[]},{"track":1,"delta":0,"tick":42640,"byteIndex":17782,"name":"Note on","channel":1,"noteNumber":38,"noteName":"D2","velocity":36,"programs":[]},{"track":1,"delta":0,"tick":42659,"byteIndex":17798,"name":"Note on","channel":1,"noteNumber":38,"noteName":"D2","velocity":39,"programs":[]},{"track":1,"delta":0,"tick":42710,"byteIndex":17814,"name":"Note on","channel":1,"noteNumber":38,"noteName":"D2","velocity":41,"programs":[]},{"track":1,"delta":9,"tick":42719,"byteIndex":17826,"name":"Note on","channel":1,"noteNumber":36,"noteName":"C2","velocity":36,"programs":[]},{"track":1,"delta":6,"tick":42755,"byteIndex":17850,"name":"Note on","channel":1,"noteNumber":38,"noteName":"D2","velocity":26,"programs":[]},{"track":1,"delta":0,"tick":42773,"byteIndex":17862,"name":"Note on","channel":1,"noteNumber":38,"noteName":"D2","velocity":43,"programs":[]},{"track":1,"delta":0,"tick":42799,"byteIndex":17878,"name":"Note on","channel":1,"noteNumber":38,"noteName":"D2","velocity":35,"programs":[]},{"track":1,"delta":0,"tick":42824,"byteIndex":17894,"name":"Note on","channel":1,"noteNumber":38,"noteName":"D2","velocity":60,"programs":[]},{"track":1,"delta":26,"tick":42850,"byteIndex":17906,"name":"Note on","channel":1,"noteNumber":36,"noteName":"C2","velocity":29,"programs":[]},{"track":1,"delta":0,"tick":42903,"byteIndex":17930,"name":"Note on","channel":1,"noteNumber":36,"noteName":"C2","velocity":29,"programs":[]},{"track":1,"delta":0,"tick":42926,"byteIndex":17954,"name":"Note on","channel":1,"noteNumber":36,"noteName":"C2","velocity":76,"programs":[]},{"track":1,"delta":0,"tick":42946,"byteIndex":17978,"name":"Note on","channel":1,"noteNumber":38,"noteName":"D2","velocity":25,"programs":[]},{"track":1,"delta":0,"tick":42977,"byteIndex":17994,"name":"Note on","channel":1,"noteNumber":38,"noteName":"D2","velocity":28,"programs":[]},{"track":1,"delta":0,"tick":42997,"byteIndex":18010,"name":"Note on","channel":1,"noteNumber":38,"noteName":"D2","velocity":30,"programs":[]},{"track":1,"delta":0,"tick":43042,"byteIndex":18026,"name":"Note on","channel":1,"noteNumber":38,"noteName":"D2","velocity":27,"programs":[]},{"track":1,"delta":0,"tick":43110,"byteIndex":18042,"name":"Note on","channel":1,"noteNumber":36,"noteName":"C2","velocity":41,"programs":[]},{"track":1,"delta":0,"tick":43139,"byteIndex":18066,"name":"Note on","channel":1,"noteNumber":38,"noteName":"D2","velocity":26,"programs":[]},{"track":1,"delta":0,"tick":43160,"byteIndex":18082,"name":"Note on","channel":1,"noteNumber":38,"noteName":"D2","velocity":40,"programs":[]},{"track":1,"delta":0,"tick":43187,"byteIndex":18098,"name":"Note on","channel":1,"noteNumber":38,"noteName":"D2","velocity":33,"programs":[]},{"track":1,"delta":0,"tick":43206,"byteIndex":18114,"name":"Note on","channel":1,"noteNumber":38,"noteName":"D2","velocity":66,"programs":[]},{"track":1,"delta":0,"tick":43234,"byteIndex":18130,"name":"Note on","channel":1,"noteNumber":38,"noteName":"D2","velocity":50,"programs":[]},{"track":1,"delta":0,"tick":43288,"byteIndex":18146,"name":"Note on","channel":1,"noteNumber":36,"noteName":"C2","velocity":43,"programs":[]},{"track":1,"delta":0,"tick":43330,"byteIndex":18170,"name":"Note on","channel":1,"noteNumber":36,"noteName":"C2","velocity":43,"programs":[]},{"track":1,"delta":0,"tick":43379,"byteIndex":18194,"name":"Note on","channel":1,"noteNumber":38,"noteName":"D2","velocity":32,"programs":[]},{"track":1,"delta":0,"tick":43405,"byteIndex":18210,"name":"Note on","channel":1,"noteNumber":38,"noteName":"D2","velocity":42,"programs":[]},{"track":1,"delta":0,"tick":43427,"byteIndex":18226,"name":"Note on","channel":1,"noteNumber":38,"noteName":"D2","velocity":34,"programs":[]},{"track":1,"delta":0,"tick":43480,"byteIndex":18242,"name":"Note on","channel":1,"noteNumber":36,"noteName":"C2","velocity":29,"programs":[]},{"track":1,"delta":0,"tick":43501,"byteIndex":18266,"name":"Note on","channel":1,"noteNumber":36,"noteName":"C2","velocity":30,"programs":[]},{"track":1,"delta":0,"tick":43522,"byteIndex":18290,"name":"Note on","channel":1,"noteNumber":38,"noteName":"D2","velocity":39,"programs":[]},{"track":1,"delta":0,"tick":43556,"byteIndex":18306,"name":"Note on","channel":1,"noteNumber":36,"noteName":"C2","velocity":28,"programs":[]},{"track":1,"delta":0,"tick":43578,"byteIndex":18330,"name":"Note on","channel":1,"noteNumber":38,"noteName":"D2","velocity":40,"programs":[]},{"track":1,"delta":0,"tick":43597,"byteIndex":18346,"name":"Note on","channel":1,"noteNumber":38,"noteName":"D2","velocity":54,"programs":[]},{"track":1,"delta":0,"tick":43621,"byteIndex":18362,"name":"Note on","channel":1,"noteNumber":36,"noteName":"C2","velocity":31,"programs":[]},{"track":1,"delta":0,"tick":43667,"byteIndex":18386,"name":"Note on","channel":1,"noteNumber":36,"noteName":"C2","velocity":37,"programs":[]},{"track":1,"delta":0,"tick":43694,"byteIndex":18410,"name":"Note on","channel":1,"noteNumber":36,"noteName":"C2","velocity":31,"programs":[]},{"track":1,"delta":0,"tick":43714,"byteIndex":18434,"name":"Note on","channel":1,"noteNumber":42,"noteName":"Gb2","velocity":17,"programs":[]},{"track":1,"delta":0,"tick":43746,"byteIndex":18442,"name":"Note on","channel":1,"noteNumber":42,"noteName":"Gb2","velocity":30,"programs":[]},{"track":1,"delta":0,"tick":43761,"byteIndex":18450,"name":"Note on","channel":1,"noteNumber":38,"noteName":"D2","velocity":62,"programs":[]},{"track":1,"delta":0,"tick":43810,"byteIndex":18466,"name":"Note on","channel":1,"noteNumber":38,"noteName":"D2","velocity":39,"programs":[]},{"track":1,"delta":0,"tick":43907,"byteIndex":18482,"name":"Note on","channel":1,"noteNumber":36,"noteName":"C2","velocity":35,"programs":[]},{"track":1,"delta":0,"tick":43926,"byteIndex":18506,"name":"Note on","channel":1,"noteNumber":38,"noteName":"D2","velocity":29,"programs":[]},{"track":1,"delta":0,"tick":43954,"byteIndex":18522,"name":"Note on","channel":1,"noteNumber":38,"noteName":"D2","velocity":28,"programs":[]},{"track":1,"delta":0,"tick":43977,"byteIndex":18538,"name":"Note on","channel":1,"noteNumber":38,"noteName":"D2","velocity":45,"programs":[]},{"track":1,"delta":0,"tick":44003,"byteIndex":18554,"name":"Note on","channel":1,"noteNumber":38,"noteName":"D2","velocity":31,"programs":[]},{"track":1,"delta":0,"tick":44027,"byteIndex":18570,"name":"Note on","channel":1,"noteNumber":38,"noteName":"D2","velocity":27,"programs":[]},{"track":1,"delta":0,"tick":44080,"byteIndex":18586,"name":"Note on","channel":1,"noteNumber":36,"noteName":"C2","velocity":39,"programs":[]},{"track":1,"delta":0,"tick":44099,"byteIndex":18610,"name":"Note on","channel":1,"noteNumber":38,"noteName":"D2","velocity":26,"programs":[]},{"track":1,"delta":0,"tick":44151,"byteIndex":18626,"name":"Note on","channel":1,"noteNumber":38,"noteName":"D2","velocity":62,"programs":[]},{"track":1,"delta":0,"tick":44194,"byteIndex":18642,"name":"Note on","channel":1,"noteNumber":38,"noteName":"D2","velocity":46,"programs":[]},{"track":1,"delta":0,"tick":44244,"byteIndex":18658,"name":"Note on","channel":1,"noteNumber":36,"noteName":"C2","velocity":48,"programs":[]},{"track":1,"delta":0,"tick":44291,"byteIndex":18682,"name":"Note on","channel":1,"noteNumber":36,"noteName":"C2","velocity":38,"programs":[]},{"track":1,"delta":0,"tick":44327,"byteIndex":18706,"name":"Note on","channel":1,"noteNumber":38,"noteName":"D2","velocity":38,"programs":[]},{"track":1,"delta":0,"tick":44344,"byteIndex":18722,"name":"Note on","channel":1,"noteNumber":38,"noteName":"D2","velocity":48,"programs":[]},{"track":1,"delta":0,"tick":44361,"byteIndex":18738,"name":"Note on","channel":1,"noteNumber":38,"noteName":"D2","velocity":47,"programs":[]},{"track":1,"delta":0,"tick":44387,"byteIndex":18754,"name":"Note on","channel":1,"noteNumber":38,"noteName":"D2","velocity":37,"programs":[]},{"track":1,"delta":0,"tick":44440,"byteIndex":18770,"name":"Note on","channel":1,"noteNumber":36,"noteName":"C2","velocity":46,"programs":[]},{"track":1,"delta":0,"tick":44462,"byteIndex":18794,"name":"Note on","channel":1,"noteNumber":38,"noteName":"D2","velocity":25,"programs":[]},{"track":1,"delta":0,"tick":44482,"byteIndex":18810,"name":"Note on","channel":1,"noteNumber":42,"noteName":"Gb2","velocity":20,"programs":[]},{"track":1,"delta":0,"tick":44509,"byteIndex":18818,"name":"Note on","channel":1,"noteNumber":38,"noteName":"D2","velocity":27,"programs":[]},{"track":1,"delta":0,"tick":44556,"byteIndex":18838,"name":"Note on","channel":1,"noteNumber":38,"noteName":"D2","velocity":67,"programs":[]},{"track":1,"delta":0,"tick":44579,"byteIndex":18854,"name":"Note on","channel":1,"noteNumber":38,"noteName":"D2","velocity":50,"programs":[]},{"track":1,"delta":76,"tick":44655,"byteIndex":18866,"name":"Note on","channel":1,"noteNumber":36,"noteName":"C2","velocity":41,"programs":[]},{"track":1,"delta":0,"tick":44674,"byteIndex":18890,"name":"Note on","channel":1,"noteNumber":38,"noteName":"D2","velocity":29,"programs":[]},{"track":1,"delta":0,"tick":44692,"byteIndex":18906,"name":"Note on","channel":1,"noteNumber":38,"noteName":"D2","velocity":44,"programs":[]},{"track":1,"delta":0,"tick":44709,"byteIndex":18922,"name":"Note on","channel":1,"noteNumber":38,"noteName":"D2","velocity":50,"programs":[]},{"track":1,"delta":0,"tick":44723,"byteIndex":18938,"name":"Note on","channel":1,"noteNumber":38,"noteName":"D2","velocity":65,"programs":[]},{"track":1,"delta":24,"tick":44774,"byteIndex":18962,"name":"Note on","channel":1,"noteNumber":38,"noteName":"D2","velocity":50,"programs":[]},{"track":1,"delta":50,"tick":44824,"byteIndex":18970,"name":"Note on","channel":1,"noteNumber":36,"noteName":"C2","velocity":35,"programs":[]},{"track":1,"delta":0,"tick":44868,"byteIndex":18994,"name":"Note on","channel":1,"noteNumber":36,"noteName":"C2","velocity":30,"programs":[]},{"track":1,"delta":0,"tick":44898,"byteIndex":19018,"name":"Note on","channel":1,"noteNumber":42,"noteName":"Gb2","velocity":45,"programs":[]},{"track":1,"delta":0,"tick":44919,"byteIndex":19026,"name":"Note on","channel":1,"noteNumber":38,"noteName":"D2","velocity":38,"programs":[]},{"track":1,"delta":0,"tick":44963,"byteIndex":19046,"name":"Note on","channel":1,"noteNumber":38,"noteName":"D2","velocity":54,"programs":[]},{"track":1,"delta":0,"tick":45015,"byteIndex":19062,"name":"Note on","channel":1,"noteNumber":38,"noteName":"D2","velocity":43,"programs":[]},{"track":1,"delta":0,"tick":45037,"byteIndex":19078,"name":"Note on","channel":1,"noteNumber":38,"noteName":"D2","velocity":52,"programs":[]},{"track":1,"delta":0,"tick":45058,"byteIndex":19094,"name":"Note on","channel":1,"noteNumber":38,"noteName":"D2","velocity":65,"programs":[]},{"track":1,"delta":0,"tick":45081,"byteIndex":19110,"name":"Note on","channel":1,"noteNumber":38,"noteName":"D2","velocity":58,"programs":[]},{"track":1,"delta":0,"tick":45105,"byteIndex":19126,"name":"Note on","channel":1,"noteNumber":38,"noteName":"D2","velocity":61,"programs":[]},{"track":1,"delta":0,"tick":45134,"byteIndex":19142,"name":"Note on","channel":1,"noteNumber":38,"noteName":"D2","velocity":79,"programs":[]},{"track":1,"delta":0,"tick":45153,"byteIndex":19158,"name":"Note on","channel":1,"noteNumber":38,"noteName":"D2","velocity":57,"programs":[]},{"track":1,"delta":0,"tick":45251,"byteIndex":19174,"name":"Note on","channel":1,"noteNumber":38,"noteName":"D2","velocity":40,"programs":[]},{"track":1,"delta":0,"tick":45277,"byteIndex":19190,"name":"Note on","channel":1,"noteNumber":38,"noteName":"D2","velocity":31,"programs":[]},{"track":1,"delta":0,"tick":45307,"byteIndex":19206,"name":"Note on","channel":1,"noteNumber":38,"noteName":"D2","velocity":30,"programs":[]},{"track":1,"delta":0,"tick":45325,"byteIndex":19222,"name":"Note on","channel":1,"noteNumber":38,"noteName":"D2","velocity":68,"programs":[]},{"track":1,"delta":21,"tick":45346,"byteIndex":19234,"name":"Note on","channel":1,"noteNumber":36,"noteName":"C2","velocity":25,"programs":[]},{"track":1,"delta":0,"tick":45422,"byteIndex":19258,"name":"Note on","channel":1,"noteNumber":38,"noteName":"D2","velocity":61,"programs":[]},{"track":1,"delta":0,"tick":45443,"byteIndex":19274,"name":"Note on","channel":1,"noteNumber":38,"noteName":"D2","velocity":60,"programs":[]},{"track":1,"delta":0,"tick":45471,"byteIndex":19290,"name":"Note on","channel":1,"noteNumber":38,"noteName":"D2","velocity":65,"programs":[]},{"track":1,"delta":0,"tick":45513,"byteIndex":19306,"name":"Note on","channel":1,"noteNumber":38,"noteName":"D2","velocity":80,"programs":[]},{"track":1,"delta":0,"tick":45539,"byteIndex":19322,"name":"Note on","channel":1,"noteNumber":38,"noteName":"D2","velocity":65,"programs":[]},{"track":1,"delta":0,"tick":45593,"byteIndex":19338,"name":"Note on","channel":1,"noteNumber":38,"noteName":"D2","velocity":49,"programs":[]},{"track":1,"delta":0,"tick":45635,"byteIndex":19354,"name":"Note on","channel":1,"noteNumber":38,"noteName":"D2","velocity":45,"programs":[]},{"track":1,"delta":0,"tick":45656,"byteIndex":19370,"name":"Note on","channel":1,"noteNumber":38,"noteName":"D2","velocity":41,"programs":[]},{"track":1,"delta":0,"tick":45689,"byteIndex":19386,"name":"Note on","channel":1,"noteNumber":38,"noteName":"D2","velocity":68,"programs":[]},{"track":1,"delta":0,"tick":45712,"byteIndex":19402,"name":"Note on","channel":1,"noteNumber":38,"noteName":"D2","velocity":63,"programs":[]},{"track":1,"delta":0,"tick":45731,"byteIndex":19418,"name":"Note on","channel":1,"noteNumber":38,"noteName":"D2","velocity":47,"programs":[]},{"track":1,"delta":0,"tick":45785,"byteIndex":19434,"name":"Note on","channel":1,"noteNumber":38,"noteName":"D2","velocity":51,"programs":[]},{"track":1,"delta":0,"tick":45804,"byteIndex":19450,"name":"Note on","channel":1,"noteNumber":36,"noteName":"C2","velocity":26,"programs":[]},{"track":1,"delta":0,"tick":45826,"byteIndex":19474,"name":"Note on","channel":1,"noteNumber":38,"noteName":"D2","velocity":51,"programs":[]},{"track":1,"delta":0,"tick":45857,"byteIndex":19490,"name":"Note on","channel":1,"noteNumber":38,"noteName":"D2","velocity":54,"programs":[]},{"track":1,"delta":0,"tick":45874,"byteIndex":19506,"name":"Note on","channel":1,"noteNumber":38,"noteName":"D2","velocity":50,"programs":[]},{"track":1,"delta":0,"tick":45902,"byteIndex":19522,"name":"Note on","channel":1,"noteNumber":38,"noteName":"D2","velocity":61,"programs":[]},{"track":1,"delta":0,"tick":45923,"byteIndex":19538,"name":"Note on","channel":1,"noteNumber":36,"noteName":"C2","velocity":25,"programs":[]},{"track":1,"delta":0,"tick":45996,"byteIndex":19562,"name":"Note on","channel":1,"noteNumber":38,"noteName":"D2","velocity":39,"programs":[]},{"track":1,"delta":0,"tick":46045,"byteIndex":19578,"name":"Note on","channel":1,"noteNumber":38,"noteName":"D2","velocity":36,"programs":[]},{"track":1,"delta":0,"tick":46114,"byteIndex":19594,"name":"Note on","channel":1,"noteNumber":38,"noteName":"D2","velocity":70,"programs":[]},{"track":1,"delta":0,"tick":46163,"byteIndex":19610,"name":"Note on","channel":1,"noteNumber":38,"noteName":"D2","velocity":49,"programs":[]},{"track":1,"delta":0,"tick":46189,"byteIndex":19626,"name":"Note on","channel":1,"noteNumber":38,"noteName":"D2","velocity":54,"programs":[]},{"track":1,"delta":0,"tick":46286,"byteIndex":19642,"name":"Note on","channel":1,"noteNumber":38,"noteName":"D2","velocity":75,"programs":[]},{"track":1,"delta":0,"tick":46307,"byteIndex":19658,"name":"Note on","channel":1,"noteNumber":38,"noteName":"D2","velocity":43,"programs":[]},{"track":1,"delta":0,"tick":46383,"byteIndex":19674,"name":"Note on","channel":1,"noteNumber":38,"noteName":"D2","velocity":35,"programs":[]},{"track":1,"delta":0,"tick":46427,"byteIndex":19690,"name":"Note on","channel":1,"noteNumber":38,"noteName":"D2","velocity":31,"programs":[]},{"track":1,"delta":0,"tick":46452,"byteIndex":19710,"name":"Note on","channel":1,"noteNumber":38,"noteName":"D2","velocity":33,"programs":[]},{"track":1,"delta":0,"tick":46498,"byteIndex":19726,"name":"Note on","channel":1,"noteNumber":38,"noteName":"D2","velocity":50,"programs":[]},{"track":1,"delta":0,"tick":46574,"byteIndex":19742,"name":"Note on","channel":1,"noteNumber":38,"noteName":"D2","velocity":50,"programs":[]},{"track":1,"delta":0,"tick":46670,"byteIndex":19758,"name":"Note on","channel":1,"noteNumber":38,"noteName":"D2","velocity":64,"programs":[]},{"track":1,"delta":0,"tick":46690,"byteIndex":19774,"name":"Note on","channel":1,"noteNumber":38,"noteName":"D2","velocity":52,"programs":[]},{"track":1,"delta":29,"tick":46816,"byteIndex":19794,"name":"Note on","channel":1,"noteNumber":36,"noteName":"C2","velocity":5,"programs":[]},{"track":1,"delta":47,"tick":46883,"byteIndex":19810,"name":"Note on","channel":1,"noteNumber":36,"noteName":"C2","velocity":6,"programs":[]},{"track":1,"delta":48,"tick":46958,"byteIndex":19834,"name":"Note on","channel":1,"noteNumber":36,"noteName":"C2","velocity":4,"programs":[]},{"track":1,"delta":0,"tick":47053,"byteIndex":19862,"name":"Note on","channel":1,"noteNumber":38,"noteName":"D2","velocity":72,"programs":[]},{"track":1,"delta":0,"tick":47074,"byteIndex":19878,"name":"Note on","channel":1,"noteNumber":38,"noteName":"D2","velocity":60,"programs":[]},{"track":1,"delta":0,"tick":47150,"byteIndex":19894,"name":"Note on","channel":1,"noteNumber":38,"noteName":"D2","velocity":76,"programs":[]},{"track":1,"delta":0,"tick":47197,"byteIndex":19910,"name":"Note on","channel":1,"noteNumber":38,"noteName":"D2","velocity":57,"programs":[]},{"track":1,"delta":0,"tick":47220,"byteIndex":19926,"name":"Note on","channel":1,"noteNumber":38,"noteName":"D2","velocity":80,"programs":[]},{"track":1,"delta":47,"tick":47267,"byteIndex":19938,"name":"Note on","channel":1,"noteNumber":36,"noteName":"C2","velocity":3,"programs":[]},{"track":1,"delta":0,"tick":47319,"byteIndex":19966,"name":"Note on","channel":1,"noteNumber":38,"noteName":"D2","velocity":65,"programs":[]},{"track":1,"delta":24,"tick":47343,"byteIndex":19978,"name":"Note on","channel":1,"noteNumber":36,"noteName":"C2","velocity":4,"programs":[]},{"track":1,"delta":0,"tick":47437,"byteIndex":20006,"name":"Note on","channel":1,"noteNumber":38,"noteName":"D2","velocity":55,"programs":[]},{"track":1,"delta":0,"tick":47536,"byteIndex":20022,"name":"Note on","channel":1,"noteNumber":38,"noteName":"D2","velocity":53,"programs":[]},{"track":1,"delta":0,"tick":47557,"byteIndex":20038,"name":"Note on","channel":1,"noteNumber":38,"noteName":"D2","velocity":53,"programs":[]},{"track":1,"delta":94,"tick":47651,"byteIndex":20050,"name":"Note on","channel":1,"noteNumber":36,"noteName":"C2","velocity":3,"programs":[]},{"track":1,"delta":0,"tick":47749,"byteIndex":20078,"name":"Note on","channel":1,"noteNumber":38,"noteName":"D2","velocity":54,"programs":[]},{"track":1,"delta":0,"tick":47848,"byteIndex":20094,"name":"Note on","channel":1,"noteNumber":38,"noteName":"D2","velocity":56,"programs":[]},{"track":1,"delta":0,"tick":47944,"byteIndex":20110,"name":"Note on","channel":1,"noteNumber":38,"noteName":"D2","velocity":60,"programs":[]},{"track":1,"delta":0,"tick":48033,"byteIndex":20126,"name":"Note on","channel":1,"noteNumber":38,"noteName":"D2","velocity":72,"programs":[]},{"track":1,"delta":0,"tick":48132,"byteIndex":20142,"name":"Note on","channel":1,"noteNumber":38,"noteName":"D2","velocity":80,"programs":[]},{"track":1,"delta":0,"tick":48229,"byteIndex":20158,"name":"Note on","channel":1,"noteNumber":38,"noteName":"D2","velocity":74,"programs":[]},{"track":1,"delta":0,"tick":48324,"byteIndex":20174,"name":"Note on","channel":1,"noteNumber":38,"noteName":"D2","velocity":71,"programs":[]},{"track":1,"delta":0,"tick":48420,"byteIndex":20190,"name":"Note on","channel":1,"noteNumber":38,"noteName":"D2","velocity":55,"programs":[]},{"track":1,"delta":0,"tick":48517,"byteIndex":20206,"name":"Note on","channel":1,"noteNumber":38,"noteName":"D2","velocity":57,"programs":[]},{"track":1,"delta":0,"tick":48614,"byteIndex":20222,"name":"Note on","channel":1,"noteNumber":38,"noteName":"D2","velocity":57,"programs":[]},{"track":1,"delta":94,"tick":48708,"byteIndex":20234,"name":"Note on","channel":1,"noteNumber":36,"noteName":"C2","velocity":2,"programs":[]},{"track":1,"delta":57,"tick":48806,"byteIndex":20266,"name":"Note on","channel":1,"noteNumber":38,"noteName":"D2","velocity":72,"programs":[]},{"track":1,"delta":0,"tick":48850,"byteIndex":20278,"name":"Note on","channel":1,"noteNumber":38,"noteName":"D2","velocity":74,"programs":[]},{"track":1,"delta":0,"tick":48946,"byteIndex":20294,"name":"Note on","channel":1,"noteNumber":38,"noteName":"D2","velocity":71,"programs":[]},{"track":1,"delta":0,"tick":48997,"byteIndex":20310,"name":"Note on","channel":1,"noteNumber":38,"noteName":"D2","velocity":80,"programs":[]},{"track":1,"delta":0,"tick":49094,"byteIndex":20326,"name":"Note on","channel":1,"noteNumber":38,"noteName":"D2","velocity":91,"programs":[]},{"track":1,"delta":0,"tick":49237,"byteIndex":20343,"name":"Note on","channel":1,"noteNumber":38,"noteName":"D2","velocity":86,"programs":[]},{"track":1,"delta":0,"tick":49259,"byteIndex":20359,"name":"Note on","channel":1,"noteNumber":42,"noteName":"Gb2","velocity":9,"programs":[]},{"track":1,"delta":0,"tick":49282,"byteIndex":20367,"name":"Note on","channel":1,"noteNumber":42,"noteName":"Gb2","velocity":1,"programs":[]},{"track":1,"delta":0,"tick":49311,"byteIndex":20375,"name":"Note on","channel":1,"noteNumber":42,"noteName":"Gb2","velocity":1,"programs":[]},{"track":1,"delta":0,"tick":49356,"byteIndex":20383,"name":"Note on","channel":1,"noteNumber":42,"noteName":"Gb2","velocity":1,"programs":[]},{"track":1,"delta":0,"tick":49380,"byteIndex":20391,"name":"Note on","channel":1,"noteNumber":42,"noteName":"Gb2","velocity":1,"programs":[]},{"track":1,"delta":23,"tick":49475,"byteIndex":20399,"name":"Note on","channel":1,"noteNumber":36,"noteName":"C2","velocity":57,"programs":[]},{"track":1,"delta":144,"tick":49795,"byteIndex":20420,"name":"Note on","channel":1,"noteNumber":36,"noteName":"C2","velocity":57,"programs":[]},{"track":1,"delta":0,"tick":49813,"byteIndex":20445,"name":"Note on","channel":1,"noteNumber":36,"noteName":"C2","velocity":46,"programs":[]},{"track":1,"delta":0,"tick":49837,"byteIndex":20469,"name":"Note on","channel":1,"noteNumber":36,"noteName":"C2","velocity":49,"programs":[]},{"track":1,"delta":0,"tick":49862,"byteIndex":20493,"name":"Note on","channel":1,"noteNumber":38,"noteName":"D2","velocity":35,"programs":[]},{"track":1,"delta":38,"tick":49911,"byteIndex":20509,"name":"Note on","channel":1,"noteNumber":36,"noteName":"C2","velocity":37,"programs":[]},{"track":1,"delta":0,"tick":49959,"byteIndex":20533,"name":"Note on","channel":1,"noteNumber":36,"noteName":"C2","velocity":57,"programs":[]},{"track":1,"delta":5,"tick":50005,"byteIndex":20549,"name":"Note on","channel":1,"noteNumber":36,"noteName":"C2","velocity":38,"programs":[]},{"track":1,"delta":0,"tick":50055,"byteIndex":20573,"name":"Note on","channel":1,"noteNumber":36,"noteName":"C2","velocity":69,"programs":[]},{"track":1,"delta":51,"tick":50150,"byteIndex":20589,"name":"Note on","channel":1,"noteNumber":36,"noteName":"C2","velocity":61,"programs":[]},{"track":1,"delta":82,"tick":50286,"byteIndex":20613,"name":"Note on","channel":1,"noteNumber":36,"noteName":"C2","velocity":65,"programs":[]},{"track":1,"delta":0,"tick":50362,"byteIndex":20637,"name":"Note on","channel":1,"noteNumber":36,"noteName":"C2","velocity":43,"programs":[]},{"track":1,"delta":0,"tick":50446,"byteIndex":20661,"name":"Note on","channel":1,"noteNumber":36,"noteName":"C2","velocity":60,"programs":[]},{"track":1,"delta":0,"tick":50520,"byteIndex":20677,"name":"Note on","channel":1,"noteNumber":36,"noteName":"C2","velocity":57,"programs":[]},{"track":1,"delta":0,"tick":50560,"byteIndex":20701,"name":"Note on","channel":1,"noteNumber":36,"noteName":"C2","velocity":43,"programs":[]},{"track":1,"delta":16,"tick":50627,"byteIndex":20725,"name":"Note on","channel":1,"noteNumber":36,"noteName":"C2","velocity":43,"programs":[]},{"track":1,"delta":67,"tick":50721,"byteIndex":20749,"name":"Note on","channel":1,"noteNumber":36,"noteName":"C2","velocity":55,"programs":[]},{"track":1,"delta":0,"tick":50801,"byteIndex":20777,"name":"Note on","channel":1,"noteNumber":36,"noteName":"C2","velocity":59,"programs":[]},{"track":1,"delta":0,"tick":50819,"byteIndex":20797,"name":"Note on","channel":1,"noteNumber":38,"noteName":"D2","velocity":32,"programs":[]},{"track":1,"delta":0,"tick":50845,"byteIndex":20817,"name":"Note on","channel":1,"noteNumber":42,"noteName":"Gb2","velocity":74,"programs":[]},{"track":1,"delta":26,"tick":50871,"byteIndex":20821,"name":"Note on","channel":1,"noteNumber":36,"noteName":"C2","velocity":52,"programs":[]},{"track":1,"delta":0,"tick":50915,"byteIndex":20845,"name":"Note on","channel":1,"noteNumber":36,"noteName":"C2","velocity":31,"programs":[]},{"track":1,"delta":0,"tick":50970,"byteIndex":20869,"name":"Note on","channel":1,"noteNumber":36,"noteName":"C2","velocity":29,"programs":[]},{"track":1,"delta":0,"tick":50990,"byteIndex":20893,"name":"Note on","channel":1,"noteNumber":36,"noteName":"C2","velocity":49,"programs":[]},{"track":1,"delta":0,"tick":51010,"byteIndex":20909,"name":"Note on","channel":1,"noteNumber":38,"noteName":"D2","velocity":44,"programs":[]},{"track":1,"delta":0,"tick":51064,"byteIndex":20925,"name":"Note on","channel":1,"noteNumber":36,"noteName":"C2","velocity":36,"programs":[]},{"track":1,"delta":0,"tick":51107,"byteIndex":20949,"name":"Note on","channel":1,"noteNumber":36,"noteName":"C2","velocity":35,"programs":[]},{"track":1,"delta":0,"tick":51157,"byteIndex":20973,"name":"Note on","channel":1,"noteNumber":36,"noteName":"C2","velocity":50,"programs":[]},{"track":1,"delta":0,"tick":51203,"byteIndex":20997,"name":"Note on","channel":1,"noteNumber":36,"noteName":"C2","velocity":53,"programs":[]},{"track":1,"delta":0,"tick":51229,"byteIndex":21021,"name":"Note on","channel":1,"noteNumber":42,"noteName":"Gb2","velocity":53,"programs":[]},{"track":1,"delta":0,"tick":51251,"byteIndex":21029,"name":"Note on","channel":1,"noteNumber":36,"noteName":"C2","velocity":37,"programs":[]},{"track":1,"delta":0,"tick":51275,"byteIndex":21053,"name":"Note on","channel":1,"noteNumber":36,"noteName":"C2","velocity":34,"programs":[]},{"track":1,"delta":0,"tick":51299,"byteIndex":21077,"name":"Note on","channel":1,"noteNumber":38,"noteName":"D2","velocity":32,"programs":[]},{"track":1,"delta":0,"tick":51324,"byteIndex":21093,"name":"Note on","channel":1,"noteNumber":42,"noteName":"Gb2","velocity":72,"programs":[]},{"track":1,"delta":17,"tick":51347,"byteIndex":21101,"name":"Note on","channel":1,"noteNumber":36,"noteName":"C2","velocity":31,"programs":[]},{"track":1,"delta":0,"tick":51368,"byteIndex":21125,"name":"Note on","channel":1,"noteNumber":36,"noteName":"C2","velocity":48,"programs":[]},{"track":1,"delta":0,"tick":51395,"byteIndex":21153,"name":"Note on","channel":1,"noteNumber":38,"noteName":"D2","velocity":35,"programs":[]},{"track":1,"delta":73,"tick":51468,"byteIndex":21165,"name":"Note on","channel":1,"noteNumber":36,"noteName":"C2","velocity":50,"programs":[]},{"track":1,"delta":0,"tick":51492,"byteIndex":21189,"name":"Note on","channel":1,"noteNumber":38,"noteName":"D2","velocity":32,"programs":[]},{"track":1,"delta":27,"tick":51543,"byteIndex":21205,"name":"Note on","channel":1,"noteNumber":36,"noteName":"C2","velocity":32,"programs":[]},{"track":1,"delta":0,"tick":51569,"byteIndex":21229,"name":"Note on","channel":1,"noteNumber":36,"noteName":"C2","velocity":37,"programs":[]},{"track":1,"delta":0,"tick":51586,"byteIndex":21245,"name":"Note on","channel":1,"noteNumber":42,"noteName":"Gb2","velocity":36,"programs":[]},{"track":1,"delta":0,"tick":51614,"byteIndex":21257,"name":"Note on","channel":1,"noteNumber":38,"noteName":"D2","velocity":33,"programs":[]},{"track":1,"delta":23,"tick":51637,"byteIndex":21269,"name":"Note on","channel":1,"noteNumber":36,"noteName":"C2","velocity":48,"programs":[]},{"track":1,"delta":0,"tick":51683,"byteIndex":21293,"name":"Note on","channel":1,"noteNumber":36,"noteName":"C2","velocity":30,"programs":[]},{"track":1,"delta":27,"tick":51730,"byteIndex":21317,"name":"Note on","channel":1,"noteNumber":36,"noteName":"C2","velocity":50,"programs":[]},{"track":1,"delta":0,"tick":51756,"byteIndex":21341,"name":"Note on","channel":1,"noteNumber":38,"noteName":"D2","velocity":34,"programs":[]},{"track":1,"delta":0,"tick":51779,"byteIndex":21357,"name":"Note on","channel":1,"noteNumber":38,"noteName":"D2","velocity":57,"programs":[]},{"track":1,"delta":0,"tick":51832,"byteIndex":21373,"name":"Note on","channel":1,"noteNumber":36,"noteName":"C2","velocity":48,"programs":[]},{"track":1,"delta":0,"tick":51874,"byteIndex":21397,"name":"Note on","channel":1,"noteNumber":36,"noteName":"C2","velocity":31,"programs":[]},{"track":1,"delta":0,"tick":51929,"byteIndex":21421,"name":"Note on","channel":1,"noteNumber":36,"noteName":"C2","velocity":47,"programs":[]},{"track":1,"delta":0,"tick":51948,"byteIndex":21445,"name":"Note on","channel":1,"noteNumber":36,"noteName":"C2","velocity":55,"programs":[]},{"track":1,"delta":0,"tick":51970,"byteIndex":21469,"name":"Note on","channel":1,"noteNumber":38,"noteName":"D2","velocity":31,"programs":[]},{"track":1,"delta":0,"tick":51999,"byteIndex":21485,"name":"Note on","channel":1,"noteNumber":38,"noteName":"D2","velocity":31,"programs":[]},{"track":1,"delta":0,"tick":52022,"byteIndex":21501,"name":"Note on","channel":1,"noteNumber":36,"noteName":"C2","velocity":35,"programs":[]},{"track":1,"delta":0,"tick":52049,"byteIndex":21525,"name":"Note on","channel":1,"noteNumber":36,"noteName":"C2","velocity":39,"programs":[]},{"track":1,"delta":0,"tick":52067,"byteIndex":21549,"name":"Note on","channel":1,"noteNumber":36,"noteName":"C2","velocity":31,"programs":[]},{"track":1,"delta":0,"tick":52094,"byteIndex":21573,"name":"Note on","channel":1,"noteNumber":42,"noteName":"Gb2","velocity":61,"programs":[]},{"track":1,"delta":14,"tick":52115,"byteIndex":21581,"name":"Note on","channel":1,"noteNumber":36,"noteName":"C2","velocity":35,"programs":[]},{"track":1,"delta":0,"tick":52143,"byteIndex":21605,"name":"Note on","channel":1,"noteNumber":36,"noteName":"C2","velocity":46,"programs":[]},{"track":1,"delta":0,"tick":52163,"byteIndex":21629,"name":"Note on","channel":1,"noteNumber":38,"noteName":"D2","velocity":35,"programs":[]},{"track":1,"delta":25,"tick":52190,"byteIndex":21645,"name":"Note on","channel":1,"noteNumber":36,"noteName":"C2","velocity":52,"programs":[]},{"track":1,"delta":0,"tick":52259,"byteIndex":21669,"name":"Note on","channel":1,"noteNumber":38,"noteName":"D2","velocity":52,"programs":[]},{"track":1,"delta":0,"tick":52310,"byteIndex":21685,"name":"Note on","channel":1,"noteNumber":36,"noteName":"C2","velocity":32,"programs":[]},{"track":1,"delta":0,"tick":52333,"byteIndex":21709,"name":"Note on","channel":1,"noteNumber":36,"noteName":"C2","velocity":42,"programs":[]},{"track":1,"delta":0,"tick":52354,"byteIndex":21737,"name":"Note on","channel":1,"noteNumber":38,"noteName":"D2","velocity":49,"programs":[]},{"track":1,"delta":0,"tick":52381,"byteIndex":21753,"name":"Note on","channel":1,"noteNumber":38,"noteName":"D2","velocity":31,"programs":[]},{"track":1,"delta":25,"tick":52406,"byteIndex":21765,"name":"Note on","channel":1,"noteNumber":36,"noteName":"C2","velocity":31,"programs":[]},{"track":1,"delta":0,"tick":52428,"byteIndex":21789,"name":"Note on","channel":1,"noteNumber":36,"noteName":"C2","velocity":37,"programs":[]},{"track":1,"delta":0,"tick":52450,"byteIndex":21813,"name":"Note on","channel":1,"noteNumber":38,"noteName":"D2","velocity":32,"programs":[]},{"track":1,"delta":0,"tick":52480,"byteIndex":21833,"name":"Note on","channel":1,"noteNumber":38,"noteName":"D2","velocity":35,"programs":[]},{"track":1,"delta":0,"tick":52502,"byteIndex":21849,"name":"Note on","channel":1,"noteNumber":38,"noteName":"D2","velocity":34,"programs":[]},{"track":1,"delta":0,"tick":52527,"byteIndex":21865,"name":"Note on","channel":1,"noteNumber":42,"noteName":"Gb2","velocity":1,"programs":[]},{"track":1,"delta":0,"tick":52546,"byteIndex":21873,"name":"Note on","channel":1,"noteNumber":42,"noteName":"Gb2","velocity":1,"programs":[]},{"track":1,"delta":0,"tick":52574,"byteIndex":21881,"name":"Note on","channel":1,"noteNumber":42,"noteName":"Gb2","velocity":1,"programs":[]},{"track":1,"delta":0,"tick":52598,"byteIndex":21889,"name":"Note on","channel":1,"noteNumber":42,"noteName":"Gb2","velocity":1,"programs":[]},{"track":1,"delta":0,"tick":52620,"byteIndex":21897,"name":"Note on","channel":1,"noteNumber":42,"noteName":"Gb2","velocity":1,"programs":[]},{"track":1,"delta":0,"tick":52643,"byteIndex":21905,"name":"Note on","channel":1,"noteNumber":42,"noteName":"Gb2","velocity":1,"programs":[]},{"track":1,"delta":52,"tick":52695,"byteIndex":21909,"name":"Note on","channel":1,"noteNumber":36,"noteName":"C2","velocity":44,"programs":[]},{"track":1,"delta":0,"tick":52717,"byteIndex":21933,"name":"Note on","channel":1,"noteNumber":36,"noteName":"C2","velocity":45,"programs":[]},{"track":1,"delta":0,"tick":52739,"byteIndex":21957,"name":"Note on","channel":1,"noteNumber":38,"noteName":"D2","velocity":35,"programs":[]},{"track":1,"delta":0,"tick":52787,"byteIndex":21973,"name":"Note on","channel":1,"noteNumber":36,"noteName":"C2","velocity":34,"programs":[]},{"track":1,"delta":19,"tick":52835,"byteIndex":22001,"name":"Note on","channel":1,"noteNumber":38,"noteName":"D2","velocity":31,"programs":[]},{"track":1,"delta":0,"tick":52861,"byteIndex":22017,"name":"Note on","channel":1,"noteNumber":42,"noteName":"Gb2","velocity":39,"programs":[]},{"track":1,"delta":20,"tick":52881,"byteIndex":22021,"name":"Note on","channel":1,"noteNumber":36,"noteName":"C2","velocity":50,"programs":[]},{"track":1,"delta":0,"tick":52905,"byteIndex":22045,"name":"Note on","channel":1,"noteNumber":36,"noteName":"C2","velocity":36,"programs":[]},{"track":1,"delta":0,"tick":52928,"byteIndex":22069,"name":"Note on","channel":1,"noteNumber":38,"noteName":"D2","velocity":34,"programs":[]},{"track":1,"delta":0,"tick":53005,"byteIndex":22085,"name":"Note on","channel":1,"noteNumber":36,"noteName":"C2","velocity":42,"programs":[]},{"track":1,"delta":0,"tick":53027,"byteIndex":22109,"name":"Note on","channel":1,"noteNumber":38,"noteName":"D2","velocity":33,"programs":[]},{"track":1,"delta":48,"tick":53079,"byteIndex":22125,"name":"Note on","channel":1,"noteNumber":36,"noteName":"C2","velocity":39,"programs":[]},{"track":1,"delta":0,"tick":53102,"byteIndex":22149,"name":"Note on","channel":1,"noteNumber":36,"noteName":"C2","velocity":58,"programs":[]},{"track":1,"delta":0,"tick":53122,"byteIndex":22165,"name":"Note on","channel":1,"noteNumber":38,"noteName":"D2","velocity":32,"programs":[]},{"track":1,"delta":0,"tick":53149,"byteIndex":22185,"name":"Note on","channel":1,"noteNumber":38,"noteName":"D2","velocity":31,"programs":[]},{"track":1,"delta":28,"tick":53177,"byteIndex":22197,"name":"Note on","channel":1,"noteNumber":36,"noteName":"C2","velocity":38,"programs":[]},{"track":1,"delta":0,"tick":53201,"byteIndex":22221,"name":"Note on","channel":1,"noteNumber":36,"noteName":"C2","velocity":39,"programs":[]},{"track":1,"delta":0,"tick":53219,"byteIndex":22245,"name":"Note on","channel":1,"noteNumber":38,"noteName":"D2","velocity":32,"programs":[]},{"track":1,"delta":0,"tick":53246,"byteIndex":22265,"name":"Note on","channel":1,"noteNumber":38,"noteName":"D2","velocity":31,"programs":[]},{"track":1,"delta":21,"tick":53267,"byteIndex":22277,"name":"Note on","channel":1,"noteNumber":36,"noteName":"C2","velocity":38,"programs":[]},{"track":1,"delta":0,"tick":53293,"byteIndex":22301,"name":"Note on","channel":1,"noteNumber":36,"noteName":"C2","velocity":42,"programs":[]},{"track":1,"delta":0,"tick":53315,"byteIndex":22325,"name":"Note on","channel":1,"noteNumber":38,"noteName":"D2","velocity":51,"programs":[]},{"track":1,"delta":0,"tick":53342,"byteIndex":22341,"name":"Note on","channel":1,"noteNumber":38,"noteName":"D2","velocity":31,"programs":[]},{"track":1,"delta":0,"tick":53366,"byteIndex":22357,"name":"Note on","channel":1,"noteNumber":36,"noteName":"C2","velocity":39,"programs":[]},{"track":1,"delta":0,"tick":53411,"byteIndex":22381,"name":"Note on","channel":1,"noteNumber":38,"noteName":"D2","velocity":53,"programs":[]},{"track":1,"delta":0,"tick":53458,"byteIndex":22397,"name":"Note on","channel":1,"noteNumber":36,"noteName":"C2","velocity":43,"programs":[]},{"track":1,"delta":0,"tick":53489,"byteIndex":22421,"name":"Note on","channel":1,"noteNumber":36,"noteName":"C2","velocity":46,"programs":[]},{"track":1,"delta":0,"tick":53535,"byteIndex":22445,"name":"Note on","channel":1,"noteNumber":38,"noteName":"D2","velocity":34,"programs":[]},{"track":1,"delta":0,"tick":53557,"byteIndex":22461,"name":"Note on","channel":1,"noteNumber":36,"noteName":"C2","velocity":38,"programs":[]},{"track":1,"delta":0,"tick":53580,"byteIndex":22485,"name":"Note on","channel":1,"noteNumber":36,"noteName":"C2","velocity":33,"programs":[]},{"track":1,"delta":0,"tick":53604,"byteIndex":22509,"name":"Note on","channel":1,"noteNumber":38,"noteName":"D2","velocity":34,"programs":[]},{"track":1,"delta":0,"tick":53628,"byteIndex":22525,"name":"Note on","channel":1,"noteNumber":38,"noteName":"D2","velocity":31,"programs":[]},{"track":1,"delta":24,"tick":53653,"byteIndex":22541,"name":"Note on","channel":1,"noteNumber":36,"noteName":"C2","velocity":47,"programs":[]},{"track":1,"delta":0,"tick":53676,"byteIndex":22565,"name":"Note on","channel":1,"noteNumber":36,"noteName":"C2","velocity":30,"programs":[]},{"track":1,"delta":0,"tick":53699,"byteIndex":22589,"name":"Note on","channel":1,"noteNumber":42,"noteName":"Gb2","velocity":6,"programs":[]},{"track":1,"delta":0,"tick":53729,"byteIndex":22617,"name":"Note on","channel":1,"noteNumber":38,"noteName":"D2","velocity":34,"programs":[]},{"track":1,"delta":24,"tick":53753,"byteIndex":22629,"name":"Note on","channel":1,"noteNumber":36,"noteName":"C2","velocity":48,"programs":[]},{"track":1,"delta":0,"tick":53770,"byteIndex":22653,"name":"Note on","channel":1,"noteNumber":38,"noteName":"D2","velocity":35,"programs":[]},{"track":1,"delta":0,"tick":53795,"byteIndex":22669,"name":"Note on","channel":1,"noteNumber":38,"noteName":"D2","velocity":44,"programs":[]},{"track":1,"delta":0,"tick":53847,"byteIndex":22685,"name":"Note on","channel":1,"noteNumber":36,"noteName":"C2","velocity":35,"programs":[]},{"track":1,"delta":0,"tick":53870,"byteIndex":22709,"name":"Note on","channel":1,"noteNumber":36,"noteName":"C2","velocity":36,"programs":[]},{"track":1,"delta":0,"tick":53891,"byteIndex":22725,"name":"Note on","channel":1,"noteNumber":38,"noteName":"D2","velocity":33,"programs":[]},{"track":1,"delta":0,"tick":53916,"byteIndex":22741,"name":"Note on","channel":1,"noteNumber":38,"noteName":"D2","velocity":35,"programs":[]},{"track":1,"delta":0,"tick":53942,"byteIndex":22757,"name":"Note on","channel":1,"noteNumber":36,"noteName":"C2","velocity":51,"programs":[]},{"track":1,"delta":0,"tick":53965,"byteIndex":22781,"name":"Note on","channel":1,"noteNumber":38,"noteName":"D2","velocity":39,"programs":[]},{"track":1,"delta":0,"tick":53987,"byteIndex":22797,"name":"Note on","channel":1,"noteNumber":38,"noteName":"D2","velocity":31,"programs":[]},{"track":1,"delta":0,"tick":54012,"byteIndex":22817,"name":"Note on","channel":1,"noteNumber":38,"noteName":"D2","velocity":31,"programs":[]},{"track":1,"delta":26,"tick":54038,"byteIndex":22829,"name":"Note on","channel":1,"noteNumber":36,"noteName":"C2","velocity":30,"programs":[]},{"track":1,"delta":0,"tick":54059,"byteIndex":22853,"name":"Note on","channel":1,"noteNumber":36,"noteName":"C2","velocity":50,"programs":[]},{"track":1,"delta":0,"tick":54083,"byteIndex":22877,"name":"Note on","channel":1,"noteNumber":38,"noteName":"D2","velocity":57,"programs":[]},{"track":1,"delta":0,"tick":54109,"byteIndex":22893,"name":"Note on","channel":1,"noteNumber":38,"noteName":"D2","velocity":31,"programs":[]},{"track":1,"delta":0,"tick":54132,"byteIndex":22909,"name":"Note on","channel":1,"noteNumber":36,"noteName":"C2","velocity":37,"programs":[]},{"track":1,"delta":0,"tick":54159,"byteIndex":22933,"name":"Note on","channel":1,"noteNumber":36,"noteName":"C2","velocity":31,"programs":[]},{"track":1,"delta":0,"tick":54179,"byteIndex":22957,"name":"Note on","channel":1,"noteNumber":38,"noteName":"D2","velocity":35,"programs":[]},{"track":1,"delta":0,"tick":54232,"byteIndex":22973,"name":"Note on","channel":1,"noteNumber":36,"noteName":"C2","velocity":33,"programs":[]},{"track":1,"delta":0,"tick":54251,"byteIndex":22997,"name":"Note on","channel":1,"noteNumber":36,"noteName":"C2","velocity":67,"programs":[]},{"track":1,"delta":0,"tick":54276,"byteIndex":23013,"name":"Note on","channel":1,"noteNumber":38,"noteName":"D2","velocity":31,"programs":[]},{"track":1,"delta":0,"tick":54303,"byteIndex":23029,"name":"Note on","channel":1,"noteNumber":38,"noteName":"D2","velocity":34,"programs":[]},{"track":1,"delta":0,"tick":54322,"byteIndex":23045,"name":"Note on","channel":1,"noteNumber":36,"noteName":"C2","velocity":31,"programs":[]},{"track":1,"delta":0,"tick":54352,"byteIndex":23069,"name":"Note on","channel":1,"noteNumber":36,"noteName":"C2","velocity":33,"programs":[]},{"track":1,"delta":0,"tick":54371,"byteIndex":23093,"name":"Note on","channel":1,"noteNumber":38,"noteName":"D2","velocity":31,"programs":[]},{"track":1,"delta":0,"tick":54397,"byteIndex":23109,"name":"Note on","channel":1,"noteNumber":42,"noteName":"Gb2","velocity":29,"programs":[]},{"track":1,"delta":0,"tick":54419,"byteIndex":23117,"name":"Note on","channel":1,"noteNumber":36,"noteName":"C2","velocity":35,"programs":[]},{"track":1,"delta":0,"tick":54446,"byteIndex":23141,"name":"Note on","channel":1,"noteNumber":36,"noteName":"C2","velocity":47,"programs":[]},{"track":1,"delta":0,"tick":54467,"byteIndex":23165,"name":"Note on","channel":1,"noteNumber":38,"noteName":"D2","velocity":30,"programs":[]},{"track":1,"delta":0,"tick":54492,"byteIndex":23185,"name":"Note on","channel":1,"noteNumber":38,"noteName":"D2","velocity":31,"programs":[]},{"track":1,"delta":25,"tick":54517,"byteIndex":23197,"name":"Note on","channel":1,"noteNumber":36,"noteName":"C2","velocity":31,"programs":[]},{"track":1,"delta":0,"tick":54544,"byteIndex":23221,"name":"Note on","channel":1,"noteNumber":36,"noteName":"C2","velocity":33,"programs":[]},{"track":1,"delta":0,"tick":54562,"byteIndex":23245,"name":"Note on","channel":1,"noteNumber":38,"noteName":"D2","velocity":35,"programs":[]},{"track":1,"delta":44,"tick":54614,"byteIndex":23261,"name":"Note on","channel":1,"noteNumber":36,"noteName":"C2","velocity":37,"programs":[]},{"track":1,"delta":0,"tick":54638,"byteIndex":23285,"name":"Note on","channel":1,"noteNumber":36,"noteName":"C2","velocity":36,"programs":[]},{"track":1,"delta":0,"tick":54660,"byteIndex":23301,"name":"Note on","channel":1,"noteNumber":38,"noteName":"D2","velocity":31,"programs":[]},{"track":1,"delta":0,"tick":54683,"byteIndex":23321,"name":"Note on","channel":1,"noteNumber":38,"noteName":"D2","velocity":36,"programs":[]},{"track":1,"delta":27,"tick":54710,"byteIndex":23333,"name":"Note on","channel":1,"noteNumber":36,"noteName":"C2","velocity":48,"programs":[]},{"track":1,"delta":0,"tick":54732,"byteIndex":23357,"name":"Note on","channel":1,"noteNumber":38,"noteName":"D2","velocity":46,"programs":[]},{"track":1,"delta":0,"tick":54755,"byteIndex":23373,"name":"Note on","channel":1,"noteNumber":38,"noteName":"D2","velocity":35,"programs":[]},{"track":1,"delta":0,"tick":54781,"byteIndex":23393,"name":"Note on","channel":1,"noteNumber":38,"noteName":"D2","velocity":33,"programs":[]},{"track":1,"delta":27,"tick":54808,"byteIndex":23405,"name":"Note on","channel":1,"noteNumber":36,"noteName":"C2","velocity":31,"programs":[]},{"track":1,"delta":15,"tick":54852,"byteIndex":23433,"name":"Note on","channel":1,"noteNumber":38,"noteName":"D2","velocity":40,"programs":[]},{"track":1,"delta":0,"tick":54879,"byteIndex":23449,"name":"Note on","channel":1,"noteNumber":38,"noteName":"D2","velocity":34,"programs":[]},{"track":1,"delta":19,"tick":54898,"byteIndex":23461,"name":"Note on","channel":1,"noteNumber":36,"noteName":"C2","velocity":60,"programs":[]},{"track":1,"delta":0,"tick":54928,"byteIndex":23485,"name":"Note on","channel":1,"noteNumber":36,"noteName":"C2","velocity":40,"programs":[]},{"track":1,"delta":0,"tick":54946,"byteIndex":23509,"name":"Note on","channel":1,"noteNumber":38,"noteName":"D2","velocity":39,"programs":[]},{"track":1,"delta":0,"tick":55001,"byteIndex":23525,"name":"Note on","channel":1,"noteNumber":36,"noteName":"C2","velocity":56,"programs":[]},{"track":1,"delta":0,"tick":55020,"byteIndex":23549,"name":"Note on","channel":1,"noteNumber":36,"noteName":"C2","velocity":90,"programs":[]},{"track":1,"delta":0,"tick":55042,"byteIndex":23573,"name":"Note on","channel":1,"noteNumber":38,"noteName":"D2","velocity":36,"programs":[]},{"track":1,"delta":0,"tick":55068,"byteIndex":23589,"name":"Note on","channel":1,"noteNumber":38,"noteName":"D2","velocity":35,"programs":[]},{"track":1,"delta":0,"tick":55090,"byteIndex":23605,"name":"Note on","channel":1,"noteNumber":36,"noteName":"C2","velocity":46,"programs":[]},{"track":1,"delta":0,"tick":55118,"byteIndex":23629,"name":"Note on","channel":1,"noteNumber":36,"noteName":"C2","velocity":54,"programs":[]},{"track":1,"delta":0,"tick":55139,"byteIndex":23653,"name":"Note on","channel":1,"noteNumber":38,"noteName":"D2","velocity":36,"programs":[]},{"track":1,"delta":0,"tick":55165,"byteIndex":23669,"name":"Note on","channel":1,"noteNumber":38,"noteName":"D2","velocity":39,"programs":[]},{"track":1,"delta":8,"tick":55187,"byteIndex":23685,"name":"Note on","channel":1,"noteNumber":36,"noteName":"C2","velocity":48,"programs":[]},{"track":1,"delta":0,"tick":55213,"byteIndex":23709,"name":"Note on","channel":1,"noteNumber":36,"noteName":"C2","velocity":61,"programs":[]},{"track":1,"delta":0,"tick":55234,"byteIndex":23733,"name":"Note on","channel":1,"noteNumber":38,"noteName":"D2","velocity":39,"programs":[]},{"track":1,"delta":0,"tick":55261,"byteIndex":23753,"name":"Note on","channel":1,"noteNumber":38,"noteName":"D2","velocity":36,"programs":[]},{"track":1,"delta":30,"tick":55291,"byteIndex":23765,"name":"Note on","channel":1,"noteNumber":36,"noteName":"C2","velocity":61,"programs":[]},{"track":1,"delta":0,"tick":55312,"byteIndex":23789,"name":"Note on","channel":1,"noteNumber":38,"noteName":"D2","velocity":35,"programs":[]},{"track":1,"delta":0,"tick":55330,"byteIndex":23809,"name":"Note on","channel":1,"noteNumber":38,"noteName":"D2","velocity":49,"programs":[]},{"track":1,"delta":53,"tick":55383,"byteIndex":23821,"name":"Note on","channel":1,"noteNumber":36,"noteName":"C2","velocity":43,"programs":[]},{"track":1,"delta":0,"tick":55406,"byteIndex":23845,"name":"Note on","channel":1,"noteNumber":36,"noteName":"C2","velocity":46,"programs":[]},{"track":1,"delta":0,"tick":55427,"byteIndex":23861,"name":"Note on","channel":1,"noteNumber":38,"noteName":"D2","velocity":39,"programs":[]},{"track":1,"delta":0,"tick":55453,"byteIndex":23877,"name":"Note on","channel":1,"noteNumber":38,"noteName":"D2","velocity":37,"programs":[]},{"track":1,"delta":0,"tick":55483,"byteIndex":23893,"name":"Note on","channel":1,"noteNumber":36,"noteName":"C2","velocity":63,"programs":[]},{"track":1,"delta":0,"tick":55503,"byteIndex":23917,"name":"Note on","channel":1,"noteNumber":38,"noteName":"D2","velocity":45,"programs":[]},{"track":1,"delta":0,"tick":55523,"byteIndex":23933,"name":"Note on","channel":1,"noteNumber":38,"noteName":"D2","velocity":42,"programs":[]},{"track":1,"delta":0,"tick":55548,"byteIndex":23949,"name":"Note on","channel":1,"noteNumber":38,"noteName":"D2","velocity":37,"programs":[]},{"track":1,"delta":22,"tick":55574,"byteIndex":23965,"name":"Note on","channel":1,"noteNumber":36,"noteName":"C2","velocity":56,"programs":[]},{"track":1,"delta":0,"tick":55598,"byteIndex":23989,"name":"Note on","channel":1,"noteNumber":38,"noteName":"D2","velocity":39,"programs":[]},{"track":1,"delta":0,"tick":55619,"byteIndex":24005,"name":"Note on","channel":1,"noteNumber":38,"noteName":"D2","velocity":54,"programs":[]},{"track":1,"delta":0,"tick":55649,"byteIndex":24021,"name":"Note on","channel":1,"noteNumber":38,"noteName":"D2","velocity":57,"programs":[]},{"track":1,"delta":8,"tick":55673,"byteIndex":24037,"name":"Note on","channel":1,"noteNumber":36,"noteName":"C2","velocity":43,"programs":[]},{"track":1,"delta":0,"tick":55695,"byteIndex":24061,"name":"Note on","channel":1,"noteNumber":38,"noteName":"D2","velocity":56,"programs":[]},{"track":1,"delta":0,"tick":55715,"byteIndex":24081,"name":"Note on","channel":1,"noteNumber":38,"noteName":"D2","velocity":61,"programs":[]},{"track":1,"delta":0,"tick":55736,"byteIndex":24097,"name":"Note on","channel":1,"noteNumber":38,"noteName":"D2","velocity":66,"programs":[]},{"track":1,"delta":0,"tick":55767,"byteIndex":24113,"name":"Note on","channel":1,"noteNumber":38,"noteName":"D2","velocity":65,"programs":[]},{"track":1,"delta":0,"tick":55788,"byteIndex":24129,"name":"Note on","channel":1,"noteNumber":42,"noteName":"Gb2","velocity":1,"programs":[]},{"track":1,"delta":0,"tick":55812,"byteIndex":24137,"name":"Note on","channel":1,"noteNumber":42,"noteName":"Gb2","velocity":1,"programs":[]},{"track":1,"delta":0,"tick":55835,"byteIndex":24145,"name":"Note on","channel":1,"noteNumber":42,"noteName":"Gb2","velocity":1,"programs":[]},{"track":1,"delta":0,"tick":55859,"byteIndex":24153,"name":"Note on","channel":1,"noteNumber":42,"noteName":"Gb2","velocity":1,"programs":[]},{"track":1,"delta":0,"tick":55883,"byteIndex":24161,"name":"Note on","channel":1,"noteNumber":42,"noteName":"Gb2","velocity":1,"programs":[]},{"track":1,"delta":0,"tick":55907,"byteIndex":24169,"name":"Note on","channel":1,"noteNumber":42,"noteName":"Gb2","velocity":1,"programs":[]},{"track":1,"delta":0,"tick":55933,"byteIndex":24177,"name":"Note on","channel":1,"noteNumber":42,"noteName":"Gb2","velocity":1,"programs":[]},{"track":1,"delta":0,"tick":55955,"byteIndex":24185,"name":"Note on","channel":1,"noteNumber":42,"noteName":"Gb2","velocity":1,"programs":[]},{"track":1,"delta":0,"tick":55980,"byteIndex":24193,"name":"Note on","channel":1,"noteNumber":42,"noteName":"Gb2","velocity":1,"programs":[]},{"track":1,"delta":0,"tick":56002,"byteIndex":24201,"name":"Note on","channel":1,"noteNumber":42,"noteName":"Gb2","velocity":1,"programs":[]},{"track":1,"delta":0,"tick":56034,"byteIndex":24209,"name":"Note on","channel":1,"noteNumber":42,"noteName":"Gb2","velocity":1,"programs":[]},{"track":1,"delta":0,"tick":56053,"byteIndex":24217,"name":"Note on","channel":1,"noteNumber":42,"noteName":"Gb2","velocity":1,"programs":[]},{"track":1,"delta":0,"tick":56082,"byteIndex":24225,"name":"Note on","channel":1,"noteNumber":42,"noteName":"Gb2","velocity":1,"programs":[]},{"track":1,"delta":0,"tick":56099,"byteIndex":24233,"name":"Note on","channel":1,"noteNumber":42,"noteName":"Gb2","velocity":1,"programs":[]},{"track":1,"delta":0,"tick":56152,"byteIndex":24245,"name":"Note on","channel":1,"noteNumber":42,"noteName":"Gb2","velocity":1,"programs":[]},{"track":1,"delta":0,"tick":56173,"byteIndex":24253,"name":"Note on","channel":1,"noteNumber":42,"noteName":"Gb2","velocity":1,"programs":[]},{"track":1,"delta":0,"tick":56196,"byteIndex":24261,"name":"Note on","channel":1,"noteNumber":42,"noteName":"Gb2","velocity":1,"programs":[]},{"track":1,"delta":0,"tick":56220,"byteIndex":24269,"name":"Note on","channel":1,"noteNumber":42,"noteName":"Gb2","velocity":1,"programs":[]},{"track":1,"delta":0,"tick":56247,"byteIndex":24277,"name":"Note on","channel":1,"noteNumber":42,"noteName":"Gb2","velocity":1,"programs":[]},{"track":1,"delta":0,"tick":56269,"byteIndex":24285,"name":"Note on","channel":1,"noteNumber":42,"noteName":"Gb2","velocity":1,"programs":[]},{"track":1,"delta":0,"tick":56291,"byteIndex":24293,"name":"Note on","channel":1,"noteNumber":42,"noteName":"Gb2","velocity":1,"programs":[]},{"track":1,"delta":0,"tick":56313,"byteIndex":24301,"name":"Note on","channel":1,"noteNumber":42,"noteName":"Gb2","velocity":1,"programs":[]},{"track":1,"delta":0,"tick":56340,"byteIndex":24309,"name":"Note on","channel":1,"noteNumber":42,"noteName":"Gb2","velocity":1,"programs":[]},{"track":1,"delta":0,"tick":56365,"byteIndex":24317,"name":"Note on","channel":1,"noteNumber":42,"noteName":"Gb2","velocity":1,"programs":[]},{"track":1,"delta":0,"tick":56387,"byteIndex":24325,"name":"Note on","channel":1,"noteNumber":42,"noteName":"Gb2","velocity":1,"programs":[]},{"track":1,"delta":0,"tick":56412,"byteIndex":24333,"name":"Note on","channel":1,"noteNumber":42,"noteName":"Gb2","velocity":1,"programs":[]},{"track":1,"delta":0,"tick":56435,"byteIndex":24341,"name":"Note on","channel":1,"noteNumber":42,"noteName":"Gb2","velocity":1,"programs":[]},{"track":1,"delta":0,"tick":56464,"byteIndex":24349,"name":"Note on","channel":1,"noteNumber":42,"noteName":"Gb2","velocity":1,"programs":[]},{"track":1,"delta":19,"tick":56483,"byteIndex":24353,"name":"Note on","channel":1,"noteNumber":38,"noteName":"D2","velocity":38,"programs":[]}],"tempo":126,"programs":["/Users/davidkurz/Documents/Lights_Project/Animations/up_down_tail_red_blue.mov","/Users/davidkurz/Documents/Lights_Project/Animations/Fall_blocks_gradient.mov","/Users/davidkurz/Documents/Lights_Project/Animations/Fall_blocks_sunset.mov","/Users/davidkurz/Documents/Lights_Project/Animations/Fall_blocks_algee.mov","/Users/davidkurz/Documents/Lights_Project/Animations/Fall_blocks_random.mov","/Users/davidkurz/Documents/Lights_Project/Animations/Wipe_Tail_bounce1.mov","/Users/davidkurz/Documents/Lights_Project/Animations/Wipe_Tail_bounce2.mov","/Users/davidkurz/Documents/Lights_Project/Animations/down_swipe_tail_yello_tip.mov","/Users/davidkurz/Documents/Lights_Project/Animations/Swipe_tail_Bounce2-1.mov","/Users/davidkurz/Documents/Lights_Project/Animations/Swipe_tail_bounce2-2.mov","/Users/davidkurz/Documents/Lights_Project/Animations/Fall_Test.mov","/Users/davidkurz/Documents/Lights_Project/Animations/graeme (Converted).mov","/Users/davidkurz/Documents/Lights_Project/Animations/bar_half_fill.mov","/Users/davidkurz/Documents/Lights_Project/Animations/Poison_lips_wiggle.mov","/Users/davidkurz/Documents/Lights_Project/Animations/33_test (Converted).mov","/Users/davidkurz/Documents/Lights_Project/Animations/infinite_loop (Converted).mov","/Users/davidkurz/Documents/Lights_Project/Animations/square_ripple.mov","/Users/davidkurz/Documents/Lights_Project/Animations/PoisonL_wiggle2 (Converted).mov","/Users/davidkurz/Documents/Lights_Project/Animations/color_up.mov","/Users/davidkurz/Documents/Lights_Project/Animations/color_up_faster.mov"]}
